<?xml version="1.0" encoding="UTF-8"?>
<svg id="Layer_1" xmlns="http://www.w3.org/2000/svg" version="1.1" viewBox="0 0 300 300">
  <!-- Generator: Adobe Illustrator 29.2.1, SVG Export Plug-In . SVG Version: 2.1.0 Build 116)  -->
  <defs>
    <style>
      .st0 {
        fill: #13131c;
      }
    </style>
  </defs>
  <path id="Shape" class="st0" d="M150.1801414,2.2426564c81.3284564,0,147.2582366,65.9297522,147.2582366,147.2582366s-65.9297802,147.2582366-147.2582366,147.2582366S2.9219048,230.8293775,2.9219048,149.5008931,68.851685,2.2426564,150.1801414,2.2426564ZM18.0996937,138.4765704l23.1732672,11.58424-23.0805169,11.5372909c5.8743998,64.9211173,58.5662245,116.3313193,124.0460552,120.2011874l10.1539593-20.305707,9.993767,19.9851544c64.2507843-5.8669529,115.2434281-57.5922484,119.9687097-122.1665809l-18.5083166-9.2513447,18.5830096-9.2896711c-4.2199563-64.8976287-55.1515691-117.0593237-119.5078699-123.1980885l-10.5292999,21.0550163-10.697807-21.3923104c-65.5874188,4.1442555-118.2221039,55.9942726-123.5949578,121.2408137ZM199.2958026,75.5812617c.4123511.5995034.575091,1.3359906.4537569,2.0534405l-25.5103338,150.8307606c-.2578979,1.5244867-1.7027084,2.5513469-3.227251,2.293477-.8349486-.1412111-1.5611613-.6527515-1.9752201-1.3914504l-31.1309791-55.5353924c-.4500055-.8026974-1.2656929-1.333023-2.1819135-1.4185504l-64.6419985-6.0340882c-1.5394365-.1437028-2.6709733-1.5081931-2.5272985-3.0476576.0771566-.8264659.5170556-1.5760271,1.2009665-2.0464416l125.6470825-86.4241513c1.2738957-.8762425,3.0169461-.5538421,3.8931886.7200536Z"/>
</svg>