<?xml version="1.0" encoding="UTF-8"?>
<svg id="Layer_1" xmlns="http://www.w3.org/2000/svg" version="1.1" viewBox="0 0 400 300">
  <!-- Generator: Adobe Illustrator 29.2.1, SVG Export Plug-In . SVG Version: 2.1.0 Build 116)  -->
  <path d="M129.4,48.2l-2.4-.4h-1.2c0-.1-1.2-.2-1.2-.2h-1.1s-1.1.1-1.1.1h-1.1c0,.1-1,.4-1,.4l-1,.3-.9.3-.9.4-.8.4-.8.5-.7.6-.6.6-.6.7-.5.6-.4.7-.4.7-.3.8-.2.8-.2.8v.8c0,0-.2.9-.2.9v1.8c0,0,.3,1.9.3,1.9l.5,2,.7,2.1v.6c.1,0,0,.5,0,.5l-.3.5-.4.4-3.9,2.5-1.4.8-1.3.8-1.1.9-1,.9-.8,1-.7,1-.5,1-.4,1.1h0l-.2,1.2v1.2s0,1.3,0,1.3l.3,1.3.5,1.4.7,1.4.8,1.4,1,1.5,1.1,1.7,1.7,2.9.2.6v.7s0,.6,0,.6l-.3.6-1,1.4-.8,1.4-.6,1.3-.5,1.3-.3,1.3v1.2c-.1,0-.1,1.2-.1,1.2l.2,1.2.2.7.3.7.3.7.4.7.5.7.5.6,1.3,1.3,1.5,1.2,1.7,1.2,2.1,1.1,2.3,1.1.3.2.3.2.2.3v.3c.1,0,.3.3.3.3v.4s0,.4,0,.4v.3c-.1,0-.6,1.2-.6,1.2l-.3,1.2-.2,1.1v1.1c-.1,0-.2,1.1-.2,1.1v1s.2,1,.2,1l.3,1h0l.3.8.4.8.4.7.5.7.5.6.6.5.6.5.7.4,7.3,3.6.7.4.5.6.3.7v.8c.1,0,.2,1.4.2,1.4l.2,1.3.2,1.2.3,1.1.4,1.1.5,1,.6.9.7.8h0l.8.8,1,.8,1.1.6,1.2.6,1.3.4,1.4.3,1.5.2h1.6c0,.1.4.2.4.2l.4.2.4.2.3.3.3.3.2.4.2.4v.4s.1,1.5.1,1.5l.2,1.4.3,1.3.4,1.2.5,1.1.6,1,.7.9.8.8h0l.9.7,1,.6,1.1.5,1.2.4,1.3.3h1.4c0,.1,1.5.2,1.5.2h1.6c0,0,.5,0,.5,0h.6c0,0,.5.3.5.3l.5.3.4.4.4.4.3.5.2.5.4,1.8.5,1.6.6,1.5.7,1.3.8,1.1.8.9.9.8,1,.6h0l.8.3.8.3.9.2h.9c0,0,1,0,1,0h1c0,0,1.1-.3,1.1-.3l1.1-.3h.6c0-.1.6-.1.6-.1h.6c0,.1.6.3.6.3l.5.3.5.4.3.5.3.6.8,2.2.9,1.9,1,1.7,1,1.4,1.1,1.2,1.2,1,.6.4.6.3.6.3.6.2h0l.9.2h.9c0,0,.9,0,.9,0h.9c0-.1.9-.3.9-.3l1-.3,1-.4,1-.5h.3c0-.1.5-.2.5-.2h.5s.5,0,.5,0l.5.2.4.3.3.3.3.4v.4c.1,0,.4,1.1.4,1.1l.4,1.1.7,1.3.9,1.3,1,1.2,1.2,1.1,1.4,1,1.6.9,1.7.9,2,.8.5.3.5.3.4.5.3.5,12,27.4.3.7v.7c.1,0,.4,4,.4,4l.4,4.1.5,4.1.7,4.2.3,1.4.4,1.4.5,1.4.6,1.3.7,1.3.8,1.2.9,1.1,1,1,1,.9,1.1.8,1.1.7,1.1.6,1.2.4,1.2.3,1.2.2h1.2c0,0,.8,0,.8,0h.9c0-.1.9-.3.9-.3l.8-.3.8-.3.8-.4.8-.5.8-.6.9-.7.8-.7.7-.7.6-.8.6-.8.5-.8.4-.8.3-.8.2-1.1v-1.1c.1,0,.1-1.2.1-1.2v-1.2c-.1,0-.4-1.3-.4-1.3l-.4-1.3-.5-1.4-.7-1.4-.8-1.4-.9-1.5-1-1.5-1.2-1.6-1.3-1.6-1.5-1.7-3.9-4.3-3-3.3-1.7-2.1-.2-.4-12.7-26.4v-.4c-.1,0-.2-.4-.2-.4v-.4c0,0,.2-.4.2-.4l.7-1.5.6-1.5.4-1.5.2-1.6h0v-1c0,0,0-1,0-1v-1c0,0-.2-1-.2-1l-.2-1-.3-1-.7-2-.3-.8v-.7c-.1,0-.2-.8-.2-.8v-.7h.1l.2-.7.4-.7.5-.7.7-.6,1.1-1,1-1,.9-1,.7-1,.6-1,.5-1,.3-1.1.2-1.1h0v-1s0-1,0-1l-.2-1.1-.3-1.1-.4-1.1-.5-1.1-.6-1.1-.7-1.1-.3-.5-.2-.5v-.5c0,0,0-.5,0-.5v-.5c.1,0,.4-.5.4-.5l.3-.4.4-.4,1.1-.9.9-.9.8-.9.7-.9.6-1,.5-1,.3-1,.2-1h0v-1.1c.1,0,0-1.2,0-1.2l-.2-1.2-.3-1.2-.4-1.2-.6-1.3-.7-1.3-.9-1.3-.2-.3v-.3c-.1,0-.2-.4-.2-.4v-.3s0-.4,0-.4v-.4c.1,0,.3-.3.3-.3l.2-.3,1-1.2.9-1.2.7-1.2.6-1.2.5-1.2.3-1.2.2-1.2v-1.3h0v-1.2s-.2-1.2-.2-1.2l-.3-1.2-.4-1.2-.5-1.2-.7-1.2-.8-1.2-.9-1.2-.2-.3-.2-.3v-.3c0,0-.2-.4-.2-.4v-.4s.1-.4.1-.4v-.3c.1,0,.3-.3.3-.3l.6-.8,1.3-1.8.8-1.3.5-1.1.3-1.1v-.9c0,0,0-1,0-1l-.2-1-.4-1.1-.8-2-.9-1.8-1-1.7-1.2-1.6-1.3-1.6-.4-.6-.3-.7v-.8s.1-.8.1-.8l1.6-4.7.4-1.6.3-1.4.2-1.2v-1.1s0-1,0-1l-.2-1-.4-1-.5-.9-.7-.9-.9-.9-1.1-1-1.3-1-1.6-1.1-1.9-1.2-.3-.2-.3-.3-.2-.3-.2-.3v-.4c0,0-.1-.4-.1-.4v-.4s.1-.4.1-.4l.4-1.2.3-1.2.2-1.1.2-1.1v-1.1c.1,0,.2-1.1.2-1.1v-1.1s0-1,0-1l-.2-1.3-.5-1.2-.6-1.2-.8-1.1-1-1-1.1-.8-1.2-.6-1.3-.5-2.5-.5-4.1-.7-.6-.2-.5-.4-.3-.5v-.6c-.1,0-.3-1.4-.3-1.4l-.2-1.4-.3-1.4-.4-1.4-.5-1.3-.5-1.3-.6-1.2-.7-1.1-.8-1-.8-.9-.9-.8-.9-.7-1-.6-1-.5-1-.4-1.1-.3h-.9c0-.1-1-.2-1-.2h-1c0,0-1,.2-1,.2l-1,.2-1,.3-1,.4-1,.5-1.9.9-.6.3h-.4c0,0-.7,0-.7,0l-.7-.2-.6-.4-.4-.6-1.1-1.8-1.2-1.6-.7-.8-.7-.7-.7-.6-.7-.6-.7-.5-.8-.4-.7-.4-.8-.3-.8-.2h-.8c0-.1-.8-.3-.8-.3h-.8s-1.1,0-1.1,0l-1.1.2-1.1.3-1,.5-1,.6-1,.7-.9.8-.9.9-2,2.1-1,1-.6.3h-.7c0,.1-.6,0-.6,0l-.6-.2-2.6-1.4-2.4-1.1-2.3-.8-1.1-.3-1.1-.2-1-.2h-1c0,0-1,0-1,0h-.9c0,0-.9.2-.9.2l-.9.2-.8.3-.8.4-.8.4-.7.5-.7.6-.7.7-.6.7-.6.8-.5.9-.5,1-.5,1-.4,1.1-.4,1.2-.3,1.3-.6,2.8-.4,3.1h0c0,0-.2.6-.2.6l-.4.4-.5.2h-.5" vector-effect="non-scaling-stroke" fill="none"/>
  <path d="M152.7,44.3l.2-.6v-.6c.1,0,.2-.6.2-.6v-.6s0-.6,0-.6v-.6c-.1,0-.3-.6-.3-.6l-.2-.6-.3-.5-.3-.5-.4-.5-.4-.4-.5-.4-.5-.3-.5-.3-.6-.2-3.8-1.3-.6-.2h-.6c0-.1-.6-.2-.6-.2h-.6s-.6,0-.6,0h-.6c0,.1-.6.3-.6.3l-.6.2-.5.3-.5.3-.5.4-.4.4-.4.5-.3.5-.3.5-.2.6-1.3,3.8-.2.6v.6c-.1,0-.2.6-.2.6v.6s0,.6,0,.6v.6c.1,0,.3.6.3.6l.2.6.3.5.3.5.4.5.4.4.5.4.5.3.5.3.6.2,3.8,1.3.6.2h.6c0,.1.6.2.6.2h.6s.6,0,.6,0h.6c0-.1.6-.3.6-.3l.6-.2.5-.3.5-.3.5-.4.4-.4.4-.5.3-.5.3-.5.2-.6,1.3-3.8" vector-effect="non-scaling-stroke" fill="none"/>
  <path d="M130.7,53l-8.7-1.1h-.7s-.7,0-.7,0l-.7.2-.6.4-.5.5-.4.5-.3.6-.2.7h0c0,.1-.5,4.5-.5,4.5v.8c0,0,0,.8,0,.8v.8c0,0,.2.8.2.8l.2.7.3.7.3.7.4.6.5.6.5.5.6.5.6.4.7.3.7.3.7.2.7.2h.9c0,.1.7.2.7.2h.7s.7-.1.7-.1l.7-.2.7-.2.7-.3.6-.4.6-.5.6-.5.5-.6.5-.6.4-.7.3-.7.3-.7.2-.8v-.8c.1,0,.7-4.3.7-4.3v-.7s0-.7,0-.7l-.2-.7-.4-.6-.5-.5-.6-.4-.6-.3-.7-.2" vector-effect="non-scaling-stroke" fill="none"/>
  <path d="M176.9,37.1l-1.4-1.3-1.3-1.1-1.3-.9-1.3-.7-1.3-.5-1.3-.2h-1.2s-.6,0-.6,0h-.6c0,.1-.6.3-.6.3l-.6.3-.6.3-.5.4-.5.5-.5.5-.9,1.2-.8,1.4-.7,1.6-.5,1.8-.4,2v.4s0,.3,0,.3v.3c0,0,.3.3.3.3l.2.3.3.3.3.2h.3c0,.1,9.8,3.2,9.8,3.2h.4c0,0,.4,0,.4,0h.4c0,0,.4-.2.4-.2l.4-.2.3-.2.3-.3.2-.3,3.3-6.4.2-.4v-.4c.1,0,.1-.4.1-.4v-.4s-.1-.4-.1-.4v-.4c-.1,0-.4-.4-.4-.4l-.3-.3" vector-effect="non-scaling-stroke" fill="none"/>
  <path d="M202.1,167.6v-1.5c-.1,0-.1-1.3-.1-1.3v-1.3c0,0,.3-1.2.3-1.2l.3-1.1.4-1,.5-.9.6-.8h0l.5-.6.6-.5.6-.4.7-.4.4-.3.4-.4.3-.4.2-.5v-.5c.1,0,.1-.5.1-.5v-.5c0,0-.3-.5-.3-.5l-.8-1.9-.7-1.8-.5-1.7-.3-1.6v-1.6c-.1,0,0-1.5,0-1.5l.2-1.4.4-1.4.5-1.1.6-1,.8-1,.9-.9.3-.3.2-.3v-.4c.1,0,.2-.4.2-.4v-.4s0-.4,0-.4v-.4c-.1,0-.3-.4-.3-.4l-.6-1-.5-1-.4-1-.3-1-.3-1-.2-.9v-1c0,0-.1-1-.1-1h0v-.9c0,0,.2-.9.2-.9l.2-.9.3-.9.4-.9.5-.9.5-.9.6-.9.4-.7.3-.7v-.7c.1,0,.2-.7.2-.7v-.7c0,0-.2-.8-.2-.8l-.3-.8-.4-.9-1.2-2.4-1.4-2.7-.4-1-.3-1-.2-.9v-.9c-.1,0-.1-.9-.1-.9v-.9c.1,0,.5-1.2.5-1.2l.5-1.1.8-1.1,1-1.1.3-.4.3-.4v-.5c.1,0,.2-.5.2-.5v-.5c0,0-.2-.5-.2-.5l-.3-.4-.3-.4h-.2c0-.1-1.4-1.2-1.4-1.2l-1.2-1.1-1-1.1-.9-1.1-.7-1.2-.5-1.1-.3-1.2-.2-1.2h0v-.7s0-.7,0-.7v-.7c.1,0,.3-.7.3-.7l.2-.7.3-.8.8-1.5.2-.3v-.4c.1,0,.2-.5.2-.5v-.5s-.2-.4-.2-.4l-.2-.4-.3-.3-.4-.3-.4-.2-1.2-.4-1.1-.4-1.1-.5-.9-.6-.9-.6-.8-.7-.7-.7-.6-.8h0l-.5-.9-.4-1-.3-1.1-.2-1.1v-1.2c0,0,0-1.3,0-1.3v-1.3c.1,0,.4-1.4.4-1.4h0c0-.1,0-.5,0-.5v-.4s-.2-.4-.2-.4l-.2-.3-.3-.3-.3-.2-.4-.2h-.4c0,0-1.6-.2-1.6-.2l-1.5-.3-1.5-.4-1.4-.5h0l-1.2-.6-1.2-.7-1.1-.8-1.1-.8-1.1-1-1-1-1-1.1-.9-1.2-.4-.4-.5-.3h-.5c0,0-.6,0-.6,0l-.4.2-.3.2-.2.3-.2.3-.4.8-.6.7-.8.6-.9.5-1,.3h-1c0,.1-1,.1-1,.1l-1-.2-1.5-.5-1.4-.5-1.4-.6-1.3-.6-1.2-.7-1.1-.8-1.1-.8-1-.9-.2-.2h-.3c0-.1-.3-.2-.3-.2h-.3s-.3.1-.3.1l-.3.2-.2.2-.2.3v.3c-.1,0-.5,1.7-.5,1.7l-.3.8-.3.7-.4.7-.4.6-.4.6-.5.5h0l-.5.5-.6.4-1.2.7-1.4.5-1.6.3h-1.7c0,.1-1.9.1-1.9.1l-2.1-.2-2.2-.4h-.5s-.5,0-.5,0l-.4.2-.4.2-.3.3-.3.4-.2.4v.5c0,0,0,.3,0,.3v1.6s0,1.5,0,1.5l-.2,1.4-.3,1.3-.4,1.2-.5,1.1-.6,1.1-.7,1h0l-.7.8-.8.8-.9.7-1,.6-1,.6-1.1.5-1.2.5-1.3.4-.4.2-.4.2-.3.3-.2.4-.2.4v.4c-.1,0-.1.5-.1.5v.4c0,0,.5,2,.5,2l.2,1.9v1.9s-.3,1.9-.3,1.9l-.3,1.3-.4,1.3-.5,1.2-.6,1.2-.2.4v.4c0,0-.1.4-.1.4v.4s.2.4.2.4l.2.4.2.3.3.3,1,.8.9.9.8.9.7.9.6,1,.5,1,.4,1,.3,1,.2.9v.9c0,0,.1.9.1.9v1c0,0-.2,1-.2,1l-.2,1-.3,1-.4,1.1v.4c-.1,0-.2.5-.2.5v.5s.2.4.2.4l.2.4.3.4.4.3.4.2,1.4.6,1.3.6,1.1.6,1,.6.9.6.8.6.6.7.5.6.4.7.3.8.2.8v.8s-.1,5.4-.1,5.4v.4s.1.4.1.4l.2.4.2.3.3.3.3.2.4.2h.4c0,0,1.9.4,1.9.4l.9.2.8.3.8.3.8.4.7.4.7.5h0l1,.9.9.9.8,1.1.7,1.2.6,1.3.6,1.4.5,1.5.4,1.6v.4c.1,0,.3.4.3.4l.2.3.3.3.4.2h.4c0,.1.4.2.4.2h.4s1.6-.1,1.6-.1h1.5c0,.1,1.4.5,1.4.5l.7.2.6.3h0l1,.6,1,.8.9,1,.8,1.1.7,1.3.6,1.4.5,1.6.4,1.8v.4c.1,0,.3.4.3.4l.2.3.3.3.4.2.4.2h.4c0,.1.4.1.4.1h1.8c0,0,1.7.3,1.7.3l1.7.4,1.6.6h0l1.3.6,1.3.8,1.2.9,1.1,1,1.1,1.2,1,1.3,1,1.4.9,1.5.2.4.3.3.3.3.4.2.4.2.4.2h.4c0,0,.5,0,.5,0h1.5s1.5.2,1.5.2l1.5.3,1.5.5,1.5.6,1.6.7,1.6.9,1.6,1h.3c0,.1.3.2.3.2h.3s.3,0,.3,0h.2c0-.1.2-.3.2-.3l.2-.2v-.2c.1,0,.1-.4.1-.4" vector-effect="non-scaling-stroke" fill="none"/>
  <path d="M183.3,49.2l9.1,5.6h.3c0,.1.6.4.6.4h.6c0,.1.6,0,.6,0h.6c0-.1.6-.3.6-.3l.5-.3.5-.4.4-.5.7-1.1.5-.9.4-.9.3-.9.2-.9.2-.9v-.9c0,0,0-.9,0-.9v-.9c-.1,0-.3-.9-.3-.9l-.3-.8-.4-.8-.4-.8-.5-.7-.6-.6-.6-.6-.7-.5h-.3c0-.1-.7-.5-.7-.5l-.8-.3-.8-.2h-.8c0-.1-.8-.2-.8-.2h-.9s-.9.2-.9.2l-.9.2-.8.3-.8.4-.8.5-.7.6-.7.6-.7.7-.6.7-.6.8-.7,1.1-.3.6-.2.6v.6s0,.6,0,.6l.2.6.3.6.4.5.5.4" vector-effect="non-scaling-stroke" fill="none"/>
  <path d="M121.7,78.1l-.3-.7-.4-.6-.5-.6-.5-.5-.5-.5-.6-.4-.6-.3-.7-.3-.7-.2-.7-.2h-.7c0,0-.7,0-.7,0h-.7s-.7.2-.7.2l-.7.2-.7.3-.7.3-.6.4-.6.5-.5.5-.5.5-.4.6-.3.6-.3.7-.2.7-.2.7v.7c0,0,0,.7,0,.7v.7s.2.7.2.7l.2.7.3.7.3.7.4.6.5.6.5.5.5.5.6.4.6.3.7.3.7.2.7.2h.7c0,0,.7,0,.7,0h.7s.7-.2.7-.2l.7-.2.7-.3.7-.3.6-.4.6-.5.5-.5.5-.5.4-.6.3-.6.3-.7.2-.7.2-.7v-.7c0,0,0-.7,0-.7v-.7s-.2-.7-.2-.7l-.2-.7-.3-.7" vector-effect="non-scaling-stroke" fill="none"/>
  <path d="M115.3,94l-.7.2-.7.3-.6.4-.6.4-.6.5-.5.6-.5.6-.4.7-.3.7-.3.7-.2.8v.8c-.1,0-.2.8-.2.8v.8s0,.8,0,.8l.2.8.2.8.3.8.4.7.4.7.5.7.5.6.6.5.6.5.7.4.7.3.7.3.7.2h.7c0,.1.7.2.7.2h.7s.7-.2.7-.2h0l.7-.2.7-.3.6-.4.6-.4.6-.5.5-.6.5-.6.4-.7.3-.7.3-.7.2-.8v-.8c.1,0,.2-.8.2-.8v-.8s0-.8,0-.8l-.2-.8-.2-.8-.3-.8-.4-.7-.4-.7-.5-.7-.5-.6-.6-.5-.6-.5-.7-.4-.7-.3-.7-.3-.7-.2h-.7c0-.1-.7-.2-.7-.2h-.7s-.7.2-.7.2" vector-effect="non-scaling-stroke" fill="none"/>
  <path d="M214.3,59.3l-.3-.7-.4-.6-.5-.6-.5-.6-.6-.5-.7-.4-.7-.4-.7-.3-.7-.2h-.7c0-.1-.8-.2-.8-.2h-.7s-.8,0-.8,0h-.7c0,.1-.7.4-.7.4l-.7.3-.7.3-.6.4-.6.5-.6.5-.5.6-.4.7-.4.7-.3.7-.2.7v.7c-.1,0-.2.8-.2.8v.7s0,.8,0,.8v.7c.1,0,.4.7.4.7l.3.7.3.7.4.6.5.6.5.6.6.5.7.4.7.4.7.3.7.2h.7c0,.1.8.2.8.2h.7s.8,0,.8,0h.7c0-.1.7-.4.7-.4l.7-.3.7-.3.6-.4.6-.5.6-.5.5-.6.4-.7.4-.7.3-.7.2-.7v-.7c.1,0,.2-.8.2-.8v-.7s0-.8,0-.8v-.7c-.1,0-.4-.7-.4-.7l-.3-.7" vector-effect="non-scaling-stroke" fill="none"/>
  <path d="M124.5,114.8l-.6.3-.6.4-.5.4-.5.5-.4.5-.4.6-.3.6-.2.7-.2.7v.7c-.1,0-.2.8-.2.8v.8s0,.8,0,.8v.8c.1,0,.3.8.3.8l.3.7.3.7.4.7.4.6.5.6.5.6.6.5.6.4.6.4.7.3.7.2.7.2h.7c0,0,.7.1.7.1h.7c0,0,.6-.2.6-.2l.6-.2h0l.6-.3.6-.4.5-.4.5-.5.4-.5.4-.6.3-.6.2-.7.2-.7v-.7c.1,0,.2-.8.2-.8v-.8s0-.8,0-.8v-.8c-.1,0-.3-.8-.3-.8l-.3-.7-.3-.7-.4-.7-.4-.6-.5-.6-.5-.6-.6-.5-.6-.4-.6-.4-.7-.3-.7-.2-.7-.2h-.7c0,0-.7-.1-.7-.1h-.7c0,0-.6.2-.6.2l-.6.2" vector-effect="non-scaling-stroke" fill="none"/>
  <path d="M222.5,79.5l-.3-.7-.4-.6-.5-.6-.5-.5-.6-.5-.6-.4-.7-.4-.7-.3-.7-.2h-.7c0-.1-.8-.2-.8-.2h-.8s-.7,0-.7,0h-.7c0,.1-.7.4-.7.4l-.7.3-.7.3-.6.4-.6.5-.5.5-.5.6-.4.6-.4.7-.3.7-.2.7v.7c-.1,0-.2.8-.2.8v.8s0,.7,0,.7v.7c.1,0,.4.7.4.7l.3.7.3.7.4.6.5.6.5.5.6.5.6.4.7.4.7.3.7.2h.7c0,.1.8.2.8.2h.8s.7,0,.7,0h.7c0-.1.7-.4.7-.4l.7-.3.7-.3.6-.4.6-.5.5-.5.5-.6.4-.6.4-.7.3-.7.2-.7v-.7c.1,0,.2-.8.2-.8v-.8s0-.7,0-.7v-.7c-.1,0-.4-.7-.4-.7l-.3-.7" vector-effect="non-scaling-stroke" fill="none"/>
  <path d="M214.3,96.9l-.6.4-.6.5-.5.6-.5.6-.4.7-.3.7-.3.7-.2.8v.8c-.1,0-.1.8-.1.8v.8s.2.8.2.8l.2.8.3.8.3.7.4.7.5.7.5.6.6.6.6.5.7.4.7.4.7.3.8.2.8.2h.8c0,0,.8,0,.8,0h.8c0,0,.8-.2.8-.2l.7-.2.7-.3.7-.4h0l.6-.4.6-.5.5-.6.5-.6.4-.7.3-.7.3-.7.2-.8v-.8c.1,0,.1-.8.1-.8v-.8s-.2-.8-.2-.8l-.2-.8-.3-.8-.3-.7-.4-.7-.5-.7-.5-.6-.6-.6-.6-.5-.7-.4-.7-.4-.7-.3-.8-.2-.8-.2h-.8c0,0-.8,0-.8,0h-.8c0,0-.8.2-.8.2l-.7.2-.7.3-.7.4" vector-effect="non-scaling-stroke" fill="none"/>
  <path d="M136.5,132.6l-.5.4-.5.5-.4.5-.4.6-.3.6-.3.7-.2.7v.7c-.1,0-.2.7-.2.7v.7s0,.7,0,.7v.7c.1,0,.4.7.4.7l.3.7.3.7.4.6.5.6.5.5.6.5.6.4.6.4.7.3.7.3.7.2h.7c0,.1.7.2.7.2h.7s.7-.1.7-.1l.7-.2.7-.2.6-.3.6-.4h0l.5-.4.5-.5.4-.5.4-.6.3-.6.3-.7.2-.7v-.7c.1,0,.2-.7.2-.7v-.7s0-.7,0-.7v-.7c-.1,0-.4-.7-.4-.7l-.3-.7-.3-.7-.4-.6-.5-.6-.5-.5-.6-.5-.6-.4-.6-.4-.7-.3-.7-.3-.7-.2h-.7c0-.1-.7-.2-.7-.2h-.7s-.7.1-.7.1l-.7.2-.7.2-.6.3-.6.4" vector-effect="non-scaling-stroke" fill="none"/>
  <path d="M163.1,149.9l-.3-.7-.4-.6-.5-.6-.5-.5-.6-.5-.6-.4-.7-.4-.7-.3-.7-.2h-.7c0-.1-.8-.2-.8-.2h-.8s-.7,0-.7,0h-.7c0,.1-.7.4-.7.4l-.7.3-.7.3-.6.4-.6.5-.5.5-.5.6-.4.6-.4.7-.3.7-.2.7v.7c-.1,0-.2.8-.2.8v.8s0,.7,0,.7v.7c.1,0,.4.7.4.7l.3.7.3.7.4.6.5.6.5.5.6.5.6.4.7.4.7.3.7.2h.7c0,.1.8.2.8.2h.8s.7,0,.7,0h.7c0-.1.7-.4.7-.4l.7-.3.7-.3.6-.4.6-.5.5-.5.5-.6.4-.6.4-.7.3-.7.2-.7v-.7c.1,0,.2-.8.2-.8v-.8s0-.7,0-.7v-.7c-.1,0-.4-.7-.4-.7l-.3-.7" vector-effect="non-scaling-stroke" fill="none"/>
  <path d="M226.6,121.8l-.3-.7-.4-.6-.5-.6-.5-.6-.6-.5-.6-.4-.7-.4-.7-.3-.7-.2-.8-.2h-.7c0,0-.7,0-.7,0h-.8c0,0-.7.2-.7.2l-.7.2-.7.3-.7.3-.6.4-.6.5-.6.5-.5.6-.4.6-.4.7-.3.7-.2.7-.2.8v.7c0,0,0,.7,0,.7v.8c0,0,.2.7.2.7l.2.7.3.7.3.7.4.6.5.6.5.6.6.5.6.4.7.4.7.3.7.2.8.2h.7c0,0,.7,0,.7,0h.8c0,0,.7-.2.7-.2l.7-.2.7-.3.7-.3.6-.4.6-.5.6-.5.5-.6.4-.6.4-.7.3-.7.2-.7.2-.8v-.7c0,0,0-.7,0-.7v-.8c0,0-.2-.7-.2-.7l-.2-.7-.3-.7" vector-effect="non-scaling-stroke" fill="none"/>
  <path d="M180.3,164l-5-5.6-.4-.4-.5-.3-.5-.2h-.5c0-.1-.6-.2-.6-.2h-.5c0,0-.5.2-.5.2l-.5.3-.4.3-2.7,2.4-.5.5-.5.5-.4.6-.3.6-.3.6-.2.7-.2.7v.7c-.1,0-.1.7-.1.7v.7s0,.7,0,.7l.2.7.2.6.3.6.3.5.4.5.4.5.5.5.5.4.5.3.6.3.6.2.6.2h.7c0,.1.7.2.7.2h.7s.7-.2.7-.2l.7-.2.7-.2.7-.3.6-.4.6-.4.6-.5,2.7-2.4.3-.3.3-.4.2-.4v-.5c.1,0,.3-.5.3-.5v-.5s0-.5,0-.5v-.5c-.1,0-.4-.6-.4-.6l-.4-.5" vector-effect="non-scaling-stroke" fill="none"/>
  <path d="M215.5,138.1l-.7.2-.6.3-.6.4-.6.4-.5.5-.5.6-.4.6-.4.7-.3.7-.2.7-.2.8v.8c0,0-.1.8-.1.8v.8c0,0,.2.8.2.8l.2.8.3.8.3.7.4.7.4.7.5.6.5.6.6.5.6.4.6.4.7.3.7.2.7.2h.7c0,0,.7,0,.7,0h.7c0,0,.7-.2.7-.2h0l.7-.2.6-.3.6-.4.6-.4.5-.5.5-.6.4-.6.3-.7.3-.7.2-.7.2-.8v-.8c0,0,.1-.8.1-.8v-.8c0,0-.2-.8-.2-.8l-.2-.8-.3-.8-.3-.7-.4-.7-.4-.7-.5-.6-.5-.6-.6-.5-.6-.4-.6-.4-.7-.3-.7-.2-.7-.2h-.7c0,0-.7,0-.7,0h-.7c0,0-.7.2-.7.2" vector-effect="non-scaling-stroke" fill="none"/>
  <path d="M198.1,173.1l-.8-.6-.8-.6-.9-.5-1-.5-.9-.4-1-.3-1-.3-1-.2h-.9c0-.1-.9-.2-.9-.2h-.8s-.8.1-.8.1l-.7.2-.7.2-.6.3-.6.4-.6.6-.6.7-.5.8-.4,1-.4,1.5v1.5c-.1,0,0,1.4,0,1.4l.3,1.4.2.7.3.6.3.6.4.6.4.5.5.5.5.4.5.4,1.3.7,1.3.5,1.3.2h1.2s1-.2,1-.2l1-.3.9-.5.9-.6.9-.8.9-.9.9-1.1.9-1.2.5-.9.3-.9.2-.9v-.9s0-.9,0-.9l-.3-.8-.4-.7-.5-.6" vector-effect="non-scaling-stroke" fill="none"/>
  <path d="M209.4,160.2l-3.2,9-.2.7v.7s.2.7.2.7l.3.6.3.4.4.4.4.3.5.2,1.8.7.9.3.9.2h1c0,.1.9.3.9.3h.9s.9,0,.9,0h.9c0-.1.8-.3.8-.3l.8-.3.7-.3.7-.4.6-.4.5-.5.5-.6.4-.6.3-.7h0l.4-1.1h0l.2-.7v-.7c0,0,.1-.7.1-.7v-.7c0,0-.2-.8-.2-.8l-.3-.7-.3-.7-.5-.7-.5-.7-.6-.7-.6-.6-.7-.6-.8-.5-.8-.5-.9-.4-.9-.4-1.8-.7h0s-.6-.2-.6-.2h-.6s-.6,0-.6,0l-.6.2-.5.3-.4.4-.4.5-.3.5" vector-effect="non-scaling-stroke" fill="none"/>
  <path d="M207.4,178.8l-.7.2-.7.3-.7.4-.6.4-.6.5-.5.6-.5.6-.4.7-.4.7-.3.7-.2.8v.8c-.1,0-.2.8-.2.8v.8s0,.8,0,.8v.8c.1,0,.4.8.4.8l.3.8.4.7.4.7.5.7.5.6.6.5.6.5.7.4.7.3.7.3.7.2h.8c0,.1.8.1.8.1h.8s.7-.2.7-.2h0l.7-.2.7-.3.7-.4.6-.4.6-.5.5-.6.5-.6.4-.7.4-.7.3-.7.2-.8v-.8c.1,0,.2-.8.2-.8v-.8s0-.8,0-.8v-.8c-.1,0-.4-.8-.4-.8l-.3-.8-.4-.7-.4-.7-.5-.7-.5-.6-.6-.5-.6-.5-.7-.4-.7-.3-.7-.3-.7-.2h-.8c0-.1-.8-.1-.8-.1h-.8s-.7.2-.7.2" vector-effect="non-scaling-stroke" fill="none"/>
  <path d="M218,201.7l-.2-.3-.2-.3-.3-.2-.3-.2h-.3c0,0-.4-.1-.4-.1h-.4s-.3.2-.3.2h-.2c0,0-.3.3-.3.3l-.3.2-.2.3-.2.3v.3c0,0-.1.4-.1.4v.4s.2.3.2.3l7.7,16.7.2.3.2.3.3.2.3.2h.3c0,0,.4.1.4.1h.4c0,0,.3-.2.3-.2h.2c0,0,.3-.3.3-.3l.3-.2.2-.3.2-.3v-.3c0,0,.1-.4.1-.4v-.4s-.2-.3-.2-.3l-7.7-16.7" vector-effect="non-scaling-stroke" fill="none"/>
  <path d="M241.1,256.3l1.3-.7,1-.8.4-.5.4-.5.6-1,.4-1,.2-1.1v-1.2s-.2-1.3-.2-1.3l-.4-1.3-.6-1.4-.8-1.5-.9-1.6-1.1-1.7-1.3-1.7-1.4-1.8-1.6-1.9-1.8-2-2-2-4.8-4.7-.3-.3h-.2c0,0-.3-.2-.3-.2h-.7c0,.1-.5.6-.5.6l-.2.2v.2s0,.5,0,.5l.5,6.7.3,2.8.4,2.6.4,2.4.5,2.3.5,2.1.6,1.9.6,1.7.7,1.5.7,1.3.8,1.1.9,1,.9.8.9.6,1,.4,1.1.2h.6s.6,0,.6,0l1.3-.3,1.4-.5" vector-effect="non-scaling-stroke" fill="none"/>
  <path d="M135.4,46.1l.4-3.3.6-3,.3-1.4.4-1.3.5-1.2.5-1.1.5-1,.6-1,.6-.9.7-.8.7-.7.8-.6.8-.6.8-.5.8-.4.9-.3.9-.2h1c0-.1,1-.2,1-.2h1.1s1.1.1,1.1.1l1.1.2,1.2.2,1.2.3,2.5.9,2.7,1.2,2.8,1.5.6.3h.7c0,0,.7,0,.7,0l.6-.3,1.1-1.1,2.2-2.3,1-1,1-.9,1.1-.8,1.1-.6,1.1-.5,1.2-.4,1.2-.3h1.2c0,0,.9,0,.9,0h.9c0,.1.9.3.9.3l.8.2.9.3.8.4.8.5.8.5.8.6.8.7.7.7.7.8,1.3,1.8,1.2,2,.4.6.6.4.7.3h.7s.4,0,.4,0l.7-.3,2.1-1,1.1-.5,1.1-.4,1.1-.3,1-.2h1.1c0-.1,1.1-.2,1.1-.2h1c0,0,1,.2,1,.2l1.2.3,1.1.4,1.1.6,1.1.7,1,.8,1,.9.9,1,.9,1.1.8,1.2.7,1.3.6,1.4.5,1.4.4,1.5.3,1.5.3,1.6v1.6c.1,0,.3.7.3.7l.4.6.5.4.7.2,4.4.7,2.7.6,1.5.5,1.4.7,1.2.9,1.1,1,.9,1.2.7,1.3.5,1.3.3,1.4v1.1c.1,0,.1,1.2.1,1.2v1.2c0,0-.2,1.2-.2,1.2l-.2,1.2-.3,1.2-.4,1.3-.5,1.3v.4c0,0-.1.4-.1.4v.4s.1.4.1.4l.2.4.2.3.3.3.3.2,2.1,1.3,1.7,1.2,1.4,1.1,1.2,1.1,1,1,.8,1,.6,1,.4,1,.2,1v1.1c.1,0,0,1.2,0,1.2l-.2,1.3-.3,1.5-.5,1.7-1.7,5.1v.8c-.1,0-.1.8-.1.8l.3.8.5.7,1.4,1.7,1.3,1.8,1.1,1.9,1,1.9.9,2.2.4,1.3.2,1.1v1.1c0,0,0,1,0,1l-.3,1.2-.6,1.2-.9,1.4-1.4,2-.7.9-.2.3v.4c-.1,0-.2.4-.2.4v.4s0,.4,0,.4v.4c.1,0,.3.4.3.4l.2.3,1,1.3.9,1.3.7,1.3.6,1.3.5,1.3.3,1.3.2,1.3v1.3h0v1.4c0,0-.3,1.3-.3,1.3l-.4,1.3-.5,1.4-.7,1.3-.8,1.4-1,1.3-1.1,1.3-.2.3-.2.4v.4c-.1,0-.2.4-.2.4v.4s.1.4.1.4v.4c.1,0,.3.4.3.4l.9,1.4.8,1.4.6,1.4.5,1.3.4,1.3.2,1.3v1.3s-.1,1.2-.1,1.2h0l-.2,1.1-.4,1.1-.5,1.1-.6,1.1-.8,1-.9,1-1,1-1.1.9-.4.4-.3.5-.2.5-.2.6v.6s0,.6,0,.6l.2.6.3.5.8,1.2.7,1.2.6,1.2.4,1.2.3,1.2.2,1.1v1.1c0,0,0,1.1,0,1.1h0l-.2,1.2-.3,1.2-.5,1.1-.6,1.1-.8,1.1-.9,1.1-1.1,1.1-1.2,1.1-.7.7-.6.7-.4.8-.2.8h0v.7c-.1,0,0,.8,0,.8l.2.8.3.9.8,2.1.3,1.1.2,1.1.2,1v1c0,0,.1,1,.1,1v1h0l-.2,1.7-.4,1.7-.6,1.6-.8,1.6-.2.4v.5c0,0,0,.5,0,.5l.2.4,13.8,28.7.3.4,1.8,2.3,3.3,3.6,4.3,4.7,1.6,1.9,1.4,1.8,1.3,1.7,1.1,1.6,1,1.6.9,1.5.7,1.5.6,1.5.4,1.4.3,1.4.2,1.3v1.3s-.1,1.2-.1,1.2l-.3,1.2-.3.9-.4.9-.5.9-.6.9-.7.8-.8.8-.9.8-1,.8-.9.6-.9.5-.9.5-.9.4-.9.3-.9.2-.9.2h-.9c0,0-1.3,0-1.3,0l-1.3-.2-1.3-.3-1.3-.5-1.2-.6-1.2-.7-1.2-.9-1.1-1-1-1.1-1-1.2-.9-1.3-.8-1.4-.7-1.5-.6-1.5-.4-1.5-.4-1.5-.8-4.6-.6-4.5-.5-4.4-.3-4.4v-.8c-.1,0-.4-.7-.4-.7l-13-29.8-.3-.6-.4-.5-.5-.4-.6-.3-2.1-.8-1.9-.9-1.7-1-1.5-1.1-1.3-1.2-1.1-1.3-.9-1.4-.7-1.4h0l-.5-1.2-.3-1.2-.2-.5-.3-.5-.3-.4-.4-.3-.5-.2h-.5c0,0-.5,0-.5,0h-.5c0,.1-.3.3-.3.3l-1.1.5-1.1.4-1.1.3-1,.2h-1c0,.1-1,.1-1,.1h-.9c0,0-.9-.3-.9-.3h0l-.7-.2-.7-.3-.7-.4-.7-.4-1.3-1.1-1.2-1.3-1.1-1.6-1-1.8-.9-2.1-.9-2.4-.3-.6-.4-.5-.5-.5-.6-.4-.6-.2h-.6c0-.1-.7-.1-.7-.1h-.6c0,.1-1.2.4-1.2.4l-1.2.2h-1.1c0,0-1.1.1-1.1.1h-1c0,0-1-.3-1-.3l-.9-.3-.9-.4h0l-1.1-.7-1-.9-.9-1-.8-1.2-.7-1.4-.7-1.6-.5-1.7-.5-1.9-.2-.6-.3-.5-.4-.5-.4-.4-.5-.3-.6-.2h-.6c0-.1-.6-.1-.6-.1h-1.7c0,0-1.7,0-1.7,0h-1.5c0-.1-1.4-.4-1.4-.4l-1.3-.4-1.2-.5-1.1-.7-1-.7h0l-.8-.9-.7-1-.6-1-.5-1.2-.4-1.3-.3-1.4-.2-1.5v-1.6c-.1,0-.2-.5-.2-.5l-.2-.4-.2-.4-.3-.4-.4-.3-.4-.2-.5-.2h-.5c0,0-1.7-.2-1.7-.2l-1.6-.3-1.5-.4-1.4-.5-1.3-.6-1.2-.7-1-.8-.9-.9h0l-.7-.9-.7-1-.5-1.1-.5-1.2-.3-1.2-.3-1.3-.2-1.5v-1.5c0,0-.2-.8-.2-.8l-.4-.8-.5-.7-.7-.5-7.9-3.9-.8-.4-.7-.5-.6-.6-.5-.7-.5-.8-.4-.8-.4-.8-.3-.9h0l-.3-1.1-.2-1.1v-1.1s0-1.2,0-1.2l.2-1.2.3-1.2.4-1.3.5-1.3v-.4c.1,0,.1-.4.1-.4v-.4s-.2-.4-.2-.4l-.2-.3-.2-.3-.3-.2-.3-.2-2.5-1.2-2.2-1.2-1.9-1.3-1.7-1.3-1.4-1.4-.5-.7-.5-.7-.4-.7-.4-.8-.3-.8-.2-.8-.2-1.3v-1.3s.2-1.3.2-1.3l.3-1.4.5-1.4.7-1.5.8-1.5,1-1.6.3-.6v-.7c.1,0,0-.7,0-.7l-.3-.6-1.9-3.1-1.2-1.8-1.1-1.6-.9-1.5-.7-1.5-.5-1.5-.3-1.4v-1.4c-.1,0-.1-1.3-.1-1.3l.2-1.3h0l.4-1.2.6-1.1.7-1.1.9-1,1.1-1,1.2-1,1.4-.9,1.6-.9,4.2-2.7.4-.4.3-.6v-.6c0,0,0-.6,0-.6l-.8-2.3-.6-2.2-.3-2.1v-2c0,0,0-.9,0-.9v-.9c.1,0,.3-.9.3-.9l.3-.9.3-.8.4-.8.4-.8.5-.7.6-.7.7-.7.7-.6.8-.6.9-.5.9-.4,1-.4,1.1-.3,1.1-.2h1.2c0-.1,1.2-.2,1.2-.2h1.2s1.3,0,1.3,0h1.3c0,.1,2.6.6,2.6.6h.6s.6-.3.6-.3l.4-.4.2-.6h0ZM159,43.2l.2-.6v-.6c.1,0,.2-.7.2-.7v-.7s0-.7,0-.7v-.6c-.1,0-.3-.6-.3-.6l-.3-.6-.3-.6-.4-.5-.4-.5-.5-.5-.5-.4-.5-.4-.6-.3-.6-.2-4.1-1.4-.6-.2h-.6c0-.1-.7-.2-.7-.2h-.7s-.7,0-.7,0h-.6c0,.1-.6.3-.6.3l-.6.3-.6.3-.5.4-.5.4-.5.5-.4.5-.4.5-.3.6-.2.6-1.4,4.1-.2.6v.6c-.1,0-.2.7-.2.7v.7s0,.7,0,.7v.6c.1,0,.3.6.3.6l.3.6.3.6.4.5.4.5.5.5.5.4.5.4.6.3.6.2,4.1,1.4.6.2h.6c0,.1.7.2.7.2h.7s.7,0,.7,0h.6c0-.1.6-.3.6-.3l.6-.3.6-.3.5-.4.5-.4.5-.5.4-.5.4-.5.3-.6.2-.6,1.4-4.1ZM135,52.7l-9.5-1.2h-.8s-.7,0-.7,0l-.7.3-.6.4-.5.5-.4.6-.3.7-.2.7h0c0,.1-.6,4.9-.6,4.9v.8c0,0,0,.8,0,.8v.8c0,0,.3.8.3.8l.2.8.3.8.4.7.5.7.5.6.6.6.6.5.7.5.7.4.7.3.8.2.8.2h1c0,.1.8.2.8.2h.8s.8-.1.8-.1l.8-.2.7-.3.8-.3.7-.4.6-.5.6-.5.5-.6.5-.7.4-.7.4-.8.3-.8.2-.8v-.8c.1,0,.8-4.7.8-4.7v-.8s0-.7,0-.7l-.3-.7-.4-.6-.5-.5-.6-.4-.7-.3-.7-.2ZM185.3,35.4l-1.5-1.5-1.5-1.2-1.4-1-1.4-.7-1.4-.5-1.4-.2h-1.3s-.6,0-.6,0h-.6c0,.1-.6.4-.6.4l-.6.3-.6.3-.6.4-.5.5-.5.5-1,1.3-.8,1.5-.7,1.7-.6,1.9-.5,2.1v.4s0,.4,0,.4v.4c.1,0,.3.3.3.3l.2.3.3.3.3.2.3.2,10.7,3.4h.4c0,0,.4.1.4.1h.4c0,0,.4-.2.4-.2l.4-.2.3-.3.3-.3.2-.3,3.6-6.9.2-.4v-.4c.1,0,.1-.5.1-.5v-.4s-.1-.5-.1-.5l-.2-.4-.2-.4-.3-.4ZM212.7,177.4v-1.6c-.1,0-.1-1.5-.1-1.5v-1.4c0,0,.3-1.3.3-1.3l.3-1.2.4-1.1.6-1,.7-.9h0l.6-.6.6-.5.7-.5.7-.4.5-.3.4-.4.3-.5.2-.5v-.6c.1,0,.1-.6.1-.6v-.6c0,0-.3-.6-.3-.6l-.9-2-.7-1.9-.5-1.9-.3-1.8-.2-1.7v-1.6c.1,0,.4-1.6.4-1.6l.5-1.5.6-1.2.7-1.1.8-1.1,1-1,.3-.3.2-.4.2-.4v-.4c0,0,.1-.4.1-.4v-.4c0,0-.2-.4-.2-.4l-.2-.4-.7-1.1-.6-1.1-.5-1-.4-1.1-.3-1-.2-1v-1c0,0-.1-1-.1-1h0v-1c0,0,.2-1,.2-1l.2-1,.3-1,.4-1,.5-1,.6-1,.7-1,.5-.8.3-.8.2-.7v-.7s0-.8,0-.8l-.2-.9-.3-.9-.4-1-1.3-2.6-1.5-2.9-.5-1.1-.3-1.1-.2-1v-1c-.1,0-.1-1-.1-1v-.9c.1,0,.5-1.3.5-1.3l.6-1.2.9-1.2,1.1-1.2.4-.4.3-.5v-.5c.1,0,.2-.6.2-.6v-.5c0,0-.2-.5-.2-.5l-.3-.5-.4-.4h-.2c0-.1-1.5-1.3-1.5-1.3l-1.3-1.2-1.1-1.2-1-1.2-.7-1.3-.6-1.2-.4-1.3-.2-1.3h0v-.8s0-.8,0-.8v-.8c.1,0,.4-.8.4-.8l.3-.8.4-.8.9-1.6.2-.3v-.4c.1,0,.2-.5.2-.5v-.5c0,0-.2-.5-.2-.5l-.3-.4-.3-.4-.4-.3-.5-.2-1.3-.4-1.2-.5-1.1-.5-1-.6-.9-.7-.8-.8-.7-.8-.6-.9h0l-.5-1-.5-1.1-.3-1.1-.2-1.2v-1.3c0,0,0-1.4,0-1.4l.2-1.4.3-1.5v-.2s0-.4,0-.4v-.4s-.2-.4-.2-.4l-.2-.3-.3-.3-.3-.2-.4-.2h-.4c0,0-1.7-.2-1.7-.2l-1.7-.3-1.6-.5-1.5-.6h0l-1.3-.6-1.3-.7-1.3-.8-1.2-.9-1.1-1.1-1.1-1.1-1.1-1.2-1-1.4-.4-.4-.6-.3h-.6c0,0-.6,0-.6,0l-.4.2-.4.3-.2.3-.2.4-.5.9-.7.8-.8.7-1,.5-1,.3-1.1.2h-1.1s-1.1-.3-1.1-.3l-1.6-.5-1.6-.6-1.5-.6-1.4-.7-1.3-.8-1.2-.8-1.2-.9-1.1-.9-.3-.2h-.3c0-.1-.3-.2-.3-.2h-.3s-.3.1-.3.1l-.3.2-.2.2-.2.3v.4c-.1,0-.6,1.8-.6,1.8l-.3.8-.4.8-.4.7-.5.7-.5.6-.6.5h0l-.6.5-.6.4-1.3.7-1.5.6-1.7.3-1.9.2h-2.1s-2.2-.3-2.2-.3l-2.4-.4h-.5s-.5,0-.5,0l-.5.2-.4.3-.4.3-.3.4-.2.5v.5c0,0,0,.3,0,.3v1.7s0,1.6,0,1.6l-.2,1.5-.3,1.4-.4,1.3-.5,1.2-.6,1.2-.8,1.1h0l-.7.9-.9.8-.9.8-1,.7-1.1.6-1.2.6-1.3.5-1.4.4-.4.2-.4.3-.4.3-.3.4-.2.4v.5c-.1,0-.1.5-.1.5v.5c0,0,.5,2.2.5,2.2l.2,2.1v2.1s-.3,2-.3,2l-.3,1.4-.4,1.4-.5,1.4-.7,1.4-.2.4v.5c-.1,0-.1.4-.1.4v.4s.2.4.2.4l.2.4.3.4.3.3,1.1.9,1,.9.9,1,.8,1,.7,1,.5,1,.4,1.1.3,1.1.2,1v1c.1,0,.2,1,.2,1v1.1c0,0-.2,1.1-.2,1.1l-.2,1.1-.3,1.1-.4,1.2v.5c-.1,0-.2.5-.2.5v.5c0,0,.2.5.2.5l.2.4.3.4.4.3.5.2,1.5.7,1.4.6,1.2.7,1.1.7.9.7.8.7.6.7.5.7.4.8.3.8.2.9v.9c0,0-.1,5.8-.1,5.8v.4s.1.4.1.4l.2.4.3.3.3.3.4.3.4.2h.4c0,0,2,.4,2,.4l1,.2.9.3.9.4.8.4.8.5.8.5h0l1.1.9,1,1,.9,1.2.8,1.3.7,1.4.6,1.6.5,1.7.4,1.8v.5c.1,0,.4.4.4.4l.3.4.4.3.4.2.4.2h.5c0,0,.5,0,.5,0h1.8c0-.1,1.6,0,1.6,0l1.5.4.7.3.7.4h0l1.1.7,1,.9.9,1,.8,1.2.7,1.4.6,1.6.5,1.7.5,1.9v.4c.1,0,.4.4.4.4l.3.4.3.3.4.2.4.2h.4c0,.1.5.1.5.1h2c0,0,1.9.3,1.9.3l1.8.4,1.7.6h0l1.4.7,1.4.8,1.3,1,1.2,1.1,1.2,1.3,1.1,1.4,1.1,1.5,1,1.7.3.4.3.4.4.3.4.3.4.2.5.2h.5c0,0,.5,0,.5,0h1.6s1.6.2,1.6.2l1.6.4,1.7.5,1.7.7,1.7.8,1.7,1,1.7,1.1.3.2h.3c0,0,.3,0,.3,0h.3c0,0,.2-.2.2-.2l.2-.2.2-.3v-.3c.1,0,.2-.5.2-.5ZM192.2,48.6l9.9,6.1.3.2.6.2h.6c0,.1.7.1.7.1h.6c0-.1.6-.4.6-.4l.5-.4.5-.4.4-.5.7-1.2.5-.9.4-.9.3-1,.3-1,.2-1v-1c0,0,0-1,0-1v-1c-.1,0-.3-1-.3-1l-.3-.9-.4-.8-.5-.8-.5-.7-.6-.7-.7-.6-.7-.5h0l-.3-.2h0l-.8-.4-.9-.3-.9-.2h-.9c0-.1-.9-.2-.9-.2h-1c0,0-.9.2-.9.2l-1,.3-.9.4-.9.4-.9.5-.8.6-.8.7-.7.8-.7.8-.6.9-.7,1.2-.3.6-.2.7v.7s0,.7,0,.7l.2.7.3.6.5.5.6.4ZM125.2,80l-.4-.7-.4-.7-.5-.6-.6-.5-.6-.5-.7-.5-.7-.4-.7-.3-.8-.2-.8-.2h-.8c0,0-.8,0-.8,0h-.8s-.8.2-.8.2l-.8.2-.7.3-.7.4-.7.4-.6.5-.5.6-.5.6-.5.7-.4.7-.3.7-.2.8-.2.8v.8c0,0,0,.8,0,.8v.8s.2.8.2.8l.2.8.3.7.4.7.4.7.5.6.6.5.6.5.7.5.7.4.7.3.8.2.8.2h.8c0,0,.8,0,.8,0h.8s.8-.2.8-.2l.8-.2.7-.3.7-.4.7-.4.6-.5.5-.6.5-.6.5-.7.4-.7.3-.7.2-.8.2-.8v-.8c0,0,0-.8,0-.8v-.8s-.2-.8-.2-.8l-.2-.8-.3-.7ZM118.2,97.3l-.8.2-.7.3-.7.4-.7.5-.6.5-.6.6-.5.7-.4.7-.4.8-.3.8-.2.8v.9c-.1,0-.2.9-.2.9v.9s0,.9,0,.9l.2.9.2.9.3.8.4.8.5.8.5.7.6.7.6.6.7.5.7.5.7.4.8.3.8.2h.8c0,.1.8.2.8.2h.8s.8-.2.8-.2h0l.8-.2.7-.3.7-.4.7-.5.6-.5.6-.6.5-.7.4-.7.4-.8.3-.8.2-.8v-.9c.1,0,.2-.9.2-.9v-.9s0-.9,0-.9l-.2-.9-.2-.9-.3-.8-.4-.8-.5-.8-.5-.7-.6-.7-.6-.6-.7-.5-.7-.5-.7-.4-.8-.3-.8-.2h-.8c0-.1-.8-.2-.8-.2h-.8s-.8.2-.8.2ZM225.9,59.5l-.4-.7-.5-.7-.5-.6-.6-.6-.6-.5-.7-.5-.7-.4-.8-.3-.8-.3-.8-.2h-.8c0-.1-.8-.1-.8-.1h-.8c0,0-.8.2-.8.2l-.8.2-.8.3-.7.4-.7.5-.6.5-.6.6-.5.6-.5.7-.4.7-.3.8-.3.8-.2.8v.8c-.1,0-.1.8-.1.8v.8c0,0,.2.8.2.8l.2.8.3.8.4.7.5.7.5.6.6.6.6.5.7.5.7.4.8.3.8.3.8.2h.8c0,.1.8.1.8.1h.8c0,0,.8-.2.8-.2l.8-.2.8-.3.7-.4.7-.5.6-.5.6-.6.5-.6.5-.7.4-.7.3-.8.3-.8.2-.8v-.8c.1,0,.1-.8.1-.8v-.8c0,0-.2-.8-.2-.8l-.2-.8-.3-.8ZM128.2,119.9l-.6.3-.6.4-.6.5-.5.5-.5.6-.4.6-.3.7-.3.7-.2.8v.8c-.1,0-.2.8-.2.8v.8s0,.8,0,.8l.2.8.2.8.3.8.4.8.4.7.5.7.5.7.6.6.6.5.7.5.7.4.7.3.7.3.7.2h.7c0,0,.7.1.7.1h.7c0,0,.7-.2.7-.2l.7-.2h0l.6-.3.6-.4.6-.5.5-.5.5-.6.4-.6.3-.7.3-.7.2-.8v-.8c.1,0,.2-.8.2-.8v-.8s0-.8,0-.8l-.2-.8-.2-.8-.3-.8-.4-.8-.4-.7-.5-.7-.5-.7-.6-.6-.6-.5-.7-.5-.7-.4-.7-.3-.7-.3-.7-.2h-.7c0,0-.7-.1-.7-.1h-.7c0,0-.7.2-.7.2l-.7.2ZM234.9,81.5l-.4-.7-.5-.7-.5-.6-.6-.6-.6-.5-.7-.5-.7-.4-.8-.3-.8-.3-.8-.2h-.8c0-.1-.8-.1-.8-.1h-.8c0,0-.8.2-.8.2l-.8.2-.8.3-.7.4-.7.5-.6.5-.6.6-.5.6-.5.7-.4.7-.3.8-.3.8-.2.8v.8c-.1,0-.1.8-.1.8v.8c0,0,.2.8.2.8l.2.8.3.8.4.7.5.7.5.6.6.6.6.5.7.5.7.4.8.3.8.3.8.2h.8c0,.1.8.1.8.1h.8c0,0,.8-.2.8-.2l.8-.2.8-.3.7-.4.7-.5.6-.5.6-.6.5-.6.5-.7.4-.7.3-.8.3-.8.2-.8v-.8c.1,0,.1-.8.1-.8v-.8c0,0-.2-.8-.2-.8l-.2-.8-.3-.8ZM225.9,100.4l-.7.5-.6.6-.6.6-.5.7-.4.7-.4.8-.3.8-.2.8v.8c-.1,0-.2.9-.2.9v.9s.2.9.2.9l.2.8.3.8.4.8.4.8.5.7.6.7.6.6.7.5.7.5.8.4.8.3.8.2.8.2h.8c0,0,.8,0,.8,0h.8c0,0,.8-.3.8-.3l.8-.3.8-.3.7-.4h0l.7-.5.6-.6.6-.6.5-.7.4-.7.4-.8.3-.8.2-.8v-.8c.1,0,.1-.9.1-.9v-.9s-.2-.9-.2-.9l-.2-.8-.3-.8-.4-.8-.4-.8-.5-.7-.6-.7-.6-.6-.7-.5-.7-.5-.8-.4-.8-.3-.8-.2-.8-.2h-.8c0,0-.8,0-.8,0h-.8c0,0-.8.3-.8.3l-.8.3-.8.3-.7.4ZM141.2,139.3l-.6.5-.5.5-.5.6-.4.6-.4.7-.3.7-.2.7v.8c-.1,0-.2.8-.2.8v.8s0,.8,0,.8l.2.8.2.8.3.8.4.7.4.7.5.6.6.6.6.5.7.5.7.4.7.3.7.3.8.2h.8c0,.1.8.2.8.2h.8s.8-.1.8-.1l.7-.2.7-.3.7-.3.6-.4h0l.6-.5.5-.5.5-.6.4-.6.4-.7.3-.7.2-.8v-.8c.1,0,.2-.8.2-.8v-.8s0-.8,0-.8l-.2-.8-.2-.8-.3-.8-.4-.7-.4-.7-.5-.6-.6-.6-.6-.5-.7-.5-.7-.4-.7-.3-.7-.3-.8-.2h-.8c0-.1-.8-.2-.8-.2h-.8s-.8.1-.8.1l-.7.2-.7.3-.7.3-.6.4ZM170.3,158.1l-.4-.7-.5-.7-.5-.6-.6-.6-.6-.5-.7-.5-.7-.4-.8-.3-.8-.3-.8-.2h-.8c0-.1-.8-.1-.8-.1h-.8c0,0-.8.2-.8.2l-.8.2-.8.3-.7.4-.7.5-.6.5-.6.6-.5.6-.5.7-.4.7-.3.8-.3.8-.2.8v.8c-.1,0-.1.8-.1.8v.8c0,0,.2.8.2.8l.2.8.3.8.4.7.5.7.5.6.6.6.6.5.7.5.7.4.8.3.8.3.8.2h.8c0,.1.8.1.8.1h.8c0,0,.8-.2.8-.2l.8-.2.8-.3.7-.4.7-.5.6-.5.6-.6.5-.6.5-.7.4-.7.3-.8.3-.8.2-.8v-.8c.1,0,.1-.8.1-.8v-.8c0,0-.2-.8-.2-.8l-.2-.8-.3-.8ZM239.3,127.6l-.4-.7-.4-.7-.5-.6-.6-.6-.6-.5-.7-.5-.7-.4-.7-.3-.8-.2-.8-.2h-.8c0,0-.8-.1-.8-.1h-.8c0,0-.8.2-.8.2l-.8.2-.8.3-.7.4-.7.4-.6.5-.6.6-.5.6-.5.7-.4.7-.3.7-.2.8-.2.8v.8c0,0-.1.8-.1.8v.8c0,0,.2.8.2.8l.2.8.3.8.4.7.4.7.5.6.6.6.6.5.7.5.7.4.7.3.8.2.8.2h.8c0,0,.8.1.8.1h.8c0,0,.8-.2.8-.2l.8-.2.8-.3.7-.4.7-.4.6-.5.6-.6.5-.6.5-.7.4-.7.3-.7.2-.8.2-.8v-.8c0,0,.1-.8.1-.8v-.8c0,0-.2-.8-.2-.8l-.2-.8-.3-.8ZM188.9,173.5l-5.4-6.1-.4-.4-.5-.3-.5-.2h-.6c0-.1-.6-.2-.6-.2h-.6c0,0-.6.3-.6.3l-.5.3-.5.4-2.9,2.6-.6.6-.5.6-.5.6-.4.7-.4.7-.3.7-.2.7v.7c-.1,0-.2.8-.2.8v.7s.1.7.1.7l.2.7.2.7.3.7.4.6.5.6.5.5.5.5.6.4.6.4.6.3.7.2.7.2h.7c0,.1.8.2.8.2h.8s.8-.2.8-.2l.8-.2.7-.3.7-.3.7-.4.7-.4.6-.5,2.9-2.6.4-.3.3-.4.2-.4.2-.5v-.5c.1,0,.1-.5.1-.5v-.5c0,0-.2-.5-.2-.5l-.3-.6-.4-.5ZM227.2,145.3l-.7.3-.7.3-.7.4-.6.5-.6.5-.5.6-.4.7-.4.7-.3.8-.2.8-.2.8v.8c0,0-.1.9-.1.9v.9c0,0,.2.9.2.9l.2.8.3.8.3.8.4.8.5.7.5.7.6.6.6.5.7.5.7.4.7.3.8.2.8.2h.8c0,0,.8,0,.8,0h.8c0,0,.7-.3.7-.3h0l.7-.3.7-.3.7-.4.6-.5.6-.5.5-.6.4-.7.4-.7.3-.8.2-.8.2-.8v-.8c0,0,.1-.9.1-.9v-.9c0,0-.2-.9-.2-.9l-.2-.8-.3-.8-.3-.8-.4-.8-.5-.7-.5-.7-.6-.6-.6-.5-.7-.5-.7-.4-.7-.3-.8-.2-.8-.2h-.8c0,0-.8,0-.8,0h-.8c0,0-.7.3-.7.3ZM208.3,183.4l-.8-.6-.9-.6-1-.6-1-.5-1-.4-1.1-.4-1-.3-1.1-.3h-1c0-.1-.9-.2-.9-.2h-.9s-.9.1-.9.1l-.8.2-.7.3-.7.3-.6.4-.7.7-.7.8-.5.9-.4,1.1-.4,1.6-.2,1.6v1.6c0,0,.4,1.5.4,1.5l.3.7.3.7.4.7.4.6.5.6.5.5.6.5.6.4,1.4.8,1.4.5,1.4.2h1.3s1.1-.2,1.1-.2l1.1-.3,1-.5,1-.7,1-.8,1-1,1-1.2,1-1.3.5-.9.4-1,.2-1v-1s0-1,0-1l-.3-.9-.5-.8-.6-.6ZM220.6,169.3l-3.5,9.8-.2.7v.8s.2.8.2.8l.3.7.3.4.4.4.5.3.5.3,2,.7,1,.3,1,.3,1,.2h1c0,.1,1,.1,1,.1h1c0,0,1-.2,1-.2l.9-.2.9-.3.8-.4.7-.5.7-.5.6-.6.5-.6.4-.7.3-.7h0l.4-1.2h0l.2-.8v-.8c0,0,.1-.8.1-.8v-.8c0,0-.3-.8-.3-.8l-.3-.8-.4-.8-.5-.8-.6-.8-.7-.7-.7-.7-.8-.6-.8-.6-.9-.5-1-.5-1-.4-2-.7h0s-.7-.2-.7-.2h-.6s-.7,0-.7,0l-.6.2-.6.3-.5.5-.4.5-.3.6ZM218.5,189.5l-.8.2-.8.3-.7.4-.7.5-.6.5-.6.6-.5.7-.5.7-.4.8-.3.8-.2.8-.2.9v.9c0,0,0,.9,0,.9v.9c0,0,.2.9.2.9l.2.9.3.8.4.8.5.8.5.7.6.7.6.6.7.5.7.5.8.4.8.3.8.2h.8c0,.1.8.2.8.2h.8c0,0,.8-.2.8-.2h0l.8-.2.8-.3.7-.4.7-.5.6-.5.6-.6.5-.7.5-.7.4-.8.3-.8.2-.8.2-.9v-.9c0,0,0-.9,0-.9v-.9c0,0-.2-.9-.2-.9l-.2-.9-.3-.8-.4-.8-.5-.8-.5-.7-.6-.7-.6-.6-.7-.5-.7-.5-.8-.4-.8-.3-.8-.2h-.8c0-.1-.8-.2-.8-.2h-.8c0,0-.8.2-.8.2ZM229.9,214.5l-.2-.3-.3-.3-.3-.2-.4-.2h-.4c0,0-.4-.1-.4-.1h-.4c0,0-.4.2-.4.2h-.2c0,0-.3.3-.3.3l-.3.3-.2.3-.2.4v.4c0,0-.1.4-.1.4v.4c0,0,.2.4.2.4l8.4,18.2.2.3.3.3.3.2.4.2h.4c0,0,.4.1.4.1h.4c0,0,.4-.2.4-.2h.2c0,0,.3-.3.3-.3l.3-.3.2-.3.2-.4v-.4c0,0,.1-.4.1-.4v-.4c0,0-.2-.4-.2-.4l-8.4-18.2ZM255.1,273.9l1.4-.8,1.1-.9.5-.5.4-.5.6-1.1.4-1.1.2-1.2v-1.3s-.2-1.4-.2-1.4l-.4-1.5-.6-1.5-.8-1.7-1-1.7-1.2-1.8-1.4-1.9-1.6-2-1.8-2.1-1.9-2.1-2.1-2.2-5.2-5.1-.4-.4h-.2c0-.1-.3-.2-.3-.2h-.8c0,.1-.6.7-.6.7l-.2.3v.3c0,0,0,.5,0,.5l.6,7.3.4,3.1.4,2.8.5,2.6.5,2.5.6,2.3.6,2.1.7,1.9.8,1.6.8,1.5.9,1.2.9,1,1,.8,1,.6,1.1.4,1.2.2h.7s.7,0,.7,0l1.4-.3,1.5-.6Z" fill="#2a292a"/>
</svg>