<?xml version="1.0" encoding="UTF-8"?>
<svg id="Lager_1" xmlns="http://www.w3.org/2000/svg" version="1.1" viewBox="0 0 494 157">
  <!-- Generator: Adobe Illustrator 29.2.1, SVG Export Plug-In . SVG Version: 2.1.0 Build 116)  -->
  <path d="M91.1,117s0,11.1-11.1,11.1h-33.4s-11.1,0-11.1-11.1V42.7s0-11.1,11.1-11.1h33.4s11.1,0,11.1,11.1v74.3Z" fill="#e40230"/>
  <path d="M75.9,54.3c0,1.4,0,2.8.8,4.3h0c2.2,3.1,3.6,7.2,3.6,11.7,0,10.3-7.2,18.6-16,18.6s-.3,0-.4,0c0,0-2.6,0-3.9.1-1.3,0-3.3.7-3.3.7-2.2.8-3.7,2.5-3.7,4.4s2,3.9,5.4,3.9,3.6-.2,5.5-.5c2.3-.3,4.7-.6,7.3-.6,7.9,0,12.7,4.6,12.7,12.4s-6,14-17,14-17.6-5.1-17.6-10.2,2.8-5.5,6.1-6.6c-3.9-1.4-5.9-4.4-5.9-9s1.4-6.3,3-7.9c1.2-1,1.4-1.1,2.3-1.4.8-.3,2.9-.5,2.8-.5-1.1,0-.8,0-.2,0,0,0,.2,0,.2,0,.2,0,.5,0,.9,0-6.6-2.7-9.3-9.6-9.3-10.4s-.4-31.8-.4-33.9v-1q0-2.9-4.3-3h-2.7v-2.4h.5c4.8-.2,9.6-.2,14.4-.6h.5c0,0,0,23.1,0,23.1,1.8-4.5,4.7-6.6,9-6.6s4.6.7,6.5,2h0c0,0,1.4.6,1.5-.7,0-3.3,2.5-6.5,6-6.4,2.7.1,4.6,2.2,4.5,4.9,0,2-1.5,3.3-3.4,3.3-2.1,0-3.5-1.4-3.4-3.4,0-.4.1-.9.3-1.3-.9.2-2.2,1.1-2.3,2.9" fill="#fff"/>
  <path d="M67,120.9c8.1,0,12.9-3,12.9-8.1s-3.5-6.2-10.7-6.2-13.4,2.3-13.4,6.9,6.1,7.4,11.2,7.4" fill="#e40230"/>
  <path d="M64.9,55.2c-4.7,0-7.3,6.3-7.3,17.4s1.9,14.3,6.5,14.3,6.9-4.8,6.9-15.9-2-15.7-6.1-15.7" fill="#e40230"/>
  <path d="M132.2,60.8c-5.2,0-8.7,2.6-10.8,8.2v-29h-.7c-5.8.6-11.6,1-17.4,1.2h-.6v2.9h3.3q5.2.3,5.2,3.8v1.2c0,2.6,0,9-.3,18.4l-.8,38h2.9s3.5-7.2,3.9-8c2.8,5.2,7.1,7.9,12.9,7.9,10.6,0,19.3-10.4,19.3-23.1s-7.6-21.5-16.8-21.5M121.6,85.1c0-13.7,3.2-21.5,8.9-21.5s7.3,6.6,7.3,19.5-2.5,19.8-8.3,19.8-7.9-5.3-7.9-17.7" fill="#e40230"/>
  <path d="M193,84.8h-.6s-1.9,0-1.9,0v.7c.3,2.4.4,4.6.4,6.7,0,9.2-2.5,9.2-3.3,9.2-2.2,0-2.9-3-2.9-12.4s.2-10.8.4-14.3l.2-4.7c0-4.6-6.7-9.8-15.7-9.8s-14.8,6.5-14.8,12.5,2,6.1,5,6.1,5.4-2.6,5.4-5.5-1.6-4.3-4.4-4.5c1-3.8,3.8-5.8,8.4-5.8s6.4,2.3,6.4,9.6-.4,8.1-10.5,8.5c-7,.2-12.7,6.6-12.7,14.4s3.8,10.3,10.6,10.3,10-2.2,12.9-7c1.3,4.3,4.7,6.9,9.1,6.9s8.7-3.9,8.7-12.7-.1-3.7-.3-5.6l-.2-2.6ZM166.9,102.2c-3.2,0-4.7-2.9-4.7-8.9s3.5-9.2,6-9.6c0,0,.1,0,.1,0,2.6-.4,5-.8,6.9-2.4,0,2.2,0,8.1,0,8.1,0,8.9-4.2,12.9-8.2,12.9" fill="#e40230"/>
  <path d="M242.5,101.9c-5.8-.5-5.8-.6-5.8-2.6v-2.6c0,0,.8-24.7.8-24.7h0c0-4.7-4.8-11.3-13.5-11.3s-9.7,2.7-12.3,8.7c0-2.9-.3-8.6-.3-8.6h-.6c-5.6.5-11.2.7-16.6.9h-.8v2.8h1.7q6.2.5,6.2,3.6v7.1c0,17-.2,24.5-.4,25.4h0c-.2.8-1.1.9-4,1.3l-3.6.5v2.7l5.2-.2,6.8-.3c3.9,0,7.8,0,11.7.3h.7s0-2.8,0-2.8h-.6c-3-.4-4.8-.5-5.4-1-.5-.3-.5-.9-.5-2.6,0-23.1,1.4-34.1,9.8-34.1s6,4,6,15.1c0,16.3-.3,20.6-.5,21.3-.2.7-3.7,1-6.1,1.2h-.6v2.9l5.7-.2,5.5-.2,8.1.2,4.4.2v-2.8h-1.1Z" fill="#e40230"/>
  <path d="M290.1,102.2h-.3c-3.2,0-3.4-.6-4.7-3.7l-.3-.7s-8.8-20.3-10.1-23.3c.4-.5,2.7-3.1,2.7-3.1,3.9-4.5,7.2-7.3,12.2-7.3h.9v-2.6h-.6c-5.7.2-9.8.3-12.1.3h-9.6c0,0,0,.6,0,.6v1.9h.6c6,.1,7.2,1.3,7.2,3.2s-1.7,3.8-4.3,6.5c0,0-7.4,7.6-10.2,10.4,0-2.9-.6-44.5-.6-44.5h-.7c-5.5.6-11.3.9-17.5,1h-.6s1,2.9,1,2.9l3.5.2c4.9.2,5,.2,5,3v1.4l-.3,47.9s0,2.2,0,2.2v.3c0,2.6,0,2.8-3.7,3.2l-2.1.3v.6s0,2.2,0,2.2l2.4-.2,7.6-.2,7.9.2,4.5.2v-2.9l-2.3-.2q-4.2-.4-4.2-2.8v-1.2s0-2.1,0-2.1v-7.9c.3-.3,4.8-4.6,5.8-5.6.7,1.5,7.4,17.3,7.4,17.3.1.3.2.8.2,1.2,0,.9-.4,1.1-3.4,1.2h-2.6v3h7.5c0-.1,2.9-.2,2.9-.2,3.3,0,7.1.2,11.1.3h1.9c0,0,0-2.7,0-2.7h-.6c0,0-1.6-.2-1.6-.2Z" fill="#e40230"/>
  <path d="M317.6,95.6c-2.9,0-5.6.3-8.3.6-2.3.3-4.4.5-6.3.5-3.9,0-6.2-1.6-6.2-4.2s1.8-4.1,4.6-4.8c1.9.8,5.8,2.1,10.8,2.1,10,0,16.9-5.7,16.9-14s-2.5-9.6-7.2-12.8c-.7-1.7-1.1-3.2-1.1-4.7s1-3,2-3.3c-.1.4-.2.9-.2,1.4,0,2.2,1.5,3.7,3.8,3.7s3.6-1.5,3.6-3.7-2.2-5.1-5.2-5.1-6.5,3.1-6.5,7.5.2,2.1.5,3.1c-2.1-.7-4.3-1.2-6.7-1.2-10.2,0-18.2,6.9-18.2,15.7s1.7,7.2,4.6,9.4c-3.9,2.4-5.8,5.9-5.8,10.4s2.3,8.1,6.7,9.6c-3.8,1.1-7,3-7,7s6.9,10.9,20.1,10.9,19.5-5.3,19.5-15-5.5-13.2-14.5-13.2M315.1,105.9c8.3,0,12.3,2.2,12.3,6.6s-5.5,8.7-14.8,8.7-12.8-1.4-12.8-7.9,5.1-7.4,15.3-7.4M304.6,75.6c0-7.8,2.6-12.3,7.3-12.3s7,6.7,7,12.3-2.3,11.6-7,11.6-7.3-4.1-7.3-11.6" fill="#e40230"/>
  <path d="M357.5,102c-1.8-.2-5-.7-5.5-1.2-.4-.6-.4-4.8-.4-10.6s.2-13.6.7-28.6v-.7s-.7,0-.7,0c-5.8.6-11.6.9-17.4,1.1h-.6v2.8h3q4.9.3,4.9,3.4v8.5c0,0-.2,5.1-.2,5.1,0,12-.6,18.4-.7,19h0c-.2.7-3,1-6.6,1.2h-.6v2.8h3.6c3.7-.3,7-.4,9.5-.4l7,.2,4.4.2v-2.7h-.6Z" fill="#e40230"/>
  <path d="M387,60.8c-4.8,0-7.9,3.7-10.1,11.9,0-4,0-12,0-12h-.7c-5.5.5-11.1.7-16.5.9h-.6v2.8h1.7q6.2.5,6.2,3.6v7.1c0,15.2-.3,23.7-.5,25.3-.1.7-1.2.8-3.9,1.1l-2.6.5v2.7h.7c4.6-.2,7.5-.2,10.4-.2s7.4.2,14.3.5h.6s0-2.8,0-2.8l-3-.3q-5.8-.5-5.8-3.5c0-24.3,3-35.2,9.8-35.2s.3,0,.3,0c-.1.1-.4.3-.7.5-1.1.7-2.9,1.9-2.9,5.2s2.1,5.4,4.8,5.4,5.5-2.6,5.5-6.5-2.7-7-6.9-7" fill="#e40230"/>
  <path d="M415.3,60.4c-11.8,0-20.7,10.1-20.7,23.4s8.4,22.4,20,22.4,20.2-10,20.2-22.4-8.3-23.4-19.4-23.4M423.5,84.2c0,12.3-3.3,19.3-9,19.3s-8.7-10.5-8.7-19.4c0-14,3-21.1,8.9-21.1s8.8,7.5,8.8,21.2" fill="#e40230"/>
  <path d="M465.7,80.9v-.6h-2.4v.7c.2,4.3.3,7.9.3,10.8,0,7.8-1.8,11.1-5.9,11.1s-5.1-2.4-5.1-9.4v-28h12.6v-3.8h-12.6v-19.5h-2.4v.6c-1.3,13.7-5.7,19.3-16.2,20.6h-.6v2.6h9.2c0,1.3-.8,31.2-.8,31.2h0c0,4.4,5.1,8.9,12.8,8.9s11.4-4.1,11.4-14.2-.1-7.5-.4-11" fill="#e40230"/>
  <path d="M346.4,40c3.4,0,6.5,2.7,6.5,6.6s-2.9,6.4-6.6,6.4-6.4-3-6.4-6.5,2.9-6.5,6.5-6.5" fill="#e40230"/>
</svg>