<?xml version="1.0" encoding="UTF-8"?>
<svg id="Layer_1" xmlns="http://www.w3.org/2000/svg" version="1.1" viewBox="0 0 400 300">
  <!-- Generator: Adobe Illustrator 29.2.1, SVG Export Plug-In . SVG Version: 2.1.0 Build 116)  -->
  <path d="M235.8,252.2c0-.3.4,4.6,1.4,14.5.4,4.4.1,10.8-1,19.2,0,.4-.3.7-.6.9-.5.3-1,.4-1.6.4-.7,0-1.2-.6-1.2-1.4,0,0,0-.2,0-.2,2.1-9.8,2.3-19.5.7-29.2,0-.1-.2-.2-.3-.2h0c-.1,0-.2.1-.2.3.3,11.7-1.1,23.4-4.4,35.1-.1.5-.7.8-1.2.7,0,0-.1,0-.2,0h0c-.6-.4-1-1.1-.8-1.8,2.4-10.1,3.6-20.2,3.7-30.5,0,0,0-.2-.2-.2,0,0-.2,0-.2.2-1.2,8.6-3.1,17.2-5.6,25.5-.2.8-1,1.3-1.8,1.1h-.1c-.7-.2-1.1-.8-1-1.5,0,0,0-.1,0-.2,3.3-10,5-20.2,5.2-30.7,0,0,0,0,0,0,0,0,0,0,0,0-.3,1.3-1.2,5.6-2.7,12.8-1,4.9-2.9,10.7-5.7,17.5-.3.8-1.3,1.3-2.1,1.1h-.1c-.7-.2-1.1-.9-.9-1.6,0,0,0-.2,0-.2,2.2-4.7,3.4-7.4,3.7-8.4,2.6-8.9,4.8-18.8,6.5-29.9,0-.6.1-1.3,0-1.9-.2-1.4-.6-2.4.2-3.4.6-.7.6-1.3,0-2-1.4-1.5-1.6-3.8-.5-5.4.5-.7.5-1.4,0-2-3.6-4.8-3.4-9,.7-12.4.3-.2.3-.7,0-1,0,0,0,0-.1-.1-1.2-.9-2-1.8-2.3-2.6-.1-.3-.2-.7-.1-1,.7-5.5,2.3-15.3.7-20.9-.1-.5-.9-2.2-2.2-5.1-1.8-3.8-2.2-7.5-.6-11.4.3-.6,0-1.4-.5-1.8-3.8-2.7-5.2-6.2-4.3-10.5,0-.3-.1-.6-.4-.7,0,0-.2,0-.3,0-7.1,1.7-11.7-1.3-13.7-8.9,0-.2-.2-.3-.4-.2,0,0-.2,0-.2.1-4.4,7.3-14.8,5.9-18.1-1.6-.6-1.3-.9-2-.9-2.1,0-.2-.3-.2-.5-.1,0,0,0,0-.1.1-1.9,3-4.5,4.6-7.9,4.8-5.9.3-9.8-2.5-11.6-8.6,0-.3-.4-.4-.7-.4-.1,0-.2,0-.3.2-6.6,8-18.3,4.2-18.8-6.2,0-.2-.2-.4-.4-.4,0,0-.2,0-.3.1-8.2,8.1-20.7,2.5-18.5-9.1,0-.3-.1-.5-.4-.6-.1,0-.3,0-.4,0-5.8,4.4-14.6,2.8-17-4.4-3.3-9.9,7.7-17.7,15.9-12.2,3.7,2.5,5.1,6.3,4.2,11.5,0,.2.1.4.3.4.1,0,.2,0,.3,0,7.6-6.4,17.5-.9,17.7,8.4,0,.1.1.3.3.2,0,0,.1,0,.2,0,5.9-7.1,17-4.9,18.7,4.5,0,.3.3.4.6.4.1,0,.2,0,.3-.2,6.1-7.8,16.5-5.1,19.1,4.1,0,.1.1.2.2.1,0,0,0,0,.1,0,5-8.7,17.1-6,19.3,3.6,0,.3.4.5.7.4.1,0,.2,0,.3-.2,3.7-4.1,7.7-5.3,12-3.7,4.6,1.7,7.6,6.5,6.7,11.4,0,.4.2.7.5.8,0,0,.1,0,.2,0l4.5-.3c.2,0,.4-.2.4-.4,0,0,0-.1,0-.2-3-4.4-2.4-10.1,1.2-13.9,3.7-3.7,8.4-4,14.2-.6.1,0,.2,0,.3,0,0,0,0-.1,0-.2-3.9-11,6.8-19.8,16.7-13,.2.1.4,0,.5,0,0,0,0-.2,0-.3-2.4-9.4,5.2-17.1,14.5-12.9.2,0,.4,0,.4-.2,0,0,0-.2,0-.3-5.4-8.4.8-18,10.7-16.5.2,0,.4,0,.4-.3,0,0,0-.2,0-.3-1.7-2-3.1-3.6-3.4-6.1-.7-6.3,2-10.3,8.1-11.8.2,0,.4-.3.3-.6,0,0,0-.1-.1-.2-.9-.9-2.9-1.9-3.9-3.4-3.6-5.5-2.9-10.5,2-15,.1-.1.1-.3,0-.5,0,0-.1,0-.2-.1-7.2-1.2-10.4-5.5-9.5-12.9,0-.8.7-1.8.9-2.6,0-.3,0-.5-.3-.6,0,0-.2,0-.2,0-8.6,1.7-13.3-1.9-14.1-10.9,0-.2-.1-.3-.3-.3,0,0-.1,0-.2,0-1,1.2-2.3,2.2-3.7,2.8-6.5,2.9-12.7-.6-14.7-7.3,0-.3-.4-.4-.6-.3-.1,0-.2.1-.3.2-5.1,8.1-15.2,6.7-19-2-.1-.3-.4-.4-.6-.3,0,0-.2.1-.2.2-4.8,7.9-14.3,7.8-19-.3-.1-.2-.4-.3-.6-.2,0,0-.1,0-.2.2-2,3.2-3.8,5-5.4,5.6-5.9,2.1-10.6.4-14.2-5,0-.1-.3-.2-.4,0,0,0-.1,0-.1.2-3.4,9.6-14.1,10.5-19.7,2.1-.1-.2-.3-.2-.5,0,0,0-.1.1-.2.2-2.3,9.7-12.6,11.5-18.9,4-.2-.2-.4-.2-.6,0,0,0-.2.2-.2.3-.5,8.6-10.4,12.6-16.7,7.2-.8-.7-1.6-1.5-2.5-2.5-.2-.2-.5-.2-.7,0,0,0-.1.2-.1.3-.3,3-1.5,5.3-3.6,7-4.3,3.3-8.9,3.2-13.7-.4-.1,0-.3,0-.3,0,0,0,0,.1,0,.2.7,2.9.7,5.3.2,7.2-1.8,5.9-8,8.2-13.7,6.3-.1,0-.3,0-.4.2,0,.1,0,.2,0,.3,3.4,3,5.4,6.1,4.5,10.7-.7,4-3.2,6.8-7.3,8.5-.2,0-.3.3-.2.6,0,.1.2.2.3.2,9.7,2.3,11.6,13.2,4,19.3-.1,0-.1.3,0,.4,0,0,.2.1.3.1,9.3-1.6,17.1,6,12.6,15.1-4.9,9.9-21.3,5.6-19.8-6.1.3-2.8,1.7-5.3,4-7.5.1-.1.1-.4,0-.5,0,0-.1,0-.2-.1-.5,0-1,0-1.5,0-12.5,1.7-16.3-16.7-3.6-20.5.2,0,.2-.2.2-.4,0,0-.1-.2-.2-.2-14.5-3.7-10.8-23.2,4-20.8.2,0,.4-.1.5-.3,0-.1,0-.2,0-.3-.1-.2-.7-.9-1.6-2.2-3.3-4.4-2.6-10.6,1.6-14.1,3.7-3.1,8.1-3.2,13.4-.3.2.1.4,0,.5-.1,0,0,0-.2,0-.2-.9-5.6.6-9.6,4.6-12,5-3,10.7-1.6,14.2,3.2.2.2.5.3.7.1.1,0,.2-.2.2-.3,1.8-9.8,13-12.9,19.2-4.5.1.2.3.2.5,0,0,0,.1-.2.1-.3,1.2-11.1,13.7-13.4,19.7-4.4.1.2.4.3.7.1.1,0,.2-.2.2-.3,2.5-10.3,14.5-11.7,19.7-2.6.1.2.4.3.6.2.1,0,.2-.2.2-.3,2.8-9.8,15.1-10.2,19.7-1.5.1.3.5.3.7.2,0,0,.2-.1.2-.2,4.8-9,15.9-8.9,19.9.8,0,.2.3.3.6.2,0,0,.2-.1.2-.2,5.3-9.1,16.8-7.6,20,2.4,0,.2.3.3.4.2,0,0,.1,0,.2-.1,3.5-5,8-6.4,13.3-4.2,4.3,1.8,6.6,5.8,6.2,10.5,0,.1,0,.3.2.3,0,0,.2,0,.2,0,9-9.3,21.7-1.1,17.9,11.1,0,.3,0,.7.4.8.1,0,.2,0,.3,0,11.6-2.7,18.5,10.1,9.9,18.4-.2.2-.2.4,0,.6,0,0,.1,0,.2.1,3.6,1,6.2,2.8,7.6,5.2,3.8,6.4.5,14.2-6.8,16.1-.2,0-.3.2-.2.4,0,0,0,.2.1.2,10.7,6.2,5.4,20.8-6.6,20-.2,0-.4.1-.4.3,0,.1,0,.2.1.3,8.9,8.4-.7,20.8-11.6,16.8-.2,0-.4,0-.5.2,0,0,0,.2,0,.3,6,11.1-5.1,21.1-15.7,13.9-.2-.1-.4,0-.6.1,0,0,0,.2,0,.3,1.8,6.3-.4,11.8-6.6,13.9-3.8,1.3-7.3.5-10.6-2.4-.1,0-.3,0-.3,0,0,0,0,.1,0,.2.1.3.4.9.8,1.6,2,3.5.8,8.6-2.4,11.6-2.7,2.6-5.9,3.4-9.6,2.4-.2,0-.4,0-.5.3,0,.1,0,.2,0,.3,4,5.4,3.6,10.4-1.2,15.1-.3.3-.3.7-.1,1.1,3.4,5.4,1.2,9.6,0,15.3-.2,1-.2,2.1,0,3.1,1.1,7.1,1.9,12.7,2.5,16.7.5,3.6-.4,5.8-2.7,6.7-.3.1-.5.5-.4.8,0,0,0,.1.1.2,0,0,.3.2.7.3.4,0,.6.2.7.2,3.9,3.9,4.1,7.8.7,11.7-.3.3-.3.8,0,1.2,1.5,2.2,1.7,4.3.6,6.3-.2.4-.3.9-.1,1.3.4,1.3.7,3.1,1.2,4.4,6.1,13.7,8,27.9,5.6,42.5-.1.6-.7,1.1-1.3,1h-.3c-.6,0-1-.5-.9-1.1,0,0,0,0,0,0,.4-3.3.6-5.8.7-7.6.5-8.8-.7-17.5-3.5-26ZM224.7,19.8c0-4.1-3.3-7.4-7.4-7.4h0c-4.1,0-7.4,3.3-7.4,7.4h0c0,4.1,3.3,7.4,7.4,7.4h0c4.1,0,7.4-3.3,7.4-7.4h0ZM204.3,20.1c0-4.1-3.4-7.5-7.5-7.5s-7.5,3.4-7.5,7.5,3.4,7.5,7.5,7.5,7.5-3.4,7.5-7.5ZM245.1,21.1c0-4.1-3.4-7.5-7.5-7.5s-7.5,3.4-7.5,7.5,3.4,7.5,7.5,7.5,7.5-3.4,7.5-7.5ZM184,22c0-4.2-3.4-7.5-7.5-7.5s-7.5,3.4-7.5,7.5h0c0,4.2,3.4,7.5,7.5,7.5h0c4.2,0,7.5-3.4,7.5-7.5h0ZM265.2,24.5c0-4.1-3.4-7.5-7.5-7.5s-7.5,3.4-7.5,7.5,3.4,7.5,7.5,7.5,7.5-3.4,7.5-7.5ZM163.8,25.2c0-4.2-3.4-7.5-7.5-7.5s-7.5,3.4-7.5,7.5c0,4.2,3.4,7.5,7.5,7.5h0c4.2,0,7.5-3.4,7.5-7.5h0ZM143.9,30.5c0-4.1-3.3-7.4-7.4-7.4s-7.4,3.3-7.4,7.4c0,4.1,3.3,7.4,7.4,7.4h0c4.1,0,7.4-3.3,7.4-7.4h0ZM284.5,32.2c0-4.1-3.4-7.5-7.5-7.5h0c-4.1,0-7.5,3.4-7.5,7.5h0c0,4.1,3.4,7.5,7.5,7.5s7.5-3.4,7.5-7.5h0ZM123.7,35.2c0-4.1-3.3-7.4-7.4-7.4h0c-4.1,0-7.4,3.3-7.4,7.4h0c0,4.1,3.3,7.4,7.4,7.4s7.4-3.3,7.4-7.4ZM106.5,47c0-4.1-3.3-7.5-7.5-7.5s-7.5,3.3-7.5,7.5,3.3,7.5,7.5,7.5,7.5-3.3,7.5-7.5ZM298,47.6c0-4.2-3.4-7.6-7.6-7.6s-7.6,3.4-7.6,7.6h0c0,4.2,3.4,7.6,7.6,7.6h0c4.2,0,7.6-3.4,7.6-7.6ZM91.9,59.2c-3.8-1.4-8.1.7-9.5,4.6-1.4,3.9.5,8.2,4.3,9.6s8.1-.7,9.5-4.6c1.4-3.9-.5-8.2-4.3-9.6ZM303.7,67.5c0-4.2-3.4-7.6-7.6-7.6s-7.6,3.4-7.6,7.6h0c0,4.2,3.4,7.6,7.6,7.6h0c4.2,0,7.6-3.4,7.6-7.6ZM97.9,87.5c0-4.1-3.4-7.5-7.5-7.5s-7.5,3.4-7.5,7.5h0c0,4.1,3.4,7.5,7.5,7.5h0c4.1,0,7.5-3.4,7.5-7.5ZM301,87.9c0-4.1-3.3-7.5-7.5-7.5s-7.5,3.3-7.5,7.5h0c0,4.1,3.3,7.5,7.5,7.5h0c4.1,0,7.5-3.3,7.5-7.5ZM291.7,106.5c0-4.1-3.4-7.5-7.5-7.5h0c-4.1,0-7.5,3.4-7.5,7.5h0c0,4.1,3.4,7.5,7.5,7.5h0c4.1,0,7.5-3.4,7.5-7.5h0ZM92.1,106.4c-.3,4.1,2.8,7.7,7,8,4.2.3,7.8-2.7,8.1-6.8.3-4.1-2.8-7.7-7-8-4.2-.3-7.8,2.7-8.1,6.8ZM122.6,122.4c0-4.1-3.3-7.4-7.4-7.4s-7.4,3.3-7.4,7.4,3.3,7.4,7.4,7.4,7.4-3.3,7.4-7.4ZM277.9,122.6c0-4.1-3.3-7.4-7.4-7.4s-7.4,3.3-7.4,7.4h0c0,4.1,3.3,7.4,7.4,7.4h0c4.1,0,7.4-3.3,7.4-7.4ZM133.4,125.9c-4.1-.2-7.5,3-7.7,7.2-.2,4.1,3,7.7,7,7.8,4.1.2,7.5-3,7.7-7.2.2-4.1-3-7.7-7-7.8ZM260.5,134.8c0-4.1-3.4-7.5-7.5-7.5h0c-4.1,0-7.5,3.4-7.5,7.5h0c0,4.1,3.4,7.5,7.5,7.5h0c4.1,0,7.5-3.4,7.5-7.5ZM160,140.4c0-4.1-3.4-7.5-7.5-7.5s-7.5,3.4-7.5,7.5h0c0,4.1,3.4,7.5,7.5,7.5h0c4.1,0,7.5-3.4,7.5-7.5ZM179.9,144.8c0-4.1-3.4-7.5-7.5-7.5s-7.5,3.4-7.5,7.5h0c0,4.1,3.4,7.5,7.5,7.5h0c4.1,0,7.5-3.4,7.5-7.5ZM243.9,148.1c0-4.2-3.4-7.6-7.6-7.6s-7.6,3.4-7.6,7.6h0c0,4.2,3.4,7.6,7.6,7.6h0c4.2,0,7.6-3.4,7.6-7.6ZM192,140.7c-4.1.2-7.3,3.7-7.1,7.9.2,4.2,3.6,7.5,7.7,7.3h0c4.1-.2,7.3-3.7,7.1-7.9-.2-4.2-3.6-7.5-7.7-7.3h0ZM219.5,153.1c0-4.1-3.4-7.5-7.5-7.5s-7.5,3.4-7.5,7.5c0,4.1,3.4,7.5,7.5,7.5h0c4.1,0,7.5-3.4,7.5-7.5h0ZM233.3,165.7c0-4.1-3.3-7.5-7.5-7.5s-7.5,3.3-7.5,7.5,3.3,7.5,7.5,7.5,7.5-3.3,7.5-7.5h0ZM228,214.8c2.1,0,3.9-1.4,4-3.2,0-.1,0-.3,0-.4-.4-4.6-1.2-9.7-2.4-15.3-.6-2.8-.2-6.2,1-10.3,1-3.1,1.2-5.6-.3-8.6-.3-.7-1.1-1.1-1.8-1l-4.4.6c-.4,0-.8.4-.9.8-1.9,5.9,1.4,10.2,2.8,14.4.8,2.6,1,6.5.4,11.7-.5,5.2-.9,8-1,8.6,0,.4,0,.8.3,1.2,1,1.1,1.7,1.6,2.2,1.6ZM233.6,224.6c0-2.5-2-4.4-4.4-4.4s-4.4,2-4.4,4.4h0c0,2.5,2,4.4,4.4,4.4h0c2.5,0,4.4-2,4.4-4.4ZM232.3,234.6c0-1.3-1.4-2.3-2.9-2.2-1.5.1-2.6,1.3-2.6,2.6h0c0,1.3,1.4,2.3,2.9,2.2,1.5-.1,2.6-1.3,2.6-2.6h0ZM231.7,240.3c-.2-.5-1-.7-1.9-.4h0c-.9.3-1.5.9-1.4,1.4h0c.2.5,1,.7,1.9.4h0c.9-.3,1.5-.9,1.4-1.4t0,0Z" fill="#010202"/>
</svg>