<?xml version="1.0" encoding="UTF-8"?>
<svg id="Layer_1" xmlns="http://www.w3.org/2000/svg" version="1.1" viewBox="0 0 191.1 300">
  <!-- Generator: Adobe Illustrator 29.2.1, SVG Export Plug-In . SVG Version: 2.1.0 Build 116)  -->
  <path d="M114.3,292.1c-4.5-7.6-2.8-16.3-8.1-24.6-1.3,7.5-.1,13.6.7,19.6.5,4.1,0,7.6-6.1,7.3-4-7.9-.9-17.2-5.1-26.4-2.3,5.6-1.3,10.4-1.9,14.9-.6,4.4,1,10-6.2,12-5-9.8.5-19.4,0-29.2-4.4,5-4.2,5.1-6.3,13.3-1.2,4.7.6,11-6,13.3-5.3-3-3.5-7.6-2.8-11.3,1.2-6.7,2.9-13.3,5-19.8,3.4-10.2,9.1-19.8,5.9-31.4-.7-2.5,1.3-5.7,2.2-9.4-3-5.3-7.2-10.9-5.1-18.6-8.8-3-17.3-6-18-16.8-14.1-.4-22.5-6.3-22.9-21-6.1-1.2-11.9-2.5-15.4-8.3-3.3-5.4-1.9-11-1.7-16.4-13.4-11.5-14.4-15.5-7.6-30.5-3.7-4.2-8.3-8.5-8.1-15.1.2-6.6,4-11.2,9.1-15.5-2.2-6-4.4-12-1.4-18.4,2.8-6,8-8.8,13.6-10.6,2.3-18.3,5.1-21.3,22.6-23.1,3.2-4.8,4.5-11.8,11.4-14.1,6.1-2,11.9-.4,17.3,1.7,15.3-11.5,19.8-11.5,32,0,5.7-2,11.9-3.8,18.2-1.6,6.3,2.2,9.1,7.6,10.9,13.4,19.8,3.6,21.1,5,22.9,23.1,16,7.4,18.2,12.2,13.2,29.1,11.5,13.2,11.6,18.2.4,31.7,3,4.9,5.2,10.2,3.9,16.6-1.4,6.7-7,9.5-11.4,12.9.2,18.9-1.4,21.4-16.6,25.6-1.1,5.4-1.1,11.7-6.1,16-4.7,4-10.5,3.8-16.2,4.6-3,2.9-2.9,7.5-6.1,10.5-3.2,3-7.6,3.2-11.3,5.8-.6,3.4-.9,7.3-2.1,10.7-1.1,3.1-3.4,5.9-5.2,9,3.9,6.6,3.5,13.6,1,20.4,5.7,14,10.7,27.9,13,42.5.6,3.9,1.2,7.8-5.4,7.8ZM62.8,43.3c-3,9.2-8.6,15.3-18.4,17.3,3.5,9.9-1.9,16.4-7.7,22.6,4.8,8.6,2.3,16.3-2.9,24.1,9.4,5.5,8.9,14.3,8.1,23.2,10,3.5,13.3,11,13.2,20.8,10.9.6,15.3,7.9,18.5,17.1,10-2.2,16.2,4.1,22.6,10.8,5.4-9.3,13.7-11.3,22.8-11.7,2.1-10,8.3-15.3,18.1-16.7-.9-10.6,5.2-16.5,13.1-21.1-3.1-9.5.1-16.7,7.3-23-6.4-8-4.6-16.5-1.8-25.4-10-4.1-8.8-13.2-9.3-21.5-10.1-1-14-8.3-16.9-15.5-4.6-.7-8.4-1-12-1.8-4.3-.9-5.9-5.7-10.1-7.9-7.6,6.2-16,4-24.3.8-5.2,6.9-11.7,10.1-20.2,8.1ZM155.7,42.8c-.3-4.3-4.9-8.7-9-8.5-4.3.2-8.5,4.7-8.3,9.1.2,4.5,4.5,8.5,9,8.4,4.6-.1,8.6-4.5,8.3-8.9ZM162.4,147.6c.2-4.4-4-8.9-8.4-9-4.3-.1-8.7,4.2-8.8,8.6-.1,4.5,4,8.9,8.4,9,4.3,0,8.7-4.2,8.8-8.6ZM165.1,113.6c-4.6.2-8.6,4.5-8.3,9,.3,4.2,4,8,8,8.1,4.5.1,9.1-4.1,9-8.4,0-4.3-4.6-8.9-8.7-8.7ZM64.9,168.2c-.2-4.5-4.2-8.2-8.9-8.2-4.9,0-8.6,3.7-8.4,8.4.2,4.5,4.4,8.5,8.8,8.4,4.6-.1,8.7-4.3,8.5-8.6ZM121.5,184.5c.3-4.1-3.2-7.9-7.6-8.1-4.7-.3-9,3.2-9.5,7.7-.5,4.6,3.4,8.8,8.1,8.8,4.4,0,8.7-4,9-8.4ZM132.3,27.4c0-4.5-4.2-8.8-8.7-8.7-4.1,0-8.7,4.9-8.5,9.1.2,3.7,4.4,7.7,8.4,8,4.7.3,8.8-3.6,8.9-8.3ZM35,122.1c0-4.3-4.4-8.5-8.8-8.4-4.6,0-8.3,4.2-7.9,8.9.3,4.3,4.9,8.3,9.2,8,3.6-.2,7.5-4.6,7.5-8.5ZM68.9,19c-4.4-.2-8.7,3.7-9,8.3-.3,4.5,3.7,8.6,8.4,8.7,4.3,0,7.9-3.3,8.3-7.5.3-4.6-3.4-9.2-7.7-9.4ZM37.6,66.3c0-4.6-4.1-8.5-8.8-8.1-4.6.4-7.6,2.9-8,7.7-.3,4.6,3.7,8.7,8.2,8.8,4.5.1,8.6-3.9,8.6-8.5ZM104.7,21.5c-.3-4.1-5.3-8.2-9.4-7.9-4.4.4-8.3,5-7.9,9.3.4,4.1,4.2,7.1,8.7,6.9,4.9-.2,8.9-4,8.6-8.4ZM135.7,176.8c4.3-.2,8.6-4.8,8.4-9-.2-4-4.1-7.4-8.5-7.3-4.8,0-8.5,4.1-8.2,8.8.3,4.2,4.1,7.7,8.3,7.6ZM87.8,185.5c.3-4.6-3.4-8.5-8.2-8.8-4.6-.3-8,2.5-8.5,6.9-.5,4.9,2.6,8.9,7.4,9.4,4.8.5,9-2.9,9.2-7.5ZM31.1,95.1c.6-4.8-2.7-9.1-7.4-9.4-4.2-.3-8.2,2.8-8.8,7-.7,4.4,3,9,7.6,9.4,4.2.4,8-2.7,8.6-7.1ZM45.1,34.1c-4.4.2-8.3,4.7-8,9.2.3,4.7,4.3,8,9.3,7.7,4.5-.3,7.5-3.7,7.3-8.3-.1-4.7-4.3-8.8-8.6-8.6ZM46.6,147.1c-.1-4.1-3.9-7.7-8-7.8-4.8,0-8.4,3.8-8.2,8.6.2,4.3,3.7,7.9,7.7,7.9,4.3,0,8.5-4.4,8.4-8.7ZM162.5,58.1c-4.3,0-8.2,3.5-8.4,7.4-.2,4.6,4.9,9.9,9.2,9.2,4.6-.7,7.2-3.9,7.8-8.3.6-4.2-4.1-8.4-8.6-8.3ZM176.7,93.8c-.3-4.9-4.3-8.5-8.9-7.9-4,.4-7.5,4.6-7.3,8.5.3,4.6,4.7,8.4,9.1,7.9,4.4-.5,7.3-4,7.1-8.5ZM104,205.4c-.3-4.3-4-7.3-8.6-6.9-4.5.4-8,4-7.7,8.1.2,4.7,4.5,8.1,9.4,7.5,4.2-.5,7.3-4.3,7-8.7ZM96.3,224c-6.5,5.5-6.6,6.7-1.1,13.5,7.8-4.7,7.8-5.7,1.1-13.5Z"/>
</svg>