<?xml version="1.0" encoding="UTF-8"?>
<svg id="Layer_1" xmlns="http://www.w3.org/2000/svg" version="1.1" viewBox="0 0 573.3 597.1">
  <!-- Generator: Adobe Illustrator 29.2.1, SVG Export Plug-In . SVG Version: 2.1.0 Build 116)  -->
  <defs>
    <style>
      .st0 {
        fill: #24645d;
      }

      .st1 {
        fill: #fff;
      }

      .st2 {
        fill: none;
      }
    </style>
  </defs>
  <g id="Layer_2">
    <g id="Orginal">
      <path class="st1" d="M548.3,146.7v291.6c0,60.7-48,110.2-108.7,110.9h-.7v-158.2h-12v-56.2h-4.5c-.7-3-3-5.2-5.2-6,16.5-42.7,3-90.7-33-118.4,0,0-66.7-63-90-63s-90,63-90,63c-36.7,27-51,75.7-34.5,118.4-2.2.7-4.5,3-5.2,6h-4.5v56.2h-12v158.2h0c-60.7,1.5-110.9-46.5-112.4-107.2V146.7c0-60.7,49.5-109.4,109.4-109.4h293.1c60,0,109.4,49.5,109.4,109.4h.7Z"/>
      <rect class="st0" x="189.1" y="549.4" width="4.8" height="4.8"/>
      <line class="st2" x1="174.6" y1="554.3" x2="174.5" y2="553.9"/>
      <rect class="st0" x="189.1" y="549.4" width="4.8" height="4.8"/>
      <line class="st2" x1="174.6" y1="554.3" x2="174.5" y2="553.9"/>
    </g>
  </g>
</svg>