<?xml version="1.0" encoding="UTF-8"?>
<svg id="Layer_1" xmlns="http://www.w3.org/2000/svg" version="1.1" xmlns:xlink="http://www.w3.org/1999/xlink" viewBox="0 0 573.3 597.1">
  <!-- Generator: Adobe Illustrator 29.2.1, SVG Export Plug-In . SVG Version: 2.1.0 Build 116)  -->
  <defs>
    <style>
      .st0 {
        fill: #24645d;
      }
    </style>
  </defs>
  <g id="Layer_2">
    <g id="Orginal">
      <path class="st0" d="M529.8,159.4v277.3c.6,57.5-45.6,104.5-103.1,105.1h-.9v-150.4h-11.2v-53.5h-4.4c-.8-2.6-2.6-4.7-4.8-5.9,15.7-40.3,3-86-31.2-112.4,0,0-63.3-59.8-85.1-59.8s-85.6,59.8-85.6,59.8c-34.8,25.9-48.3,71.8-33,112.4-2.4,1.1-4.2,3.2-4.8,5.9h-3.9v53.5h-11.7v150.4h0c-57.5,1.4-105.2-44.2-106.5-101.6V159.4c0-57.5,46.6-104.2,104.2-104.2h278.3c57.1,0,103.7,46.6,103.7,104.2Z"/>
    </g>
  </g>
</svg>