<?xml version="1.0" encoding="UTF-8"?>
<svg id="Layer_1" xmlns="http://www.w3.org/2000/svg" version="1.1" viewBox="0 0 400 300">
  <!-- Generator: Adobe Illustrator 29.2.1, SVG Export Plug-In . SVG Version: 2.1.0 Build 116)  -->
  <path d="M198.3,292.8h.6c0,0,.1,0,.1,0l35-8.8,35.2-9,35.4-9.1,35.6-9.3.5-.2.4-.4.2-.5v-.5c0,0,0-205.2,0-205.2v-.8c-.1,0-.5-.7-.5-.7l-.6-.5-.7-.3-32.1-9.1-34-9.7-35.9-10.3-37.8-11h-3.2l-37.8,11-35.9,10.4-34,9.7-32.1,9.1-.7.3-.6.5-.3.7v.8c-.1,0,0,205.2,0,205.2v.5c0,0,.3.5.3.5l.4.4.5.2,35.6,9.3,35.4,9.1,35.2,9,35.1,8.8h.1s.6,0,.6,0" vector-effect="non-scaling-stroke" fill="none"/>
  <path d="M198.9,97h1.7c0,0,2,.3,2,.3l2.2.3,2.5.5,11,2.3,12,2.6,27.1,6.1,31.3,7.4,35.5,8.6,2.7.6,2.4.5,2.1.3,1.8.2h.6s.5-.2.5-.2l.5-.2.4-.3.4-.4.3-.5v-.5c.1,0,.2-.5.2-.5v-14.4c0,0-.2-.6-.2-.6l-.3-.6-.3-.6-.5-.5-.5-.4-.6-.3-.6-.2-132.2-31.9h-1.8s-1.8,0-1.8,0l-132.2,32-.6.2-.6.3-.5.4-.4.5-.4.6-.3.6-.2.6v.7s0,13.8,0,13.8v.5c0,0,.2.5.2.5l.3.5.4.4.4.3.5.2h.5c0,.1.5.2.5.2h.1l1.8-.2,2.1-.3,2.4-.5,2.7-.6,35.4-8.6,31.3-7.4,27.1-6.2,12-2.6,11-2.3,2.5-.5,2.2-.3,2-.2h1.7" vector-effect="non-scaling-stroke" fill="none"/>
  <path d="M213,112.7v-.4s-.2-.4-.2-.4l-.2-.4-.3-.3-.3-.3-.4-.2h-.4c0-.1-.4-.2-.4-.2l-25.1-.2h-.4s-.4.2-.4.2l-.4.2-.3.3-.3.3-.2.4v.4c-.1,0-.2.4-.2.4v12.8c0,0,0,.4,0,.4v.4c.1,0,.3.4.3.4l.3.3.3.3.4.2h.4c0,.1.4.2.4.2l25.1.2h.4s.4-.2.4-.2l.4-.2.3-.3.3-.3.2-.4v-.4c.1,0,.2-.4.2-.4v-12.8" vector-effect="non-scaling-stroke" fill="none"/>
  <path d="M132.4,137.5v.5c0,0,.3.5.3.5l.3.4.3.3.4.2.5.2h.5c0,0,.5,0,.5,0h0l33.8-8.2.7-.3.6-.5.3-.7v-.8c.1,0-.5-12.2-.5-12.2v-.5c0,0-.2-.4-.2-.4l-.4-.6-.6-.4-.7-.2h-.7s-33.8,8.3-33.8,8.3l-.7.3-.6.5-.4.7v.8c0,0,.5,12.2.5,12.2" vector-effect="non-scaling-stroke" fill="none"/>
  <path d="M225.4,129.4v.4s.1.4.1.4l.2.4.2.3.3.3.3.3.4.2h.4c0,.1,33.2,8,33.2,8h.6c0,0,.5,0,.5,0l.5-.2.5-.3.4-.4.3-.5.2-.5v-.6c0,0,0-11.8,0-11.8v-.4s-.2-.4-.2-.4l-.3-.6-.4-.5-.5-.3-.6-.2-33.2-7.9h-.6c0,0-.5,0-.5,0h-.5c0,.1-.4.4-.4.4l-.4.3-.3.4-.2.4-.2.4v.5s0,11.9,0,11.9" vector-effect="non-scaling-stroke" fill="none"/>
  <path d="M278.1,140.9v.7c.1,0,.4.6.4.6l.5.5.7.3,32.8,7.8h.3s.4,0,.4,0h.4c0-.1.4-.3.4-.3l.4-.3.3-.3.2-.4v-.4c.1,0,.2-.5.2-.5l.2-13.3v-.7c0,0-.4-.6-.4-.6l-.5-.5-.7-.3-32.8-7.8h-.6s-.4,0-.4,0h-.4c0,.1-.3.3-.3.3l-.3.3-.3.3-.2.3v.4c-.1,0-.1.4-.1.4l-.2,13.3" vector-effect="non-scaling-stroke" fill="none"/>
  <path d="M98.2,130.4l-15.1,3.6-.5.2-.5.3-.5.3-.4.4-.3.5-.2.5v.6c-.1,0-.2.6-.2.6l.4,10.6v.6c.1,0,.3.4.3.4l.3.3.3.3.4.2h.4c0,.1.4.2.4.2h.4s9-1.9,9-1.9l8.9-2,15.1-3.6.5-.2.5-.3.4-.4.4-.4.3-.5.2-.5v-.6c.1,0,.2-.6.2-.6l-.4-10.6h0c0-.1,0-.6,0-.6l-.2-.4-.3-.4-.3-.3-.4-.2h-.4c0-.1-.4-.2-.4-.2h-.4s-9,1.8-9,1.8l-8.9,2" vector-effect="non-scaling-stroke" fill="none"/>
  <path d="M326.2,139.2l-.4,1.2-.3,1.2h0l-.2,1.2v1.1s0,1.2,0,1.2v1.2c.1,0,.4,1.2.4,1.2l.4,1.2.5,1.3.6,1.3.3.5.4.5.4.4.5.4.5.3.5.3.6.2h.6c0,.1.6.2.6.2h1.1c0,0,.6-.2.6-.2l.5-.2.5-.3.4-.3.4-.4h0l.5-.8.3-1,.2-1.2v-1.3c0,0,0-1.3,0-1.3v-1.3c0,0-.3-1.3-.3-1.3l-.3-1.4-.4-1.4-.5-1.4-.2-.6-.3-.5-.4-.5-.4-.5-.4-.4-.5-.3-.5-.3-.6-.2-.6-.2h-.6c0-.1-.6-.1-.6-.1h-.6s-.5.1-.5.1l-.5.2-.5.3-.4.3h0l-.6.7-.4.8" vector-effect="non-scaling-stroke" fill="none"/>
  <path d="M70,142.1v-.8c0,0-.3-.7-.3-.7l-.4-.7-.5-.6-.6-.5-.7-.4-.7-.2h-.8c0,0-.6,0-.6,0h-.8c0,0-.7.3-.7.3l-.7.4-.6.5-.5.6-.4.7-.2.7v.8c0,0-.1,7.5-.1,7.5v.8c0,0,.3.7.3.7l.4.7.5.6.6.5.7.4.7.2h.8c0,0,.6,0,.6,0h.8c0,0,.7-.3.7-.3l.7-.4.6-.5.5-.6.4-.7.2-.7v-.8c0,0,.1-7.5.1-7.5" vector-effect="non-scaling-stroke" fill="none"/>
  <path d="M198.2,7.2h1.6l37.8,11,35.9,10.3,34,9.7,32.1,9.1.7.3.6.5.3.7v.8c.1,0,.1,205.2.1,205.2v.5c0,0-.3.5-.3.5l-.4.4-.5.2-35.6,9.3-35.4,9.1-35.2,9-35,8.8h-.1s-.6,0-.6,0h-.6c0,0-.1,0-.1,0l-35.1-8.8-35.2-9-35.4-9.1-35.6-9.3-.5-.2-.4-.4-.3-.5v-.5c0,0-.1-205.2-.1-205.2v-.8c.1,0,.5-.7.5-.7l.6-.5.7-.3,32.1-9.1,34-9.7,35.9-10.4,37.8-11h1.6ZM198.9,97h1.7c0,0,2,.3,2,.3l2.2.3,2.5.5,11,2.3,12,2.6,27.1,6.1,31.3,7.4,35.5,8.6,2.7.6,2.4.5,2.1.3,1.8.2h.6s.5-.2.5-.2l.5-.2.4-.3.4-.4.3-.5v-.5c.1,0,.2-.5.2-.5v-14.4c0,0-.2-.6-.2-.6l-.3-.6-.3-.6-.5-.5-.5-.4-.6-.3-.6-.2-132.2-31.9h-1.8s-1.8,0-1.8,0l-132.2,32-.6.2-.6.3-.5.4-.4.5-.4.6-.3.6-.2.6v.7s0,13.8,0,13.8v.5c0,0,.2.5.2.5l.3.5.4.4.4.3.5.2h.5c0,.1.5.2.5.2h.1l1.8-.2,2.1-.3,2.4-.5,2.7-.6,35.4-8.6,31.3-7.4,27.1-6.2,12-2.6,11-2.3,2.5-.5,2.2-.3,2-.2h1.7ZM213,112.7v-.4s-.2-.4-.2-.4l-.2-.4-.3-.3-.3-.3-.4-.2h-.4c0-.1-.4-.2-.4-.2l-25.1-.2h-.4s-.4.2-.4.2l-.4.2-.3.3-.3.3-.2.4v.4c-.1,0-.2.4-.2.4v12.8c0,0,0,.4,0,.4v.4c.1,0,.3.4.3.4l.3.3.3.3.4.2h.4c0,.1.4.2.4.2l25.1.2h.4s.4-.2.4-.2l.4-.2.3-.3.3-.3.2-.4v-.4c.1,0,.2-.4.2-.4v-12.8ZM132.4,137.5v.5c0,0,.3.5.3.5l.3.4.3.3.4.2.5.2h.5c0,0,.5,0,.5,0h0l33.8-8.2.7-.3.6-.5.3-.7v-.8c.1,0-.5-12.2-.5-12.2v-.5c0,0-.2-.4-.2-.4l-.4-.6-.6-.4-.7-.2h-.7s-33.8,8.3-33.8,8.3l-.7.3-.6.5-.4.7v.8c0,0,.5,12.2.5,12.2ZM225.4,129.4v.4s.1.4.1.4l.2.4.2.3.3.3.3.3.4.2h.4c0,.1,33.2,8,33.2,8h.6c0,0,.5,0,.5,0l.5-.2.5-.3.4-.4.3-.5.2-.5v-.6c0,0,0-11.8,0-11.8v-.4s-.2-.4-.2-.4l-.3-.6-.4-.5-.5-.3-.6-.2-33.2-7.9h-.6c0,0-.5,0-.5,0h-.5c0,.1-.4.4-.4.4l-.4.3-.3.4-.2.4-.2.4v.5s0,11.9,0,11.9ZM278.1,140.9v.7c.1,0,.4.6.4.6l.5.5.7.3,32.8,7.8h.3s.4,0,.4,0h.4c0-.1.4-.3.4-.3l.4-.3.3-.3.2-.4v-.4c.1,0,.2-.5.2-.5l.2-13.3v-.7c0,0-.4-.6-.4-.6l-.5-.5-.7-.3-32.8-7.8h-.6s-.4,0-.4,0h-.4c0,.1-.3.3-.3.3l-.3.3-.3.3-.2.3v.4c-.1,0-.1.4-.1.4l-.2,13.3ZM98.2,130.4l-15.1,3.6-.5.2-.5.3-.5.3-.4.4-.3.5-.2.5v.6c-.1,0-.2.6-.2.6l.4,10.6v.6c.1,0,.3.4.3.4l.3.3.3.3.4.2h.4c0,.1.4.2.4.2h.4s9-1.9,9-1.9l8.9-2,15.1-3.6.5-.2.5-.3.4-.4.4-.4.3-.5.2-.5v-.6c.1,0,.2-.6.2-.6l-.4-10.6h0c0-.1,0-.6,0-.6l-.2-.4-.3-.4-.3-.3-.4-.2h-.4c0-.1-.4-.2-.4-.2h-.4s-9,1.8-9,1.8l-8.9,2ZM326.2,139.2l-.4,1.2-.3,1.2h0l-.2,1.2v1.1s0,1.2,0,1.2v1.2c.1,0,.4,1.2.4,1.2l.4,1.2.5,1.3.6,1.3.3.5.4.5.4.4.5.4.5.3.5.3.6.2h.6c0,.1.6.2.6.2h1.1c0,0,.6-.2.6-.2l.5-.2.5-.3.4-.3.4-.4h0l.5-.8.3-1,.2-1.2v-1.3c0,0,0-1.3,0-1.3v-1.3c0,0-.3-1.3-.3-1.3l-.3-1.4-.4-1.4-.5-1.4-.2-.6-.3-.5-.4-.5-.4-.5-.4-.4-.5-.3-.5-.3-.6-.2-.6-.2h-.6c0-.1-.6-.1-.6-.1h-.6s-.5.1-.5.1l-.5.2-.5.3-.4.3h0l-.6.7-.4.8ZM70,142.1v-.8c0,0-.3-.7-.3-.7l-.4-.7-.5-.6-.6-.5-.7-.4-.7-.2h-.8c0,0-.6,0-.6,0h-.8c0,0-.7.3-.7.3l-.7.4-.6.5-.5.6-.4.7-.2.7v.8c0,0-.1,7.5-.1,7.5v.8c0,0,.3.7.3.7l.4.7.5.6.6.5.7.4.7.2h.8c0,0,.6,0,.6,0h.8c0,0,.7-.3.7-.3l.7-.4.6-.5.5-.6.4-.7.2-.7v-.8c0,0,.1-7.5.1-7.5Z" fill="#3e4243"/>
</svg>