<?xml version="1.0" encoding="UTF-8"?>
<svg id="Layer_1" xmlns="http://www.w3.org/2000/svg" version="1.1" viewBox="0 0 301.3333333 300">
  <!-- Generator: Adobe Illustrator 29.2.1, SVG Export Plug-In . SVG Version: 2.1.0 Build 116)  -->
  <defs>
    <style>
      .st0 {
        fill: #1d1d1b;
      }

      .st1 {
        fill: #fff;
      }

      .st2 {
        fill: #e8e4e0;
      }

      .st3 {
        fill: #f7f5f4;
      }

      .st4 {
        fill: #010101;
      }
    </style>
  </defs>
  <circle class="st4" cx="150.3729207" cy="149.9948875" r="147.5555556"/>
  <circle class="st2" cx="150.3732945" cy="149.9946632" r="127.8814621"/>
  <path class="st3" d="M160.2102744,31.9500866c-70.6268982,0-127.8815565,57.2543593-127.8815565,127.8815565,0,32.8103624,12.369255,62.723456,32.6824651,85.3620486,22.6385926,20.3132101,52.5516862,32.6824651,85.3620486,32.6824651,70.6268982,0,127.8815565-57.2546583,127.8815565-127.8815565,0-32.8103624-12.368956-62.723456-32.6821661-85.3623476-22.6388916-20.3132101-52.5519852-32.6821661-85.3623476-32.6821661Z"/>
  <polygon class="st0" points="150.3732316 95.8908648 229.069574 127.5139198 229.069574 222.1957558 150.3732316 253.2835498 150.3732316 95.8908648"/>
  <polygon class="st0" points="150.3732316 253.2835498 71.6768891 222.1957558 71.6768891 127.5139198 150.3732316 95.8908648 150.3732316 253.2835498"/>
  <polygon class="st1" points="150.3732316 126.6316236 229.069574 149.6871966 229.069574 169.6686859 150.3732316 151.2242306 150.3732316 126.6316236"/>
  <polygon class="st1" points="150.3732316 151.2242306 71.6768891 169.6686859 71.6768891 149.6871966 150.3732316 126.6316236 150.3732316 151.2242306"/>
  <polygon class="st1" points="174.9658386 243.5686909 204.476967 231.9106147 204.476967 189.3427715 174.9658386 184.4242501 174.9658386 243.5686909"/>
  <polygon class="st0" points="150.3732316 31.9500866 125.7806245 76.2167792 150.3732316 61.461215 174.9658386 76.2167792 150.3732316 31.9500866"/>
  <polygon class="st0" points="150.3732316 31.9500866 150.3732316 61.461215 174.9658386 76.2167792 150.3732316 31.9500866"/>
</svg>