<?xml version="1.0" encoding="UTF-8"?>
<svg id="Layer_1" xmlns="http://www.w3.org/2000/svg" version="1.1" viewBox="0 0 64 64">
  <!-- Generator: Adobe Illustrator 29.2.1, SVG Export Plug-In . SVG Version: 2.1.0 Build 116)  -->
  <defs>
    <style>
      .st0 {
        fill: #fff;
      }
    </style>
  </defs>
  <rect class="st0" width="64" height="64"/>
  <g>
    <path d="M32,4c-15.4395,0-28,12.5615208-28,28.001,0,15.43852,12.5605,27.999,28,27.999s28-12.56048,28-27.999c0-15.4394792-12.5605-28.001-28-28.001ZM32,59c-14.8877,0-27-12.11128-27-26.999,0-14.8886792,12.1123-27.001,27-27.001s27,12.1123208,27,27.001c0,14.88772-12.1123,26.999-27,26.999Z"/>
    <path d="M52.9296,19.9387207c-.0047-.0093-.0044-.0195-.0097-.0285-.0051-.009-.014-.0139-.0196-.0224-2.115-3.6353999-5.149-6.6698998-8.784-8.7856998-.0137-.0099-.0222-.0242-.0372-.0328-.0152-.0088-.0321-.0091-.0478-.0161-3.5458-2.0446999-7.6525-3.2212209-12.0313-3.2212209-4.3801,0-8.4879,1.177121-12.0344,3.2226209-.0133.0062-.0279.0063-.0408.0138-.0128.0073-.02.0197-.0318.0279-3.642,2.1173999-6.6812,5.1567999-8.7984,8.7986791-.0032.0051207-.0085.0079207-.0116.0132207-.0031.0054-.0029.0115-.0057.0169-2.0603,3.5556999-3.2462,7.6781998-3.2462,12.0748793,0,13.3271201,10.8418,24.1689198,24.1689,24.1689198h.0023c13.3252-.0012,24.1657-10.8424997,24.1657-24.1689198,0-4.3910795-1.1831-8.5086794-3.2384-12.0612793ZM52.3092,43.1359201l-1.1862-.6847c-.2382-.1377-.5449-.0567-.6826.1826-.1386.2391799-.0566.5449.1826.6826l1.1877.6855799c-1.9347,3.18172-4.614,5.86272-7.7939,7.7998199l-.6887-1.1924c-.1377-.2393-.4453-.3223-.6826-.1826-.2393.1377-.3213.4433-.1826.6826l.6882,1.1917c-3.1725,1.7498-6.7967,2.7724999-10.6491,2.8550999v-3.5057999c0-.2764199-.2237-.5-.5-.5-.2764,0-.5.2235801-.5.5v3.5058999c-3.8542-.082-7.48-1.1049-10.6537-2.8551999l.6888-1.1927c.1377-.2393.0557-.5449-.1836-.6826-.2402-.1406-.5469-.0567-.6826.1826l-.6884,1.1934c-3.1803-1.9374-5.8599-4.6186999-7.7946-7.8008199l1.19-.6864799c.2393-.1377.3213-.4434.1826-.6827-.1367-.2392-.4443-.3213-.6826-.1836l-1.1888.6865c-1.7442-3.1690999-2.7632-6.7880998-2.8454-10.6347201h3.5049c.2764,0,.5-.2235796.5-.5,0-.2763796-.2236-.5-.5-.5h-3.5049c.0824-3.8554795,1.1066-7.4824794,2.8586-10.657l1.1766.6795207c.0791.0459.165.0673.25.0673.1719,0,.3408-.0898207.4326-.25.1387-.2392.0567-.5449-.1826-.6826l-1.1771-.6797c1.9364-3.1766999,4.6153-5.8535999,7.7941-7.7868998l.677,1.1727c.0917.1601.2607.25.4326.25.0849,0,.1709-.0215.25-.0674.2392-.1377.3213-.4434.1826-.6826l-.6761-1.1713209c3.3073-1.821,7.1031-2.86,11.138-2.86,4.0361,0,7.8331,1.039821,11.1411,2.8622209l-.6763,1.171c-.1386.2393-.0566.545.1827.6827.0791.0458.165.0673.25.0673.1718,0,.3408-.0898.4326-.25l.677-1.1723c3.1781,1.9337,5.8563,4.6107999,7.7921,7.7875998l-1.1752.6787c-.2392.1377-.3213.4433-.1826.6826.0918.1601793.2607.25.4326.25.085,0,.1709-.0215.25-.0674l1.1745-.6782c1.751,3.1735999,2.7744,6.7995998,2.8568,10.6537793h-3.5049c-.2764,0-.5.2236204-.5.5,0,.2764204.2236.5.5.5h3.5049c-.0822,3.847-1.1015,7.4666202-2.8461,10.6359201Z"/>
    <path d="M23.4453,25.6006206v13.9979996l8.501.9522.0557.0058,8.5517-.958v-13.9979996l-8.5537-2.1698999-8.5547,2.1698999ZM24.4453,26.3779206l7.0548-1.7892.0004,3.5778999-7.0552,1.7883v-3.5769999ZM24.4453,38.7041202v-7.7181202l7.0553-1.7880795.0013,10.2968997-7.0566-.7907ZM39.5537,38.7041202l-7.0518.7907-.0013-10.2965997,7.0531,1.7877795v7.7181202ZM39.5537,26.3779206v3.5768999l-7.0532-1.7879-.0004-3.5781999,7.0536,1.7892Z"/>
    <path d="M29.1084,20.0459207l2.8887-1.2725,2.8945,1.2735c.0928.041.1895.0605.2852.0605.1855,0,.3662-.0732.5029-.2119.208-.21.2637-.5195207.1435-.7861l-3.1787-7.1327998c-.2256-.5108-1.0654-.5127-1.2949,0l-3.1728,7.1307998c-.1211.2695793-.0645.5791.1435.7891.209.2099.5176.2684793.7881.1494ZM31.9971,12.9814209l2.6054,5.8456999-2.3213-1.0214c-.0898-.0391-.1865-.0596-.2841-.0596-.0967,0-.1944.0205-.2852.0596l-2.3154,1.0205,2.6006-5.8447999Z"/>
  </g>
</svg>