<?xml version="1.0" encoding="UTF-8"?>
<svg id="Layer_1" xmlns="http://www.w3.org/2000/svg" version="1.1" viewBox="0 0 304.5925926 300">
  <!-- Generator: Adobe Illustrator 29.2.1, SVG Export Plug-In . SVG Version: 2.1.0 Build 116)  -->
  <defs>
    <style>
      .st0 {
        fill: #595a5b;
      }

      .st0, .st1, .st2, .st3 {
        stroke-width: 5.2497156px;
      }

      .st0, .st2 {
        stroke-miterlimit: 10;
      }

      .st0, .st3 {
        stroke: #fff;
      }

      .st1 {
        stroke-linecap: square;
      }

      .st1, .st2 {
        stroke: #595a5b;
      }

      .st1, .st3 {
        fill: none;
        stroke-linejoin: round;
      }

      .st2, .st4 {
        fill: #fff;
      }

      .st3 {
        stroke-linecap: round;
      }
    </style>
  </defs>
  <circle class="st2" cx="152.0708812" cy="149.9750958" r="144.3671775"/>
  <path class="st0" d="M152.0708812,275.9682689c-69.4731606,0-125.9931731-56.5200125-125.9931731-125.9931731S82.5977206,23.9819227,152.0708812,23.9819227s125.9931731,56.5200125,125.9931731,125.9931731-56.5200268,125.9931731-125.9931731,125.9931731Z"/>
  <polygon class="st4" points="175.5512839 75.2338456 210.1038477 56.9711352 205.9817712 95.8347794 195.5600361 78.4534962 175.5512839 75.2338456"/>
  <line class="st3" x1="152.0708812" y1="37.283127" x2="152.0708812" y2="54.6749096"/>
  <line class="st3" x1="95.7251593" y1="52.3813089" x2="104.4207881" y2="67.4427428"/>
  <line class="st3" x1="54.4770943" y1="93.6293739" x2="69.5385282" y2="102.3250027"/>
  <line class="st3" x1="39.3789124" y1="149.9750958" x2="56.770695" y2="149.9750958"/>
  <line class="st3" x1="54.4770943" y1="206.3208177" x2="69.5385282" y2="197.6251889"/>
  <line class="st3" x1="95.7251593" y1="247.5688827" x2="104.4207881" y2="232.5074488"/>
  <line class="st3" x1="152.0708812" y1="262.6670646" x2="152.0708812" y2="245.275282"/>
  <line class="st3" x1="208.4165892" y1="247.5688827" x2="199.7209606" y2="232.5074488"/>
  <line class="st3" x1="249.6646531" y1="206.3208177" x2="234.6032196" y2="197.6251889"/>
  <line class="st3" x1="264.7628346" y1="149.9750958" x2="247.3710525" y2="149.9750958"/>
  <line class="st3" x1="249.6646531" y1="93.6293739" x2="234.6032196" y2="102.3250027"/>
  <g>
    <rect class="st4" x="110.1776262" y="122.9479852" width="68.1397329" height="68.9203656"/>
    <polygon class="st4" points="178.3173591 122.9479852 110.1776262 122.9479852 125.8244034 108.0818408 193.9641226 108.0818408 178.3173591 122.9479852"/>
    <polygon class="st4" points="193.9641226 177.0022063 178.3173591 191.8683508 178.3173591 122.9479852 193.9641226 108.0818408 193.9641226 177.0022063"/>
    <polyline class="st1" points="110.1776262 142.2133914 178.3173591 142.2133914 193.9641226 127.3472469"/>
    <polyline class="st1" points="110.1776262 122.9479852 178.3173591 122.9479852 193.9641226 108.0818408"/>
    <line class="st1" x1="178.3173591" y1="191.8683508" x2="178.3173591" y2="125.3418555"/>
  </g>
</svg>