<?xml version="1.0" encoding="UTF-8"?>
<svg id="Layer_1" xmlns="http://www.w3.org/2000/svg" version="1.1" viewBox="0 0 400 300">
  <!-- Generator: Adobe Illustrator 29.2.1, SVG Export Plug-In . SVG Version: 2.1.0 Build 116)  -->
  <path d="M245.7,290.4l.2.5.3.4.3.3.4.3.5.2h.5c0,0,.5,0,.5,0l.5-.2.5-.3.3-.3.3-.4.2-.4.2-.5.3-1.3v-1.6c0,0-.2-10.5-.2-10.5v-.4s.2-.4.2-.4l.2-.4.3-.3.3-.3.3-.2h.4c0-.1.4-.2.4-.2h9.2s.3.1.3.1l.3.2.3.2h0l.2.3.2.3v.3c0,0,.1.3.1.3v14.1s.2.4.2.4l.2.3.3.3.3.3.3.2.3.2h.4c0,0,1.1.3,1.1.3h.3s.4,0,.4,0h.3c0-.1.3-.3.3-.3l.3-.3.2-.3.2-.3v-.3c0,0,0-.1,0-.1v-14.3s.2-.4.2-.4l.2-.3.2-.3.3-.2.3-.2h.4c0-.1.4-.2.4-.2h10c0,0,.5.2.5.2l.5.3.4.3.3.4.3.5.2.5v.5c0,0,.2,11.8.2,11.8v.5c0,0,.2.5.2.5l.2.4.3.4.3.3.4.3.5.2h.5c0,0,.1.1.1.1h.9c0,0,.3-.3.3-.3l.3-.2.3-.3.2-.3v-.4c.1,0,.2-.4.2-.4l.2-274.9h0v-.4s-.2-.4-.2-.4l-.2-.4-.3-.3-.3-.3-.4-.2-.4-.2h-.5s-1.1,0-1.1,0h-.6c0,.1-.5.4-.5.4l-.3.5v.6c-.1,0-.1,14-.1,14v.4s-.2.4-.2.4l-.2.4-.3.3-.3.3-.4.2h-.4c0,.1-.4.2-.4.2h-10.8s-.3-.1-.3-.1l-.3-.2-.3-.2-.2-.3-.2-.3v-.3c0,0-.1-.3-.1-.3v-14.8s-.1-.3-.1-.3l-.2-.3-.2-.3-.3-.2-.3-.2h-.3c0,0-.3-.1-.3-.1h-1.2s-.3.1-.3.1l-.3.2-.3.2-.2.3-.2.3v.3c0,0-.1.3-.1.3v14.7s-.2.5-.2.5l-.2.4-.3.4-.4.3-.4.2-.5.2h-.5s-9.4,0-9.4,0h-.4s-.4-.2-.4-.2l-.4-.2-.3-.3-.3-.3-.2-.4v-.4c-.1,0-.2-.4-.2-.4v-15.3c0,0-.4-.4-.4-.4l-.5-.3h-.5c0-.1-.9-.2-.9-.2h-.4s-.4.1-.4.1l-.3.2-.3.3-.3.3-.2.3v.4c-.1,0-.2.4-.2.4h0v14.8s-.2.4-.2.4l-.2.4-.3.3-.3.3-.4.2h-.4c0,.1-.4.2-.4.2h-10.3s-.4-.2-.4-.2l-.3-.2-.3-.2h0l-.2-.3-.2-.3v-.4c-.1,0-.2-.4-.2-.4v-15.7h0v-.4c0,0-.3-.3-.3-.3l-.3-.2h-.4c0,0-.8,0-.8,0h-.6c0,.1-.6.5-.6.5l-.4.5-.2.6v15.4s-.2.4-.2.4l-.2.4-.3.3-.3.3-.4.2-.4.2h-.5s-8.6,0-8.6,0h-.5s-.4-.2-.4-.2l-.4-.2-.3-.3-.3-.3-.2-.4-.2-.4v-.4h0v-15.8c-.1,0-.4-.5-.4-.5l-.5-.3h-.6c0-.1-1-.1-1-.1h-.5c0,0-.4.3-.4.3l-.3.4v.5c0,0,0,16,0,16v.3s-.1.3-.1.3l-.2.3-.2.3-.3.2-.3.2h-.3c0,0-.3.1-.3.1h-10.6s-.4-.2-.4-.2l-.4-.2-.3-.3-.3-.3-.2-.4-.2-.4v-.4s0-15.2,0-15.2v-.5c0,0-.3-.4-.3-.4l-.4-.3h-.5c0,0-.9,0-.9,0h-.6c0,.1-.5.5-.5.5l-.3.5v.6c-.1,0-.1,15.3-.1,15.3v.5c0,0-.3.5-.3.5l-.3.3-.3.3h-.4c0,.1-.4.2-.4.2h-9.9s-.4-.2-.4-.2l-.4-.2-.3-.3-.3-.3-.2-.4-.2-.4v-.5s0-15.3,0-15.3h0v-.5c0,0-.4-.4-.4-.4l-.4-.3h-.5c0,0-1,0-1,0h-.6c0,.1-.5.4-.5.4l-.3.5v.6c-.1,0-.1,15.8-.1,15.8v.3s-.1.3-.1.3l-.2.3-.2.3-.3.2-.3.2h-.3c0,0-.3.1-.3.1h-10.2c0,0-.6-.3-.6-.3l-.5-.4-.4-.5-.3-.6v-.7c0,0,0-14.6,0-14.6v-.6c-.1,0-.4-.5-.4-.5l-.5-.3h-.6c0-.1-1.1-.1-1.1-.1h-.6c0,.1-.5.4-.5.4l-.3.5v.6c-.1,0-.1,14.3-.1,14.3v.5s-.2.4-.2.4l-.2.4-.3.3-.3.3-.4.2-.4.2h-.5s-8.6,0-8.6,0h-.5s-.4-.2-.4-.2l-.4-.2-.3-.3-.3-.3-.2-.4-.2-.4v-.5s0-14,0-14v-.5c0,0-.4-.4-.4-.4l-.4-.3h-.5c0,0-1,0-1,0h-.5c0,0-.3.2-.3.2l-.3.2-.3.2-.3.3-.2.3v.3c-.1,0-.2.4-.2.4v14s-.2.4-.2.4l-.2.3-.3.3-.3.2-.3.2h-.4c0,.1-.4.2-.4.2h-9.8s-.4-.2-.4-.2l-.4-.2-.3-.3-.3-.3-.2-.4v-.4c-.1,0-.2-.4-.2-.4v-14.5c0,0-.4-.4-.4-.4l-.4-.3h-.5c0,0-1.1,0-1.1,0h-.6c0,.1-.5.4-.5.4l-.4.5-.2.6v14.1s-.1.3-.1.3l-.2.3-.2.3-.3.2-.3.2h-.3c0,0-.3.1-.3.1h-9s-.4-.2-.4-.2l-.4-.2-.3-.3-.3-.3-.2-.4v-.4c-.1,0-.2-.4-.2-.4v-14.2h0c0-.1-.2-.6-.2-.6l-.3-.3-.4-.2h-.4s-1.2.3-1.2.3l-.6.2-.5.3-.5.4-.4.5-.3.5-.3.6-.2.6v.6c0,0,0,273.1,0,273.1v.3s.1.3.1.3l.2.3.2.3.3.2.3.2h.3c0,0,.3.1.3.1h2.7s.4-.2.4-.2l.4-.2.3-.3.3-.4.2-.4.2-.4v-.5s0-12.4,0-12.4h0v-.5c0,0,.2-.5.2-.5l.2-.4.3-.4.4-.3.4-.2.5-.2h.5s6.4,0,6.4,0h.5s.5.2.5.2l.4.2.4.3.3.4.2.4.2.5v.5s0,13.3,0,13.3v.3s.1.3.1.3l.2.3.2.3.3.3.3.2.3.2h.3c0,0,1.3.3,1.3.3h.2s.5,0,.5,0h.5c0-.1.5-.3.5-.3l.4-.3.3-.4.3-.5.2-.5v-.5c0,0,0-13.1,0-13.1v-.4s.2-.4.2-.4l.2-.4.2-.3.3-.3.3-.2h.4c0-.1.4-.2.4-.2h8s.4.2.4.2l.3.2.3.2.2.3.2.3v.4c.1,0,.2.4.2.4v13c0,0,.2.6.2.6l.3.5.4.5.5.4.5.3.6.2h.6c0,0,1.3,0,1.3,0h.5c0,0,.5-.2.5-.2l.5-.3.4-.3.3-.4.3-.5v-.5c.1,0,.2-.5.2-.5v-13.5s.2-.4.2-.4l.2-.4.3-.3.3-.3.4-.2.4-.2h.4s5.2,0,5.2,0h.5c0,0,.5.2.5.2l.4.3.4.3.3.4.3.5v.5c.1,0,.2.5.2.5v12.3h0c0,.1,0,.7,0,.7l.2.5.3.5.3.4.4.3.5.3.5.2h.5c0,0,1.1,0,1.1,0h.5c0,0,.5-.2.5-.2l.5-.3.4-.3.3-.4.3-.5v-.5c.1,0,.2-.5.2-.5v-14.1c.1,0,.5-.5.5-.5l.5-.3h.6c0-.1,7.9-.1,7.9-.1h.4s.4.2.4.2l.4.2.3.3.3.3.2.4v.4c.1,0,.2.4.2.4v13.5s.2.4.2.4l.2.4.3.3.3.3.3.2h.4c0,.1.4.2.4.2h1.5c0,0,.5-.2.5-.2l.5-.3.4-.3.3-.4.3-.5.2-.5v-.5c0,0,0-12.2,0-12.2v-.4s.2-.4.2-.4l.2-.4.3-.3.3-.3.4-.2h.4c0-.1.4-.2.4-.2h8.4s.3.1.3.1l.3.2.3.2.2.3.2.3v.3c0,0,.1.3.1.3v14.1s.2.5.2.5l.2.4.3.4.4.3.4.2.5.2h.5s1,0,1,0h.5c0,0,.5-.2.5-.2l.5-.3.4-.3.3-.4.3-.5.2-.5v-.5c0,0,0-12.8,0-12.8v-.4s.2-.4.2-.4l.2-.4.3-.3.3-.3.4-.2h.4c0-.1.4-.2.4-.2h7.5s.5.2.5.2l.4.2.4.3.3.4.2.4.2.5v.5s0,12.9,0,12.9v.4s.2.4.2.4l.2.4.3.4.3.3.4.3.4.2h.4c0,0,.8.2.8.2h.5s.5,0,.5,0l.5-.2.4-.3.3-.3.3-.4.2-.4v-.5h0v-14.1s.2-.4.2-.4l.2-.4.3-.3.3-.3.4-.2h.4c0-.1.4-.2.4-.2h7.7s.4.2.4.2l.4.2.3.3.3.3.2.4.2.4v.4s0,12.7,0,12.7v.5c0,0,.2.5.2.5l.2.4.3.4.4.3.4.2h.5c0,.1.5.2.5.2h1.6s.4-.2.4-.2l.3-.2.3-.3.3-.3.2-.3v-.4c.1,0,.2-.4.2-.4v-12.8s.2-.5.2-.5l.2-.5.3-.4.5-.6.7-.5.8-.3h.8c0,0,4.6,0,4.6,0h.8c0,0,.7.3.7.3l.6.3.5.5.4.6.3.6.2.7v.7s-.2,3.7-.2,3.7v3.3l.2,2.9.2,1.3.2,1.2" vector-effect="non-scaling-stroke" fill="none"/>
  <path d="M111,34.8h-.4c0,0-.3.3-.3.3l-.2.3v.4c0,0,0,232.5,0,232.5v.4c0,0,.3.3.3.3l.3.2h.4c0,0,170.8,0,170.8,0h.4c0,0,.3-.3.3-.3l.2-.3v-.4c0,0,0-232.5,0-232.5v-.4c0,0-.3-.3-.3-.3l-.3-.2h-.4c0,0-170.8,0-170.8,0" vector-effect="non-scaling-stroke" fill="none"/>
  <path d="M271.7,48.4v-.4s-.2-.4-.2-.4l-.2-.4-.3-.3-.3-.3-.4-.2h-.4c0-.1-.4-.2-.4-.2H122.4s-.4.2-.4.2l-.4.2-.3.3-.3.3-.2.4v.4c-.1,0-.2.4-.2.4v208.2s.2.4.2.4l.2.4.3.3.3.3.4.2h.4c0,.1.4.2.4.2h147.1s.4-.2.4-.2l.4-.2.3-.3.3-.3.2-.4v-.4c.1,0,.2-.4.2-.4V48.4" vector-effect="non-scaling-stroke" fill="none"/>
  <path d="M138.8,251.4l-.2-116.3v-1.2c.1,0,.5-1.1.5-1.1l.6-1,.8-.9.8-.6,1-.5,1.2-.5,1.7-.6,2.6-.9.9-.4.8-.4.7-.5.6-.5.5-.6.4-.6.4-.8.3-.9.5-1.9.5-1.8.6-1.7.6-1.6.7-1.6.7-1.5.8-1.5.8-1.4,1.6-2.3,1.8-2.2,2-2.1,2.3-2.1,2.5-2.1,3-2.3,3.5-2.5,5.2-3.5,2.3-1.6,2-1.4,1.7-1.4,1.5-1.4,1.4-1.4,1.2-1.4,1-1.4.9-1.5.6-1.2.5-1.2.5-1.3.4-1.4.3-1.4.3-1.5.2-1.6.2-1.7.2-.7.4-.6.4-.4.6-.3h.6c0,0,.6,0,.6,0l.5.3.5.4.3.5.2.6.3,1.6.3,1.5.5,1.5.5,1.4.6,1.4.7,1.3.7,1.3.8,1.3.8,1.3.9,1.3,1,1.2,1.1,1.2,2.4,2.4,2.8,2.5,3.2,2.6,4.5,3.4,4.4,3.3,3.1,2.5,2.6,2.3,2.2,2.2,1,1.2.9,1.2.9,1.2.8,1.2.7,1.2.6,1.3.5,1.2.5,1.3.6,2,.4,2,.3,2.1v2.2c0,0,.2.8.2.8l.2.8.4.8.5.7.6.6.7.4.8.3.8.2,1.6.2,1.5.3,1.4.4,1.2.5,1,.6.8.7.7.8.6.8h0l.3.7.2.7.2.8v.8c0,0,.2,17.6.2,17.6v25.3c0,0,0,33,0,33l-.2,40.7h0c0,0,0,.5,0,.5l.2.4.2.3.3.3.3.2.3.2h.4c0,0,.4.1.4.1l9.7-.4h.4c0,0,.4-.2.4-.2l.4-.2.3-.3.3-.3.2-.4v-.4c.1,0,.2-.4.2-.4V51h0v-.2s-.1-.1-.1-.1h-.3c0-.1-137.5-.1-137.5-.1h-.6c0,0-.5.2-.5.2l-.5.3-.4.4-.4.4-.3.5-.2.5v.6c0,0,0,197.9,0,197.9v.4s.2.4.2.4l.2.3.3.3.3.3.3.2h.4c0,.1.4.2.4.2h8.8s.4-.2.4-.2l.4-.2.3-.3.3-.3.2-.4v-.4c.1,0,.2-.4.2-.4" vector-effect="non-scaling-stroke" fill="none"/>
  <path d="M196.3,253l24.8.2,26.2.4h.4s.4-.1.4-.1l.3-.2.3-.2.3-.3.2-.3v-.4c.1,0,.2-.4.2-.4h0v-114.8c0,0-.4-.8-.4-.8l-.4-.7-.6-.6-.8-.6-.8-.5-1-.4-1-.3-1.1-.3-1.2-.2h-1.3c0-.1-1.4-.2-1.4-.2h-.8c0,0-.7-.3-.7-.3l-.7-.4-.6-.5-.5-.6-.3-.7-.2-.7v-.8c0,0,0-2,0-2l-.2-2-.3-1.9-.4-1.9-.5-1.8-.6-1.7-.7-1.6-.8-1.6h0l-.8-1.3-.9-1.3-.9-1.2-1-1.2-1.1-1.1-1.2-1.1-1.3-1-1.4-1-4.1-2.8-4.3-3-3-2.1-2.6-1.9-2.2-1.8-2-1.9-1.9-1.9-1.6-1.9-1.5-2-1.3-1.9-1.2-2-.3-.4-.4-.3h-.3c0,0-.3,0-.3,0h0l-.4.3-.3.4-1.2,2-1.3,1.9-1.5,1.9-1.7,1.9-1.9,1.9-2.1,1.8-2.2,1.8-2.6,1.9-3,2.1-4.4,3-4.1,2.8-1.4,1-1.3,1-1.2,1.1-1.1,1.1-1,1.2-1,1.2-.8,1.3-.8,1.3h0l-.8,1.6-.7,1.7-.6,1.7-.5,1.8-.4,1.9-.3,1.9-.2,2v2c0,0-.1.8-.1.8l-.2.7-.3.7-.5.6-.6.5-.7.3-.7.3h-.7c0,0-1.4.2-1.4.2h-1.3c0,.1-1.2.3-1.2.3l-1.1.3-1,.3-.9.4-.9.5-.8.6-.6.6-.4.7-.3.8v.8c0,0-.7,114-.7,114h0v.4s.2.4.2.4l.2.3.2.3.3.2.3.2h.3c0,0,.4.1.4.1l26.2-.3h24.7" vector-effect="non-scaling-stroke" fill="none"/>
  <path d="M245.7,290.4l-.2-1.2-.2-1.3-.2-2.9v-3.3l.2-3.7v-.7s-.2-.7-.2-.7l-.3-.6-.4-.6-.5-.5-.6-.3-.7-.3h-.7c0,0-.1,0-.1,0h-5.3c0,0-.6.3-.6.3l-.6.3-.5.4-.4.5-.3.6-.2.6v.7c0,0,0,12.2,0,12.2v.4s-.2.4-.2.4l-.2.3-.3.3-.3.3-.3.2h-.4c0,.1-.4.2-.4.2h-1.7c0,0-.5-.2-.5-.2l-.4-.2-.4-.3h0l-.3-.4-.2-.4v-.5c-.1,0-.2-.5-.2-.5v-12.7h0v-.4s-.2-.4-.2-.4l-.2-.4-.3-.3-.3-.3-.4-.2-.4-.2h-.4s-7.3,0-7.3,0h-.4s-.4.2-.4.2l-.4.2-.3.3-.3.3-.2.4v.4c-.1,0-.2.4-.2.4v14.1c0,0-.3.4-.3.4l-.3.4-.3.3-.4.3-.5.2h-.5c0,0-.5,0-.5,0h-.8c0-.1-.4-.2-.4-.2l-.4-.2-.4-.3-.3-.3-.3-.4-.2-.4v-.4c-.1,0-.2-.4-.2-.4v-13.4s-.2-.5-.2-.5l-.2-.4-.3-.4-.4-.3-.4-.2-.5-.2h-.5s-7,0-7,0h-.4s-.4.2-.4.2l-.4.2-.3.3-.3.3-.2.4v.4c-.1,0-.2.4-.2.4v13.3c0,0-.2.5-.2.5l-.3.5-.3.4-.4.3-.5.3-.5.2h-.5c0,0-1,0-1,0h-.5s-.5-.2-.5-.2l-.4-.2-.4-.3h0l-.3-.4-.2-.4-.2-.5v-.5s0-13.6,0-13.6v-.3s-.1-.3-.1-.3l-.2-.3-.2-.3-.3-.2-.3-.2h-.3c0,0-.3-.1-.3-.1h-8.5s-.4.2-.4.2l-.4.2-.3.3-.3.3-.2.4v.4c-.1,0-.2.4-.2.4v12.6s-.1.4-.1.4l-.2.4-.3.4h0l-.4.5-.5.4-.6.2h-.7c0,0-1,0-1,0h-.4s-.4-.2-.4-.2l-.3-.2-.3-.3-.3-.3-.2-.4v-.4c-.1,0-.2-.4-.2-.4v-13.5s-.2-.4-.2-.4l-.2-.4-.3-.3-.3-.3-.4-.2h-.4c0-.1-.4-.2-.4-.2h-8.5c0,.1-.5.5-.5.5l-.3.5v.6c-.1,0-.1,13.4-.1,13.4v.5c0,0-.2.5-.2.5l-.3.5-.3.4-.4.3-.5.3h-.5c0,.1-.5.2-.5.2h-1.7c0,0-.5-.2-.5-.2l-.5-.3-.4-.3-.3-.4-.3-.5-.2-.5v-.6c0,0,0-12.3,0-12.3v-.5c0,0-.2-.5-.2-.5l-.3-.5-.3-.4-.4-.3-.4-.3h-.5c0-.1-.5-.2-.5-.2h-5.7s-.4.2-.4.2l-.4.2-.3.3-.3.3-.2.4-.2.4v.4s0,13,0,13v.8c-.1,0-.5.7-.5.7l-.4.4-.5.3-.6.2h-.6c0,0-1.3,0-1.3,0h-.6c0,0-.6-.2-.6-.2l-.5-.3-.5-.4-.4-.5-.3-.5-.2-.6v-.6c0,0,0-12.5,0-12.5v-.4s-.2-.4-.2-.4l-.2-.3-.2-.3h0l-.3-.2-.3-.2h-.4c0-.1-.4-.2-.4-.2h-8s-.4.2-.4.2l-.3.2-.3.3-.2.3-.2.4v.4c-.1,0-.2.4-.2.4v13.6c0,0-.2.5-.2.5l-.3.5-.3.4-.4.3-.5.2h-.5c0,.1-.5.2-.5.2h-.2s-1.3-.2-1.3-.2h-.3c0,0-.3-.2-.3-.2l-.3-.2-.3-.3-.2-.3-.2-.3v-.3c0,0-.1-.3-.1-.3v-13.6s-.1-.4-.1-.4l-.2-.4-.2-.4-.3-.3-.3-.3-.4-.2h-.4c0-.1-.4-.2-.4-.2h-6.9s-.5.2-.5.2l-.4.2-.4.3-.3.4-.2.4v.5c-.1,0-.2.5-.2.5h0v12.8s-.2.4-.2.4l-.2.4-.3.4-.3.3-.4.2-.4.2h-.5s-2.2,0-2.2,0h-.3s-.3-.1-.3-.1l-.3-.2-.3-.2-.2-.3-.2-.3v-.3c0,0-.1-.3-.1-.3V16c0,0,.2-.6.2-.6l.3-.6.3-.5.4-.5.5-.4.5-.3.6-.2,1.2-.3h.4s.4.2.4.2l.3.3.2.4h0v14.7s.2.4.2.4l.2.4.3.3.3.3.4.2h.4c0,.1.4.2.4.2h8.9s.3-.1.3-.1l.3-.2.3-.2.2-.3.2-.3v-.3c0,0,.1-.3.1-.3v-14.1c0,0,.2-.4.2-.4l.3-.4.3-.3.4-.2h.4c0,0,1.1,0,1.1,0h.5c0,0,.4.4.4.4h0l.3.4v.5c0,0,0,14,0,14v.4s.2.4.2.4l.2.4.3.3h0l.3.3.4.2h.4c0,.1.4.2.4.2h9.7s.4-.2.4-.2l.3-.2.3-.2.3-.3.2-.3v-.4c.1,0,.2-.4.2-.4v-14s.2-.4.2-.4l.2-.3.2-.3.3-.2.3-.2h.4c0-.1.4-.2.4-.2h1.5c0,0,.4.4.4.4l.3.4v.5c0,0,0,14,0,14v.5s.2.4.2.4l.2.4.3.3.3.3.4.2.4.2h.5s8.6,0,8.6,0h.5s.4-.2.4-.2l.4-.2.3-.3.3-.3.2-.4.2-.4v-.5s0-14.3,0-14.3v-.3s.1-.3.1-.3l.3-.3.3-.3.4-.2h.4c0,0,1.1,0,1.1,0h.6c0,.1.5.4.5.4l.3.5v.6c.1,0,.1,14.6.1,14.6v.4s.2.4.2.4l.2.4.3.4.3.3.4.2.4.2h.4c0,0,.3,0,.3,0h9.9s.3-.1.3-.1l.3-.2.3-.2.2-.3.2-.3v-.3c0,0,.1-.3.1-.3V13.1c.1,0,.5-.5.5-.5l.5-.3h.6c0-.1,1-.1,1-.1h.5c0,0,.4.4.4.4l.3.4v.5c0,0,0,15.3,0,15.3v.5s.2.4.2.4l.2.4.3.3.3.3.4.2.4.2h.5s9.4,0,9.4,0h.3s.3-.1.3-.1l.3-.2.3-.2.2-.3.2-.3v-.3c0,0,.1-.3.1-.3v-15.9c.1,0,.4-.5.4-.5l.5-.3h.6c0-.1.9-.1.9-.1h.5c0,0,.4.3.4.3l.3.4v.5c0,0,0,15.2,0,15.2v.4s.2.4.2.4l.2.4.3.3.3.3.4.2h.4c0,.1.4.2.4.2h10.5s.3-.1.3-.1l.3-.2.3-.2.2-.3.2-.3v-.3c0,0,.1-.3.1-.3V12.8c0,0,.3-.4.3-.4l.4-.3h.5c0,0,1,0,1,0h.6c0,.1.5.4.5.4l.3.5v.6c.1,0,.1,15.2.1,15.2h0v.4s.2.4.2.4l.2.4.3.3.3.3.4.2.4.2h.5s8.6,0,8.6,0h.5s.4-.2.4-.2l.4-.2.3-.3.3-.3.2-.4.2-.4v-.5s0-14.8,0-14.8v-.5c0,0,.3-.4.3-.4l.3-.4.3-.3.4-.2h.5c0,0,.8,0,.8,0h.4c0,0,.3.3.3.3l.2.3v.4c0,0,0,15.7,0,15.7v.4s.2.4.2.4l.2.3.2.3h0l.3.2.3.2h.4c0,.1.4.2.4.2h10.4c0,0,.4-.2.4-.2l.4-.2.3-.3.3-.3.2-.3v-.4c.1,0,.2-.4.2-.4v-14.4h0v-.4s.2-.4.2-.4l.2-.3.3-.3.3-.3.3-.2h.4c0,0,.4-.1.4-.1h.9s.5.2.5.2l.5.3.3.4v.5c0,0,0,14.7,0,14.7v.4s.2.4.2.4l.2.4.3.3.3.3.4.2h.4c0,.1.4.2.4.2h9.9s.5-.2.5-.2l.4-.2.4-.3.3-.4.2-.4.2-.5v-.5s0-14.2,0-14.2v-.3s.1-.3.1-.3l.2-.3.2-.3.3-.2.3-.2h.3c0,0,.3-.1.3-.1h1.3s.3.1.3.1l.3.2.3.2.2.3.2.3v.3c0,0,.1.3.1.3v14.7s.2.6.2.6l.4.5.5.3h.6c0,0,10.4,0,10.4,0h.4s.4-.2.4-.2l.4-.2.3-.3.3-.3.2-.4v-.4c.1,0,.2-.4.2-.4v-14.6c.1,0,.4-.5.4-.5l.5-.3h.6c0-.1,1.1-.1,1.1-.1h.5s.4.2.4.2l.4.2.3.3.3.3.2.4.2.4v.4h0l-.2,274.9v.4s-.2.4-.2.4l-.2.3-.3.3-.3.2-.3.2h-.4c0,0-.4,0-.4,0h-.3s-.5-.1-.5-.1l-.5-.2-.4-.3-.3-.3-.3-.4-.2-.4v-.5c-.1,0-.2-.5-.2-.5v-11.8c0,0-.2-.5-.2-.5l-.2-.5-.3-.5-.3-.4-.4-.3-.5-.3-.5-.2h-.5c0,0-9.5,0-9.5,0h-.5c0,0-.3.2-.3.2l-.3.2-.3.2-.3.3-.2.3v.3c-.1,0-.2.4-.2.4v13.9h0c0,.1,0,.5,0,.5l-.2.3-.2.3-.3.3-.3.2h-.3c0,.1-.4.2-.4.2h-.3s-1.1-.2-1.1-.2h-.4c0,0-.3-.3-.3-.3l-.3-.2-.3-.3-.3-.3-.2-.3v-.4c-.1,0-.2-.4-.2-.4v-14s-.1-.3-.1-.3l-.2-.3-.2-.3-.3-.2-.3-.2h-.3c0,0-.3-.1-.3-.1h-9.3c0,0-.4.2-.4.2l-.3.2-.3.3-.3.3-.2.4v.4c-.1,0-.2.4-.2.4l.2,10.5v1.6c0,0-.3,1.3-.3,1.3l-.2.5-.2.4-.3.4-.3.3-.5.3-.5.2h-.5c0,0-.5,0-.5,0l-.5-.2-.4-.3-.3-.3-.3-.4-.2-.5ZM111,34.8h-.4c0,0-.3.3-.3.3l-.2.3v.4c0,0,0,232.5,0,232.5v.4c0,0,.3.3.3.3l.3.2h.4c0,0,170.8,0,170.8,0h.4c0,0,.3-.3.3-.3l.2-.3v-.4c0,0,0-232.5,0-232.5v-.4c0,0-.3-.3-.3-.3l-.3-.2h-.4c0,0-170.8,0-170.8,0Z" fill="#2a292a"/>
  <path d="M271.7,256.2v.4s-.2.4-.2.4l-.2.4-.3.3-.3.3-.4.2h-.4c0,.1-.4.2-.4.2H122.4s-.4-.2-.4-.2l-.4-.2-.3-.3-.3-.3-.2-.4v-.4c-.1,0-.2-.4-.2-.4V47.9s.2-.4.2-.4l.2-.4.3-.3.3-.3.4-.2h.4c0-.1.4-.2.4-.2h147.1s.4.2.4.2l.4.2.3.3.3.3.2.4v.4c.1,0,.2.4.2.4v207.8ZM138.8,251.4l-.2-116.3v-1.2c.1,0,.5-1.1.5-1.1l.6-1,.8-.9.8-.6,1-.5,1.2-.5,1.7-.6,2.6-.9.9-.4.8-.4.7-.5.6-.5.5-.6.4-.6.4-.8.3-.9.5-1.9.5-1.8.6-1.7.6-1.6.7-1.6.7-1.5.8-1.5.8-1.4,1.6-2.3,1.8-2.2,2-2.1,2.3-2.1,2.5-2.1,3-2.3,3.5-2.5,5.2-3.5,2.3-1.6,2-1.4,1.7-1.4,1.5-1.4,1.4-1.4,1.2-1.4,1-1.4.9-1.5.6-1.2.5-1.2.5-1.3.4-1.4.3-1.4.3-1.5.2-1.6.2-1.7.2-.7.4-.6.4-.4.6-.3h.6c0,0,.6,0,.6,0l.5.3.5.4.3.5.2.6.3,1.6.3,1.5.5,1.5.5,1.4.6,1.4.7,1.3.7,1.3.8,1.3.8,1.3.9,1.3,1,1.2,1.1,1.2,2.4,2.4,2.8,2.5,3.2,2.6,4.5,3.4,4.4,3.3,3.1,2.5,2.6,2.3,2.2,2.2,1,1.2.9,1.2.9,1.2.8,1.2.7,1.2.6,1.3.5,1.2.5,1.3.6,2,.4,2,.3,2.1v2.2c0,0,.2.8.2.8l.2.8.4.8.5.7.6.6.7.4.8.3.8.2,1.6.2,1.5.3,1.4.4,1.2.5,1,.6.8.7.7.8.6.8h0l.3.7.2.7.2.8v.8c0,0,.2,17.6.2,17.6v25.3c0,0,0,33,0,33l-.2,40.7h0c0,0,0,.5,0,.5l.2.4.2.3.3.3.3.2.3.2h.4c0,0,.4.1.4.1l9.7-.4h.4c0,0,.4-.2.4-.2l.4-.2.3-.3.3-.3.2-.4v-.4c.1,0,.2-.4.2-.4V51h0v-.2s-.1-.1-.1-.1h-.3c0-.1-137.5-.1-137.5-.1h-.6c0,0-.5.2-.5.2l-.5.3-.4.4-.4.4-.3.5-.2.5v.6c0,0,0,197.9,0,197.9v.4s.2.4.2.4l.2.3.3.3.3.3.3.2h.4c0,.1.4.2.4.2h8.8s.4-.2.4-.2l.4-.2.3-.3.3-.3.2-.4v-.4c.1,0,.2-.4.2-.4ZM196.3,253l24.8.2,26.2.4h.4s.4-.1.4-.1l.3-.2.3-.2.3-.3.2-.3v-.4c.1,0,.2-.4.2-.4h0v-114.8c0,0-.4-.8-.4-.8l-.4-.7-.6-.6-.8-.6-.8-.5-1-.4-1-.3-1.1-.3-1.2-.2h-1.3c0-.1-1.4-.2-1.4-.2h-.8c0,0-.7-.3-.7-.3l-.7-.4-.6-.5-.5-.6-.3-.7-.2-.7v-.8c0,0,0-2,0-2l-.2-2-.3-1.9-.4-1.9-.5-1.8-.6-1.7-.7-1.6-.8-1.6h0l-.8-1.3-.9-1.3-.9-1.2-1-1.2-1.1-1.1-1.2-1.1-1.3-1-1.4-1-4.1-2.8-4.3-3-3-2.1-2.6-1.9-2.2-1.8-2-1.9-1.9-1.9-1.6-1.9-1.5-2-1.3-1.9-1.2-2-.3-.4-.4-.3h-.3c0,0-.3,0-.3,0h0l-.4.3-.3.4-1.2,2-1.3,1.9-1.5,1.9-1.7,1.9-1.9,1.9-2.1,1.8-2.2,1.8-2.6,1.9-3,2.1-4.4,3-4.1,2.8-1.4,1-1.3,1-1.2,1.1-1.1,1.1-1,1.2-1,1.2-.8,1.3-.8,1.3h0l-.8,1.6-.7,1.7-.6,1.7-.5,1.8-.4,1.9-.3,1.9-.2,2v2c0,0-.1.8-.1.8l-.2.7-.3.7-.5.6-.6.5-.7.3-.7.3h-.7c0,0-1.4.2-1.4.2h-1.3c0,.1-1.2.3-1.2.3l-1.1.3-1,.3-.9.4-.9.5-.8.6-.6.6-.4.7-.3.8v.8c0,0-.7,114-.7,114h0v.4s.2.4.2.4l.2.3.2.3.3.2.3.2h.3c0,0,.4.1.4.1l26.2-.3h24.7Z" fill="#2a292a"/>
</svg>