<?xml version="1.0" encoding="UTF-8"?>
<svg id="Layer_1" xmlns="http://www.w3.org/2000/svg" version="1.1" viewBox="0 0 188.4444444 287.1111111">
  <!-- Generator: Adobe Illustrator 29.2.1, SVG Export Plug-In . SVG Version: 2.1.0 Build 116)  -->
  <defs>
    <style>
      .st0 {
        fill: none;
      }

      .st1 {
        fill: #1d1d1b;
      }
    </style>
  </defs>
  <path class="st0" d="M144.6259229,281.8074013l.1999969.5.3000031.3999939.3000031.2999878.3999939.2999878.5.2000122h1l.5-.2000122.5-.2999878.3000031-.2999878.3000031-.3999939.1999969-.3999939.1999969-.5.3000031-1.2999878v-1.6000061l-.1999969-10.5v-.3999939l.1999969-.3999939.1999969-.3999939.3000031-.2999878.3000031-.2999878.3000031-.2000122h.3999939c0-.1000061.3999939-.2000122.3999939-.2000122h9.1999969l.2999878.1000061.2999878.2000122.2999878.2000122h0l.2000122.2999878.2000122.2999878v.2999878l.1000061.2999878v14.1000061l.2000122.3999939.2000122.2999878.2999878.2999878.2999878.2999878.2999878.2000122.2999878.2000122h.3999939l1.1000061.2999878h.9999695c0-.1000061.2999878-.2999878.2999878-.2999878l.2999878-.2999878.2000122-.2999878.2000122-.2999878v-14.6999817l.2000122-.3999939.2000122-.2999878.2000122-.2999878.2999878-.2000122.2999878-.2000122h.3999939c0-.1000061.3999939-.2000122.3999939-.2000122h10l.5.2000122.5.2999878.3999939.2999878.2999878.3999939.2999878.5.2000122.5v.5l.2000122,11.7999878v.5l.2000122.5.2000122.3999939.2999878.3999939.2999878.2999878.3999939.2999878.5.2000122h.5l.1000061.1000061h.8999939l.2999878-.2999878.2999878-.2000122.2999878-.2999878.2000122-.2999878v-.3999939c.1000061,0,.2000122-.3999939.2000122-.3999939l.2000122-274.8999939h0v-.3999996l-.2000122-.3999996-.2000122-.3999996-.2999878-.3000002-.2999878-.3000002-.3999939-.1999998-.3999939-.1999998h-2.2000122c0,.1000004-.5.3999996-.5.3999996l-.2999878.5v.6000004c-.1000061,0-.1000061,14-.1000061,14v.3999996l-.2000122.3999996-.2000122.3999996-.2999878.2999992-.2999878.2999992-.3999939.2000008h-.3999939c0,.1000004-.3999939.2000008-.3999939.2000008h-10.7999878l-.2999878-.1000004-.2999878-.2000008-.2999878-.2000008-.2000122-.2999992-.2000122-.2999992v-.2999992l-.1000061-.2999992V5.507445l-.1000061-.3000002-.2000122-.3000002-.2000122-.3000002-.2999878-.1999998-.2999878-.1999998h-.2999878l-.2999878-.1000004h-1.2000122l-.2999878.1000004-.2999878.1999998-.2999878.1999998-.2000122.3000002-.2000122.3000002v.3000002l-.1000061.3000002v14.6999989l-.2000122.5-.2000122.3999996-.2999878.3999996-.3999939.2999992-.3999939.2000008-.5.2000008h-10.2999878l-.3999939-.2000008-.3999939-.2000008-.3000031-.2999992-.3000031-.2999992-.1999969-.3999996v-.3999996c-.1000061,0-.1999969-.3999996-.1999969-.3999996V5.007445l-.3999939-.3999996-.5-.3000002h-.5c0-.1000004-.8999939-.1999998-.8999939-.1999998h-.3999939l-.3999939.1000004-.3000031.1999998-.3000031.3000002-.3000031.3000002-.1999969.3000002v.3999996c-.1000061,0-.1999969.3999996-.1999969.3999996h0v14.8000002l-.1999969.3999996-.1999969.3999996-.3000031.2999992-.3000031.2999992-.3999939.2000008h-.3999939c0,.1000004-.3999939.2000008-.3999939.2000008h-10.3000031l-.3999939-.2000008-.3000031-.2000008-.3000031-.2000008h0l-.1999969-.2999992-.1999969-.2999992v-.3999996c-.1000061,0-.1999969-.3999996-.1999969-.3999996V5.007445h0v-.3999996l-.3000031-.3000002-.3000031-.1999998h-1.8000031c0,.1000004-.6000061.5-.6000061.5l-.3999939.5-.1999969.6000004v15.4000006l-.1999969.3999996-.1999969.3999996-.3000031.2999992-.3000031.2999992-.3999939.2000008-.3999939.2000008h-9.6000061l-.3999939-.2000008-.3999939-.2000008-.3000031-.2999992-.3000031-.2999992-.1999969-.3999996-.1999969-.3999996v-.3999996h0V4.9074465c-.1000061,0-.3999939-.5-.3999939-.5l-.5-.3000002h-.6000061c0-.1000004-1-.1000004-1-.1000004h-.5l-.3999939.3000002-.3000031.3999996v16.7999983l-.1000061.2999992-.1999969.2999992-.1999969.2999992-.3000031.2000008-.3000031.2000008h-.3000031l-.3000031.1000004h-10.6000061l-.3999939-.2000008-.3999939-.2000008-.3000031-.2999992-.3000031-.2999992-.1999969-.3999996-.1999969-.3999996V5.007445l-.3000031-.3999996-.3999939-.3000002h-2c0,.1000004-.5.5-.5.5l-.3000031.5v.6000004c-.1000061,0-.1000061,15.2999992-.1000061,15.2999992v.5l-.3000031.5-.3000031.2999992-.3000031.2999992h-.3999939c0,.1000004-.3999939.2000008-.3999939.2000008h-9.8999939l-.3999939-.2000008-.3999939-.2000008-.3000031-.2999992-.3000031-.2999992-.1999969-.3999996-.1999969-.3999996V5.4074446h0v-.5l-.3999939-.3999996-.3999939-.3000002h-2.1000061c0,.1000004-.5.3999996-.5.3999996l-.3000031.5v.6000004c-.1000061,0-.1000061,15.7999992-.1000061,15.7999992v.2999992l-.1000061.2999992-.1999969.2999992-.1999969.2999992-.3000031.2000008-.3000031.2000008h-.3000031l-.3000031.1000004h-10.1999969l-.6000061-.2999992-.5-.3999996-.3999939-.5-.3000031-.6000004V5.5074421c-.1000061,0-.3999939-.5-.3999939-.5l-.5-.3000002h-.6000061c0-.1000004-1.1000061-.1000004-1.1000061-.1000004h-.6000061c0,.1000004-.5.3999996-.5.3999996l-.3000031.5v.6000004c-.1000061,0-.1000061,14.3000002-.1000061,14.3000002v.5l-.1999969.3999996-.1999969.3999996-.3000031.2999992-.3000031.2999992-.3999939.2000008-.3999939.2000008h-9.6000061l-.3999939-.2000008-.3999939-.2000008-.3000031-.2999992-.3000031-.2999992-.1999969-.3999996-.1999969-.3999996V5.9074417l-.3999939-.3999996-.3999939-.3000002h-2l-.3000031.1999998-.3000031.1999998-.3000031.1999998-.3000031.3000002-.1999969.3000002v.3000002c-.1000061,0-.1999969.3999996-.1999969.3999996v14.000001l-.1999969.3999996-.1999969.2999992-.3000031.2999992-.3000031.2000008-.3000031.2000008h-.3999939c0,.1000004-.3999939.2000008-.3999939.2000008h-9.8000031l-.3999939-.2000008-.4000015-.2000008-.3000031-.2999992-.3000031-.2999992-.1999969-.3999996v-.3999996c-.0999985,0-.1999969-.3999996-.1999969-.3999996V6.007444l-.4000015-.3999996-.4000015-.3000002h-2.1999969c0,.1000004-.5.3999996-.5.3999996l-.4000015.5-.1999969.6000004v14.1000013l-.0999985.2999992-.1999969.2999992-.1999969.2999992-.3000031.2000008-.3000031.2000008h-.3000031l-.3000031.1000004h-9l-.4000015-.2000008-.4000015-.2000008-.3000031-.2999992-.3000031-.2999992-.1999969-.3999996v-.3999996c-.0999985,0-.1999969-.3999996-.1999969-.3999996V5.9074465h0c0-.1000004-.1999969-.6000004-.1999969-.6000004l-.3000031-.3000002-.4000015-.1999998h-.4000015l-1.1999969.3000002-.5999985.1999998-.5.3000002-.5.3999996-.4000015.5-.3000031.5-.3000031.6000004-.1999969.6000004v274.0000095l.0999985.2999878.1999969.2999878.1999969.2999878.3000031.2000122.3000031.2000122h.3000031l.3000031.1000061h2.6999969l.4000015-.2000122.4000015-.2000122.3000031-.2999878.3000031-.3999939.1999969-.3999939.1999969-.3999939v-12.8999939h0v-.5l.1999969-.5.1999969-.3999939.3000031-.3999939.4000015-.2999878.4000015-.2000122.5-.2000122h7.4000015l.5.2000122.4000015.2000122.4000015.2999878.3000031.3999939.1999969.3999939.1999969.5v14.0999756l.0999985.2999878.1999969.2999878.1999969.2999878.3000031.2999878.3000031.2000122.3000031.2000122h.3000031l1.3000031.2999878h1.1999969c0-.1000061.5-.2999878.5-.2999878l.4000015-.2999878.2999954-.3999939.3000031-.5.1999969-.5v-14l.1999969-.3999939.1999969-.3999939.1999969-.2999878.3000031-.2999878.3000031-.2000122h.3999939c0-.1000061.3999939-.2000122.3999939-.2000122h8l.3999939.2000122.3000031.2000122.3000031.2000122.1999969.2999878.1999969.2999878v.3999939c.1000061,0,.1999969.3999939.1999969.3999939v13l.1999969.6000061.3000031.5.3999939.5.5.3999939.5.2999878.6000061.2000122h2.4000092l.5-.2000122.5-.2999878.3999939-.2999878.3000031-.3999939.3000031-.5v-.5c.1000061,0,.1999969-.5.1999969-.5v-13.5l.1999969-.3999939.1999969-.3999939.3000031-.2999878.3000031-.2999878.3999939-.2000122.3999939-.2000122h6.0999908l.5.2000122.3999939.2999878.3999939.2999878.3000031.3999939.3000031.5v.5c.1000061,0,.1999969.5.1999969.5v12.2999878h0v.7000122l.1999969.5.3000031.5.3000031.3999939.3999939.2999878.5.2999878.5.2000122h2.1000061l.5-.2000122.5-.2999878.3999939-.2999878.3000031-.3999939.3000031-.5v-.5c.1000061,0,.1999969-.5.1999969-.5v-14.1000061c.1000061,0,.5-.5.5-.5l.5-.2999878h.6000061c0-.1000061,7.8999939-.1000061,7.8999939-.1000061h.3999939l.3999939.2000122.3999939.2000122.3000031.2999878.3000031.2999878.1999969.3999939v.3999939c.1000061,0,.1999969.3999939.1999969.3999939v13.5l.1999969.3999939.1999969.3999939.3000031.2999878.3000031.2999878.3000031.2000122h.3999939c0,.1000061.3999939.2000122.3999939.2000122h1.5l.5-.2000122.5-.2999878.3999939-.2999878.3000031-.3999939.3000031-.5.1999969-.5v-13.1000061l.1999969-.3999939.1999969-.3999939.3000031-.2999878.3000031-.2999878.3999939-.2000122h.3999939c0-.1000061.3999939-.2000122.3999939-.2000122h8.3999939l.3000031.1000061.3000031.2000122.3000031.2000122.1999969.2999878.1999969.2999878v.2999878l.1000061.2999878v14.1000061l.1999969.5.1999969.3999939.3000031.3999939.3999939.2999878.3999939.2000122.5.2000122h2l.5-.2000122.5-.2999878.3999939-.2999878.3000031-.3999939.3000031-.5.1999969-.5v-13.6999817l.1999969-.3999939.1999969-.3999939.3000031-.2999878.3000031-.2999878.3999939-.2000122h.3999939c0-.1000061.3999939-.2000122.3999939-.2000122h7.5l.5.2000122.3999939.2000122.3999939.2999878.3000031.3999939.1999969.3999939.1999969.5v13.7999878l.1999969.3999939.1999969.3999939.3000031.3999939.3000031.2999878.3999939.2999878.3999939.2000122h.3999939l.8000031.2000122h1l.5-.2000122.3999939-.2999878.3000031-.2999878.3000031-.3999939.1999969-.3999939v-.5h0v-14.1000061l.1999969-.3999939.1999969-.3999939.3000031-.2999878.3000031-.2999878.3999939-.2000122h.3999939c0-.1000061.3999939-.2000122.3999939-.2000122h7.6999969l.3999939.2000122.3999939.2000122.3000031.2999878.3000031.2999878.1999969.3999939.1999969.3999939v13.6000061l.1999969.5.1999969.3999939.3000031.3999939.3999939.2999878.3999939.2000122h.5c0,.1000061.5.2000122.5.2000122h1.6000061l.3999939-.2000122.3000031-.2000122.3000031-.2999878.3000031-.2999878.1999969-.2999878v-.3999939c.1000061,0,.1999969-.3999939.1999969-.3999939v-12.7999878l.1999969-.5.1999969-.5.3000031-.3999939.5-.6000061.6999969-.5.8000031-.2999878h6.2000122l.6999969.2999878.6000061.2999878.5.5.3999939.6000061.3000031.6000061.1999969.7000122v.7000122l-.1999969,3.7000122v3.2999878l.1999969,2.8999939.1999969,1.2999878.1999969,1.2000122" vector-effect="non-scaling-stroke"/>
  <path class="st0" d="M9.9259259,26.2074066h-.4000015l-.3000031.2999992-.1999969.2999992v233.299984l.3000031.2999878.3000031.2000122h171.6000137l.2999878-.2999878.2000122-.2999878V26.7074181l-.2999878-.2999992-.2999878-.2000008H9.9259717" vector-effect="non-scaling-stroke"/>
  <path class="st0" d="M170.6259381,39.8074089v-.4000015l-.2000122-.4000015-.2000122-.4000015-.2999878-.2999992-.2999878-.2999992-.3999939-.2000008h-.3999939c0-.0999985-.3999939-.2000008-.3999939-.2000008H21.3259275l-.4000015.2000008-.4000015.2000008-.3000031.2999992-.3000031.2999992-.1999969.4000015v.4000015c-.0999985,0-.1999969.4000015-.1999969.4000015v208.2000046l.1999969.3999939.1999969.3999939.3000031.2999878.3000031.2999878.4000015.2000122h.4000015c0,.1000061.4000015.2000122.4000015.2000122h147.1000214l.3999939-.2000122.3999939-.2000122.2999878-.2999878.2999878-.2999878.2000122-.3999939v-.3999939c.1000061,0,.2000122-.3999939.2000122-.3999939V39.8074089" vector-effect="non-scaling-stroke"/>
  <path class="st0" d="M37.725929,242.8074013l-.1999969-116.3000031v-1.1999969c.1000061,0,.5-1.1000061.5-1.1000061l.6000061-1,.8000031-.8999939.8000031-.6000061,1-.5,1.1999969-.5,1.6999969-.6000061,2.6000061-.9000015.8999939-.4000015.8000031-.4000015.6999969-.5.6000061-.5.5-.5999985.3999939-.5999985.3999939-.8000031.3000031-.9000015.5-1.9000015.5-1.8000031.6000061-1.6999969.6000061-1.5999985.6999969-1.5999985.6999969-1.5.8000031-1.5.8000031-1.4000015,1.6000061-2.3000031,1.8000031-2.1999969,2-2.0999985,2.3000031-2.0999985,2.5-2.0999985,3-2.3000031,3.5-2.5,5.1999969-3.5,2.3000031-1.5999985,2-1.4000015,1.6999969-1.4000015,1.5-1.4000015,1.3999939-1.4000015,1.1999969-1.4000015,1-1.4000015.8999939-1.5.6000061-1.1999969.5-1.1999969.5-1.3000031.3999939-1.4000015.3000031-1.4000015.3000031-1.5.1999969-1.5999985.1999969-1.6999969.1999969-.6999969.3999939-.5999985.3999939-.4000015.6000061-.3000031h1.2000122l.5.3000031.5.4000015.3000031.5.1999969.5999985.3000031,1.5999985.3000031,1.5.5,1.5.5,1.4000015.6000061,1.4000015.6999969,1.3000031.6999969,1.3000031.8000031,1.3000031.8000031,1.3000031.8999939,1.3000031,1,1.1999969,1.1000061,1.1999969,2.3999939,2.4000015,2.8000031,2.5,3.1999969,2.5999985,4.5,3.4000015,4.3999939,3.3000031,3.1000061,2.5,2.6000061,2.3000031,2.1999969,2.1999969,1,1.1999969.8999939,1.1999969.8999939,1.1999969.8000031,1.1999969.6999969,1.1999969.6000061,1.3000031.5,1.1999969.5,1.3000031.6000061,2,.3999939,2,.3000031,2.0999985v2.1999969l.1999969.8000031.1999969.8000031.3999939.8000031.5.6999969.6000061.5999985.6999969.4000015.8000031.3000031.8000031.1999969,1.6000061.1999969,1.5.3000031,1.3999939.3999939,1.1999969.5,1,.6000061.8000031.6999969.6999969.8000031.6000061.8000031h0l.3000031.6999969.1999969.6999969.1999969.8000031v.8000031l.1999969,17.6000061v58.3000031l-.1999969,40.6999969h0v.5l.1999969.3999939.1999969.3000031.3000031.3000031.3000031.1999969.3000031.1999969h.3999939l.3999939.1000061,9.7000122-.3999939h.3999939l.3999939-.1999969.3999939-.1999969.2999878-.3000031.2999878-.3000031.2000122-.3999939v-.3999939c.1000061,0,.2000122-.3999939.2000122-.3999939V42.4074074h0v-.2000008l-.1000061-.0999985h-.2999878c0-.0999985-137.5-.0999985-137.5-.0999985h-.6000061l-.5.2000008-.5.2999992-.4000015.4000015-.4000015.4000015-.3000031.5-.1999969.5v198.8999825l.1999969.3999939.1999969.3000031.3000031.3000031.3000031.3000031.3000031.1999969h.3999939c0,.1000061.3999939.1999969.3999939.1999969h8.8000031l.3999939-.1999969.3999939-.1999969.3000031-.3000031.3000031-.3000031.1999969-.3999939v-.3999939c.1000061,0,.1999969-.3999939.1999969-.3999939" vector-effect="non-scaling-stroke"/>
  <path class="st0" d="M95.225929,244.4074074l24.8000031.1999969,26.1999969.3999939h.3999939l.3999939-.1000061.3000031-.1999969.3000031-.1999969.3000031-.3000031.1999969-.3000031v-.3999939c.1000061,0,.1999969-.3999939.1999969-.3999939h0v-114.8000031l-.3999939-.8000031-.3999939-.6999969-.6000061-.6000061-.8000031-.6000061-.8000031-.5-1-.3999939-1-.3000031-1.1000061-.3000031-1.1999969-.1999969h-1.3000031c0-.1000061-1.3999939-.1999969-1.3999939-.1999969h-.8000031l-.6999969-.3000031-.6999969-.3999939-.6000061-.5-.5-.6000061-.3000031-.6999969-.1999969-.6999969v-2.8000031l-.1999969-2-.3000031-1.9000015-.3999939-1.9000015-.5-1.8000031-.6000061-1.6999969-.6999969-1.5999985-.8000031-1.5999985h0l-.8000031-1.3000031-.8999939-1.3000031-.8999939-1.1999969-1-1.1999969-1.1000061-1.0999985-1.1999969-1.0999985-1.3000031-1-1.3999939-1-4.1000061-2.8000031-4.3000031-3-3-2.0999985-2.6000061-1.9000015-2.1999969-1.8000031-2-1.9000015-1.8999939-1.9000015-1.6000061-1.9000015-1.5-2-1.3000031-1.9000015-1.1999969-2-.3000031-.4000015-.3999939-.3000031h-.6000061l-.3999939.3000031-.3000031.4000015-1.1999969,2-1.3000031,1.9000015-1.5,1.9000015-1.6999969,1.9000015-1.8999939,1.9000015-2.1000061,1.8000031-2.1999969,1.8000031-2.6000061,1.9000015-3,2.0999985-4.3999939,3-4.1000061,2.8000031-1.3999939,1-1.3000031,1-1.1999969,1.0999985-1.1000061,1.0999985-1,1.1999969-1,1.1999969-.8000031,1.3000031-.8000031,1.3000031h0l-.8000031,1.5999985-.6999969,1.6999969-.6000061,1.6999969-.5,1.8000031-.3999939,1.9000015-.3000031,1.9000015-.1999969,2v1.9999924l-.1000061.8000031-.1999969.6999969-.3000031.6999969-.5.6000061-.6000061.5-.6999969.3000031-.6999969.3000031h-.6999969l-1.3999939.1999969h-1.3000031c0,.1000061-1.1999969.3000031-1.1999969.3000031l-1.1000061.3000031-1,.3000031-.8999939.3999939-.8999939.5-.8000031.6000061-.6000061.6000061-.3999939.6999969-.3000031.8000031v.8000031l-.6999969,114h0v.3999939l.1999969.3999939.1999969.3000031.1999969.3000031.3000031.1999969.3000031.1999969h.3000031l.3999939.1000061,26.1999969-.3000031h24.6999969" vector-effect="non-scaling-stroke"/>
  <path class="st1" d="M144.6259229,281.8074013l-.1999969-1.2000122-.1999969-1.2999878-.1999969-2.8999939v-3.2999878l.1999969-3.7000122v-.7000122l-.1999969-.7000122-.3000031-.6000061-.3999939-.6000061-.5-.5-.6000061-.2999878-.6999969-.2999878h-6.1000061l-.6000061.2999878-.6000061.2999878-.5.3999939-.3999939.5-.3000031.6000061-.1999969.6000061v13.3000183l-.1999969.3999939-.1999969.2999878-.3000031.2999878-.3000031.2999878-.3000031.2000122h-.3999939c0,.1000061-.3999939.2000122-.3999939.2000122h-1.6999969l-.5-.2000122-.3999939-.2000122-.3999939-.2999878h0l-.3000031-.3999939-.1999969-.3999939v-.5c-.1000061,0-.1999969-.5-.1999969-.5v-12.7000122h0v-.3999939l-.1999969-.3999939-.1999969-.3999939-.3000031-.2999878-.3000031-.2999878-.3999939-.2000122-.3999939-.2000122h-8.0999908l-.3999939.2000122-.3999939.2000122-.3000031.2999878-.3000031.2999878-.1999969.3999939v.3999939c-.1000061,0-.1999969.3999939-.1999969.3999939v14.1000061l-.3000031.3999939-.3000031.3999939-.3000031.2999878-.3999939.2999878-.5.2000122h-1.8000031c0-.1000061-.3999939-.2000122-.3999939-.2000122l-.3999939-.2000122-.3999939-.2999878-.3000031-.2999878-.3000031-.3999939-.1999969-.3999939v-.3999939c-.1000061,0-.1999969-.3999939-.1999969-.3999939v-13.3999939l-.1999969-.5-.1999969-.3999939-.3000031-.3999939-.3999939-.2999878-.3999939-.2000122-.5-.2000122h-7.8999939l-.3999939.2000122-.3999939.2000122-.3000031.2999878-.3000031.2999878-.1999969.3999939v.3999939c-.1000061,0-.1999969.3999939-.1999969.3999939v13.2999878l-.1999969.5-.3000031.5-.3000031.3999939-.3999939.2999878-.5.2999878-.5.2000122h-2l-.5-.2000122-.3999939-.2000122-.3999939-.2999878h0l-.3000031-.3999939-.1999969-.3999939-.1999969-.5v-14.3999939l-.1000061-.2999878-.1999969-.2999878-.1999969-.2999878-.3000031-.2000122-.3000031-.2000122h-.3000031l-.3000031-.1000061h-8.5l-.3999939.2000122-.3999939.2000122-.3000031.2999878-.3000031.2999878-.1999969.3999939v.3999939c-.1000061,0-.1999969.3999939-.1999969.3999939v12.6000061l-.1000061.3999939-.1999969.3999939-.3000031.3999939h0l-.3999939.5-.5.3999939-.6000061.2000122h-2.0999908l-.3999939-.2000122-.3000031-.2000122-.3000031-.2999878-.3000031-.2999878-.1999969-.3999939v-.3999939c-.1000061,0-.1999969-.3999939-.1999969-.3999939v-13.5l-.1999969-.3999939-.1999969-.3999939-.3000031-.2999878-.3000031-.2999878-.3999939-.2000122h-.3999939c0-.1000061-.3999939-.2000122-.3999939-.2000122h-8.5c0,.1000061-.5.5-.5.5l-.3000031.5v.6000061c-.1000061,0-.1000061,13.3999939-.1000061,13.3999939v.5l-.1999969.5-.3000031.5-.3000031.3999939-.3999939.2999878-.5.2999878h-.5c0,.1000061-.5.2000122-.5.2000122h-1.6999969l-.5-.2000122-.5-.2999878-.3999939-.2999878-.3000031-.3999939-.3000031-.5-.1999969-.5v-13.3999939l-.1999969-.5-.3000031-.5-.3000031-.3999939-.3999939-.2999878-.3999939-.2999878h-.5c0-.1000061-.5-.2000122-.5-.2000122h-5.6999969l-.3999939.2000122-.3999939.2000122-.3000031.2999878-.3000031.2999878-.1999969.3999939-.1999969.3999939v14.1999817c-.1000061,0-.5.7000122-.5.7000122l-.3999939.3999939-.5.2999878-.6000061.2000122h-2.5000153l-.6000061-.2000122-.5-.2999878-.5-.3999939-.3999939-.5-.3000031-.5-.1999969-.6000061v-13.5l-.1999969-.3999939-.1999969-.2999878-.1999969-.2999878h0l-.3000031-.2000122-.3000031-.2000122h-.3999939c0-.1000061-.3999939-.2000122-.3999939-.2000122h-8l-.3999939.2000122-.3000031.2000122-.3000031.2999878-.1999969.2999878-.1999969.3999939v.3999939c-.1000061,0-.1999969.3999939-.1999969.3999939v13.6000061l-.1999969.5-.3000031.5-.3000031.3999939-.4000015.2999878-.5.2000122h-.5c0,.1000061-.5.2000122-.5.2000122h-.1999969l-1.3000031-.2000122h-.3000031l-.3000031-.2000122-.3000031-.2000122-.3000031-.2999878-.1999969-.2999878-.1999969-.2999878v-.2999878l-.0999985-.2999878v-13.6000061l-.0999985-.3999939-.1999969-.3999939-.1999969-.3999939-.3000031-.2999878-.3000031-.2999878-.4000015-.2000122h-.4000015c0-.1000061-.4000015-.2000122-.4000015-.2000122h-6.9000015l-.5.2000122-.4000015.2000122-.4000015.2999878-.3000031.3999939-.1999969.3999939v.5c-.0999985,0-.1999969.5-.1999969.5h0v12.7999878l-.1999969.3999939-.1999969.3999939-.3000031.3999939-.3000031.2999878-.4000015.2000122-.4000015.2000122h-3l-.3000031-.1000061-.3000031-.2000122-.3000031-.2000122-.1999969-.2999878-.1999969-.2999878v-.2999878l-.0999985-.2999878V7.4074074l.1999969-.6000004.3000031-.6000004.3000031-.5.4000015-.5.5-.3999996.5-.3000002.5999985-.1999998,1.1999969-.3000002h.4000015l.4000015.1999998.3000031.3000002.1999969.3999996h0v14.6999998l.1999969.3999996.1999969.3999996.3000031.2999992.3000031.2999992.4000015.2000008h.4000015c0,.1000004.4000015.2000008.4000015.2000008h8.9000015l.3000031-.1000004.3000031-.2000008.3000031-.2000008.1999969-.2999992.1999969-.2999992v-.2999992l.0999985-.2999992V5.6074063l.1999969-.3999996.3000031-.3999996.3000031-.3000002.4000015-.1999998h2l.4000015.3999996h0l.3000031.3999996v14.8999996l.1999969.3999996.1999969.3999996.3000031.2999992h0l.3000031.2999992.4000015.2000008h.3999939c0,.1000004.3999939.2000008.3999939.2000008h9.6999969l.3999939-.2000008.3000031-.2000008.3000031-.2000008.3000031-.2999992.1999969-.2999992v-.3999996c.1000061,0,.1999969-.3999996.1999969-.3999996V5.8074051l.1999969-.3999996.1999969-.3000002.1999969-.3000002.3000031-.1999998.3000031-.1999998h.3999939c0-.1000004.3999939-.1999998.3999939-.1999998h1.5l.3999939.3999996.3000031.3999996v15.000001l.1999969.3999996.1999969.3999996.3000031.2999992.3000031.2999992.3999939.2000008.3999939.2000008h9.6000061l.3999939-.2000008.3999939-.2000008.3000031-.2999992.3000031-.2999992.1999969-.3999996.1999969-.3999996V4.9074055l.1000061-.3000002.3000031-.3000002.3000031-.3000002.3999939-.1999998h2.1000061c0,.1000004.5.3999996.5.3999996l.3000031.5v.6000004c.1000061,0,.1000061,14.6000004.1000061,14.6000004v.3999996l.1999969.3999996.1999969.3999996.3000031.3999996.3000031.2999992.3999939.2000008.3999939.2000008h10.5999908l.3000031-.1000004.3000031-.2000008.3000031-.2000008.1999969-.2999992.1999969-.2999992v-.2999992l.1000061-.2999992V4.5074078c.1000061,0,.5-.5.5-.5l.5-.3000002h.6000061c0-.1000004,1-.1000004,1-.1000004h.5l.3999939.3999996.3000031.3999996v16.3000002l.1999969.3999996.1999969.3999996.3000031.2999992.3000031.2999992.3999939.2000008.3999939.2000008h10.1999969l.3000031-.1000004.3000031-.2000008.3000031-.2000008.1999969-.2999992.1999969-.2999992v-.2999992l.1000061-.2999992V4.9074074c.1000061,0,.3999939-.5.3999939-.5l.5-.3000002h.6000061c0-.1000004.8999939-.1000004.8999939-.1000004h.5l.3999939.3000002.3000031.3999996v16.1000004l.1999969.3999996.1999969.3999996.3000031.2999992.3000031.2999992.3999939.2000008h.3999939c0,.1000004.3999939.2000008.3999939.2000008h10.5l.3000031-.1000004.3000031-.2000008.3000031-.2000008.1999969-.2999992.1999969-.2999992v-.2999992l.1000061-.2999992V4.2074076l.3000031-.3999996.3999939-.3000002h2.1000061c0,.1000004.5.3999996.5.3999996l.3000031.5v.6000004c.1000061,0,.1000061,15.1999989.1000061,15.1999989h0v.3999996l.1999969.3999996.1999969.3999996.3000031.2999992.3000031.2999992.3999939.2000008.3999939.2000008h9.6000061l.3999939-.2000008.3999939-.2000008.3000031-.2999992.3000031-.2999992.1999969-.3999996.1999969-.3999996V4.8074061l.3000031-.3999996.3000031-.3999996.3000031-.3000002.3999939-.1999998h1.6999969l.3000031.3000002.1999969.3000002v16.499999l.1999969.3999996.1999969.2999992.1999969.2999992h0l.3000031.2000008.3000031.2000008h.3999939c0,.1000004.3999939.2000008.3999939.2000008h10.3999939l.3999939-.2000008.3999939-.2000008.3000031-.2999992.3000031-.2999992.1999969-.2999992v-.3999996c.1000061,0,.1999969-.3999996.1999969-.3999996V5.7074086h0v-.3999996l.1999969-.3999996.1999969-.3000002.3000031-.3000002.3000031-.3000002.3000031-.1999998h.3999939l.3999939-.1000004h.8999939l.5.1999998.5.3000002.3000031.3999996v15.6000004l.1999969.3999996.1999969.3999996.3000031.2999992.3000031.2999992.3999939.2000008h.3999939c0,.1000004.3999939.2000008.3999939.2000008h9.8999939l.5-.2000008.3999939-.2000008.3999939-.2999992.2999878-.3999996.2000122-.3999996.2000122-.5V5.0074078l.1000061-.3000002.2000122-.3000002.2000122-.3000002.2999878-.1999998.2999878-.1999998h.2999878l.2999878-.1000004h1.2999878l.2999878.1000004.2999878.1999998.2999878.1999998.2000122.3000002.2000122.3000002v.3000002l.1000061.3000002v14.6999998l.2000122.6000004.3999939.5.5.2999992h11.3999939l.3999939-.2000008.3999939-.2000008.2999878-.2999992.2999878-.2999992.2000122-.3999996v-.3999996c.1000061,0,.2000122-.3999996.2000122-.3999996V4.6074082c.1000061,0,.3999939-.5.3999939-.5l.5-.3000002h.6000061c0-.1000004,1.1000061-.1000004,1.1000061-.1000004h.5l.3999939.1999998.3999939.1999998.2999878.3000002.2999878.3000002.2000122.3999996.2000122.3999996v.3999996h0l-.2000122,274.8999949v.3999939l-.2000122.3999939-.2000122.2999878-.2999878.2999878-.2999878.2000122-.2999878.2000122h-1.0999756l-.5-.1000061-.5-.2000122-.3999939-.2999878-.2999878-.2999878-.2999878-.3999939-.2000122-.3999939v-.5c-.1000061,0-.2000122-.5-.2000122-.5v-11.7999878l-.2000122-.5-.2000122-.5-.2999878-.5-.2999878-.3999939-.3999939-.2999878-.5-.2999878-.5-.2000122h-10.5l-.2999878.2000122-.2999878.2000122-.2999878.2000122-.2999878.2999878-.2000122.2999878v.2999878c-.1000061,0-.2000122.3999939-.2000122.3999939v13.8999939h0v.5l-.2000122.2999878-.2000122.2999878-.2999878.2999878-.2999878.2000122h-.2999878c0,.1000061-.3999939.2000122-.3999939.2000122h-.2999878l-1.1000061-.2000122h-.3999939l-.2999878-.2999878-.2999878-.2000122-.2999878-.2999878-.2999878-.2999878-.2000122-.2999878v-.3999939c-.1000061,0-.2000122-.3999939-.2000122-.3999939v-14l-.1000061-.2999878-.2000122-.2999878-.2000122-.2999878-.2999878-.2000122-.2999878-.2000122h-.2999878l-.2999878-.1000061h-9.3000031l-.3999939.2000122-.3000031.2000122-.3000031.2999878-.3000031.2999878-.1999969.3999939v.3999939c-.1000061,0-.1999969.3999939-.1999969.3999939l.1999969,10.5v1.6000061l-.3000031,1.2999878-.1999969.5-.1999969.3999939-.3000031.3999939-.3000031.2999878-.5.2999878-.5.2000122h-1l-.5-.2000122-.3999939-.2999878-.3000031-.2999878-.3000031-.3999939-.1999969-.5,1.099884.5999756ZM9.9259259,26.2074066h-.4000015l-.3000031.2999992-.1999969.2999992v233.299984l.3000031.2999878.3000031.2000122h171.6000137l.2999878-.2999878.2000122-.2999878V26.7074181l-.2999878-.2999992-.2999878-.2000008H9.9259717l-.0000458-.0000114Z"/>
  <path class="st1" d="M170.6259381,247.6074196v.3999939l-.2000122.3999939-.2000122.3999939-.2999878.2999878-.2999878.2999878-.3999939.2000122h-.3999939c0,.1000061-.3999939.2000122-.3999939.2000122H21.3259275l-.4000015-.2000122-.4000015-.2000122-.3000031-.2999878-.3000031-.2999878-.1999969-.3999939v-.3999939c-.0999985,0-.1999969-.3999939-.1999969-.3999939V39.3074089l.1999969-.4000015.1999969-.4000015.3000031-.2999992.3000031-.2999992.4000015-.2000008h.4000015c0-.0999985.4000015-.2000008.4000015-.2000008h147.1000214l.3999939.2000008.3999939.2000008.2999878.2999992.2999878.2999992.2000122.4000015v.4000015c.1000061,0,.2000122.4000015.2000122.4000015v207.9000092ZM37.725929,242.8074013l-.1999969-116.3000031v-1.1999969c.1000061,0,.5-1.1000061.5-1.1000061l.6000061-1,.8000031-.8999939.8000031-.6000061,1-.5,1.1999969-.5,1.6999969-.6000061,2.6000061-.9000015.8999939-.4000015.8000031-.4000015.6999969-.5.6000061-.5.5-.5999985.3999939-.5999985.3999939-.8000031.3000031-.9000015.5-1.9000015.5-1.8000031.6000061-1.6999969.6000061-1.5999985.6999969-1.5999985.6999969-1.5.8000031-1.5.8000031-1.4000015,1.6000061-2.3000031,1.8000031-2.1999969,2-2.0999985,2.3000031-2.0999985,2.5-2.0999985,3-2.3000031,3.5-2.5,5.1999969-3.5,2.3000031-1.5999985,2-1.4000015,1.6999969-1.4000015,1.5-1.4000015,1.3999939-1.4000015,1.1999969-1.4000015,1-1.4000015.8999939-1.5.6000061-1.1999969.5-1.1999969.5-1.3000031.3999939-1.4000015.3000031-1.4000015.3000031-1.5.1999969-1.5999985.1999969-1.6999969.1999969-.6999969.3999939-.5999985.3999939-.4000015.6000061-.3000031h1.2000122l.5.3000031.5.4000015.3000031.5.1999969.5999985.3000031,1.5999985.3000031,1.5.5,1.5.5,1.4000015.6000061,1.4000015.6999969,1.3000031.6999969,1.3000031.8000031,1.3000031.8000031,1.3000031.8999939,1.3000031,1,1.1999969,1.1000061,1.1999969,2.3999939,2.4000015,2.8000031,2.5,3.1999969,2.5999985,4.5,3.4000015,4.3999939,3.3000031,3.1000061,2.5,2.6000061,2.3000031,2.1999969,2.1999969,1,1.1999969.8999939,1.1999969.8999939,1.1999969.8000031,1.1999969.6999969,1.1999969.6000061,1.3000031.5,1.1999969.5,1.3000031.6000061,2,.3999939,2,.3000031,2.0999985v2.1999969l.1999969.8000031.1999969.8000031.3999939.8000031.5.6999969.6000061.5999985.6999969.4000015.8000031.3000031.8000031.1999969,1.6000061.1999969,1.5.3000031,1.3999939.3999939,1.1999969.5,1,.6000061.8000031.6999969.6999969.8000031.6000061.8000031h0l.3000031.6999969.1999969.6999969.1999969.8000031v.8000031l.1999969,17.6000061v58.3000031l-.1999969,40.6999969h0v.5l.1999969.3999939.1999969.3000031.3000031.3000031.3000031.1999969.3000031.1999969h.3999939l.3999939.1000061,9.7000122-.3999939h.3999939l.3999939-.1999969.3999939-.1999969.2999878-.3000031.2999878-.3000031.2000122-.3999939v-.3999939c.1000061,0,.2000122-.3999939.2000122-.3999939V42.4074074h0v-.2000008l-.1000061-.0999985h-.2999878c0-.0999985-137.5-.0999985-137.5-.0999985h-.6000061l-.5.2000008-.5.2999992-.4000015.4000015-.4000015.4000015-.3000031.5-.1999969.5v198.8999825l.1999969.3999939.1999969.3000031.3000031.3000031.3000031.3000031.3000031.1999969h.3999939c0,.1000061.3999939.1999969.3999939.1999969h8.8000031l.3999939-.1999969.3999939-.1999969.3000031-.3000031.3000031-.3000031.1999969-.3999939v-.3999939c.1000061,0,.1999969-.3999939.1999969-.3999939l-.1999817.0999908ZM95.225929,244.4074074l24.8000031.1999969,26.1999969.3999939h.3999939l.3999939-.1000061.3000031-.1999969.3000031-.1999969.3000031-.3000031.1999969-.3000031v-.3999939c.1000061,0,.1999969-.3999939.1999969-.3999939h0v-114.8000031l-.3999939-.8000031-.3999939-.6999969-.6000061-.6000061-.8000031-.6000061-.8000031-.5-1-.3999939-1-.3000031-1.1000061-.3000031-1.1999969-.1999969h-1.3000031c0-.1000061-1.3999939-.1999969-1.3999939-.1999969h-.8000031l-.6999969-.3000031-.6999969-.3999939-.6000061-.5-.5-.6000061-.3000031-.6999969-.1999969-.6999969v-2.8000031l-.1999969-2-.3000031-1.9000015-.3999939-1.9000015-.5-1.8000031-.6000061-1.6999969-.6999969-1.5999985-.8000031-1.5999985h0l-.8000031-1.3000031-.8999939-1.3000031-.8999939-1.1999969-1-1.1999969-1.1000061-1.0999985-1.1999969-1.0999985-1.3000031-1-1.3999939-1-4.1000061-2.8000031-4.3000031-3-3-2.0999985-2.6000061-1.9000015-2.1999969-1.8000031-2-1.9000015-1.8999939-1.9000015-1.6000061-1.9000015-1.5-2-1.3000031-1.9000015-1.1999969-2-.3000031-.4000015-.3999939-.3000031h-.6000061l-.3999939.3000031-.3000031.4000015-1.1999969,2-1.3000031,1.9000015-1.5,1.9000015-1.6999969,1.9000015-1.8999939,1.9000015-2.1000061,1.8000031-2.1999969,1.8000031-2.6000061,1.9000015-3,2.0999985-4.3999939,3-4.1000061,2.8000031-1.3999939,1-1.3000031,1-1.1999969,1.0999985-1.1000061,1.0999985-1,1.1999969-1,1.1999969-.8000031,1.3000031-.8000031,1.3000031h0l-.8000031,1.5999985-.6999969,1.6999969-.6000061,1.6999969-.5,1.8000031-.3999939,1.9000015-.3000031,1.9000015-.1999969,2v1.9999924l-.1000061.8000031-.1999969.6999969-.3000031.6999969-.5.6000061-.6000061.5-.6999969.3000031-.6999969.3000031h-.6999969l-1.3999939.1999969h-1.3000031c0,.1000061-1.1999969.3000031-1.1999969.3000031l-1.1000061.3000031-1,.3000031-.8999939.3999939-.8999939.5-.8000031.6000061-.6000061.6000061-.3999939.6999969-.3000031.8000031v.8000031l-.6999969,114h0v.3999939l.1999969.3999939.1999969.3000031.1999969.3000031.3000031.1999969.3000031.1999969h.3000031l.3999939.1000061,26.1999969-.3000031h24.6999969l.2000275-.1999969Z"/>
</svg>