<?xml version="1.0" encoding="UTF-8"?>
<svg id="Layer_1" xmlns="http://www.w3.org/2000/svg" version="1.1" xmlns:xlink="http://www.w3.org/1999/xlink" viewBox="0 0 400 143.1">
  <!-- Generator: Adobe Illustrator 29.2.1, SVG Export Plug-In . SVG Version: 2.1.0 Build 116)  -->
  <defs>
    <linearGradient id="linear-gradient" x1="-745.5" y1="-602.9" x2="-745.5" y2="-603" gradientTransform="translate(223962.3 223460.3) scale(300.3 370.5)" gradientUnits="userSpaceOnUse">
      <stop offset="0" stop-color="#e62a36"/>
      <stop offset="1" stop-color="#ffd02f"/>
    </linearGradient>
    <linearGradient id="linear-gradient1" x1="-745.3" y1="-603" x2="-745.5" y2="-602.7" gradientTransform="translate(204197.6 181059.9) scale(273.8 300.2)" gradientUnits="userSpaceOnUse">
      <stop offset="0" stop-color="#fbc52e"/>
      <stop offset=".3" stop-color="#ee7137"/>
      <stop offset=".6" stop-color="#b665a5"/>
      <stop offset="1" stop-color="#4e4797"/>
    </linearGradient>
    <linearGradient id="linear-gradient2" x1="-745.2" y1="-602.9" x2="-745.1" y2="-602.8" gradientTransform="translate(223842.7 223411.3) scale(300.3 370.5)" gradientUnits="userSpaceOnUse">
      <stop offset="0" stop-color="#8ecdc3"/>
      <stop offset=".3" stop-color="#7bcdf3"/>
      <stop offset=".6" stop-color="#769fd4"/>
      <stop offset="1" stop-color="#4e4797"/>
    </linearGradient>
    <linearGradient id="linear-gradient3" x1="-745.3" y1="-602.5" x2="-745.1" y2="-602.7" gradientTransform="translate(204104.5 180940.2) scale(273.8 300.2)" gradientUnits="userSpaceOnUse">
      <stop offset="0" stop-color="#5067ae"/>
      <stop offset=".2" stop-color="#54c3ed"/>
      <stop offset=".6" stop-color="#75bb67"/>
      <stop offset="1" stop-color="#ffd02f"/>
    </linearGradient>
  </defs>
  <g id="Symbol_x2F_Colour">
    <g id="Right-Swirl">
      <path id="Base-Shape" d="M55.5,124.2c23.4,11.2,52.4,5.7,69.9-15.2,20.7-24.7,17.5-61.5-7.2-82.2l-16.4,19.6c19.3,16.2,21.8,44.9,5.6,64.2-12.9,15.4-34.2,20.5-51.9,13.6" fill="url(#linear-gradient)" fill-rule="evenodd"/>
      <path id="Light-Cast" d="M55.5,124.2c23.4,11.2,52.4,5.7,69.9-15.2,2.1-2.6,4-5.2,5.6-8,2.8-17.2-3.3-35.3-17.6-47.3-3.6-3-7.6-5.5-11.7-7.4,19.3,16.2,21.8,44.9,5.6,64.2-12.9,15.4-34.2,20.5-51.9,13.6" fill="url(#linear-gradient1)" fill-rule="evenodd"/>
    </g>
    <g id="Left-Swirl">
      <path id="Base-shape" d="M105.8,18.9c-23.4-11.2-52.4-5.7-69.9,15.2-20.7,24.7-17.5,61.5,7.2,82.2l16.4-19.6c-19.3-16.2-21.8-44.9-5.6-64.2,12.9-15.4,34.2-20.5,51.9-13.6" fill="url(#linear-gradient2)" fill-rule="evenodd"/>
      <path id="Shadow" d="M105.8,18.9c-23.4-11.2-52.4-5.7-69.9,15.2-2.1,2.6-4,5.2-5.6,8-2.8,17.2,3.3,35.3,17.6,47.3,3.6,3,7.6,5.5,11.7,7.4-19.3-16.2-21.8-44.9-5.6-64.2,12.9-15.4,34.2-20.5,51.9-13.6" fill="url(#linear-gradient3)" fill-rule="evenodd"/>
    </g>
  </g>
  <g id="Wordmark_x2F_Swish">
    <path id="swish_xAE_" d="M368.5,46.4c0-1.3.3-2.5.7-3.7.5-1.2,1.2-2.1,1.9-3,.8-.8,1.8-1.5,2.9-2,1.1-.5,2.3-.7,3.5-.7s2.5.3,3.6.7c1.1.5,2.1,1.2,3,2s1.5,1.9,2,3c.5,1.2.7,2.4.7,3.7s-.3,2.5-.7,3.7c-.5,1.2-1.2,2.1-2,3s-1.8,1.5-3,2c-1.1.5-2.3.7-3.6.7s-2.5-.3-3.5-.7c-1.1-.5-2.1-1.2-2.9-2-.8-.8-1.5-1.9-1.9-3-.5-1.2-.7-2.4-.7-3.7ZM370.4,46.4c0,1.1.2,2.1.6,3,.4.9.9,1.7,1.5,2.5.6.7,1.4,1.2,2.3,1.6s1.9.6,2.9.6,2-.2,2.9-.6,1.7-1,2.3-1.6,1.2-1.5,1.5-2.5c.4-.9.6-1.9.6-3s-.2-2.1-.6-3c-.4-.9-.9-1.7-1.5-2.5-.6-.7-1.4-1.2-2.3-1.6s-1.9-.6-2.9-.6-2,.2-2.9.6-1.7,1-2.3,1.6c-.6.7-1.2,1.5-1.5,2.5-.4.9-.6,1.9-.6,3ZM374.5,42.4c0-.6.3-.8.8-.8h2.9c.9,0,1.7.3,2.2.8.6.5.8,1.2.8,2.2s0,.7-.2,1c-.1.3-.3.5-.5.8-.2.2-.4.4-.6.5s-.4.3-.6.3h0c0,0,0,.1,0,.1,0,0,0,0,.1.2,0,0,0,.2.1.3l1.4,2.6c.1.3.2.5.1.7,0,.2-.3.3-.6.3h-.3c-.5,0-.8-.2-1-.6l-1.5-3.2h-1.6v3c0,.6-.3.8-.8.8h-.3c-.5,0-.8-.3-.8-.8v-8.1h.1ZM377.9,46.1c.5,0,.9-.1,1.2-.5s.4-.7.4-1.2-.1-.9-.4-1.2-.6-.4-1.2-.4h-1.5v3.2h1.5ZM302.6,52.3c2.9,0,5.4.4,7.4,1.1,2.1.8,3.6,1.4,4.8,2.1,1,.5,1.5,1.2,1.7,2.1.2.8,0,1.7-.5,2.8l-.8,1.5c-.5,1-1.2,1.6-2,1.8s-1.7,0-2.8-.5c-1-.5-2.1-.9-3.5-1.4s-3-.7-4.8-.7-3.4.4-4.4,1.1c-1,.8-1.5,1.8-1.5,3.2s.5,2.2,1.6,2.9c1,.8,2.4,1.4,4.1,2,1.6.6,3.4,1.2,5.2,1.9,1.9.6,3.6,1.5,5.2,2.5s3,2.3,4.1,3.9c1,1.6,1.6,3.6,1.6,6.1s-.4,3.7-1.2,5.4-1.9,3-3.4,4.3c-1.5,1.2-3.2,2.1-5.3,2.8-2.1.7-4.3,1-6.9,1s-6.5-.5-9-1.5c-2.5-1-4.3-2-5.6-2.9-1-.6-1.5-1.3-1.6-2.1-.1-.8.1-1.7.8-2.8l1-1.5c.6-.9,1.4-1.4,2.1-1.5s1.7.1,2.8.7c1,.6,2.4,1.2,4,1.9s3.5,1.1,5.8,1.1,3.4-.4,4.5-1.2,1.6-1.9,1.6-3.3-.5-2.1-1.6-2.9c-1-.7-2.4-1.4-4.1-2-1.6-.6-3.4-1.2-5.2-1.9s-3.6-1.5-5.2-2.6-3-2.3-4.1-3.9c-1-1.6-1.6-3.7-1.6-6.2s.5-4,1.4-5.7c.9-1.7,2.1-3,3.6-4.1s3.3-1.9,5.4-2.5c2.1-.6,4.2-.8,6.5-.8h0ZM174.9,52.3c2.9,0,5.4.4,7.4,1.1s3.6,1.4,4.8,2.1c1,.5,1.5,1.2,1.7,2.1.2.8,0,1.7-.5,2.8l-.8,1.5c-.5,1-1.2,1.6-2,1.8s-1.7,0-2.8-.5c-1-.5-2.1-.9-3.5-1.4-1.4-.5-3-.7-4.8-.7s-3.4.4-4.4,1.1c-1,.8-1.5,1.8-1.5,3.2s.5,2.2,1.6,2.9c1,.8,2.4,1.4,4.1,2,1.6.6,3.4,1.2,5.2,1.9,1.9.6,3.6,1.5,5.2,2.5,1.6,1,3,2.3,4.1,3.9,1,1.6,1.6,3.6,1.6,6.1s-.4,3.7-1.2,5.4-1.9,3-3.4,4.3c-1.5,1.2-3.2,2.1-5.3,2.8-2.1.7-4.3,1-6.9,1s-6.5-.5-9-1.5c-2.5-1-4.3-2-5.6-2.9-1-.6-1.5-1.3-1.6-2.1-.1-.8.1-1.7.8-2.8l1-1.5c.6-.9,1.4-1.4,2.1-1.5s1.7.1,2.8.7c1,.6,2.4,1.2,4,1.9s3.5,1.1,5.8,1.1,3.4-.4,4.5-1.2c1.1-.8,1.6-1.9,1.6-3.3s-.5-2.1-1.6-2.9c-1-.7-2.4-1.4-4.1-2-1.6-.6-3.4-1.2-5.2-1.9s-3.6-1.5-5.2-2.6-3-2.3-4.1-3.9-1.6-3.7-1.6-6.2.5-4,1.4-5.7c.9-1.7,2.1-3,3.6-4.1s3.3-1.9,5.4-2.5,4.2-.8,6.5-.8h0ZM331.5,36.2c2.4,0,3.6,1.2,3.6,3.6v19.2c0,.5,0,.8-.1,1.2,0,.4,0,.8,0,1h.2c.5-1,1.2-2.1,2.2-3.2,1-1,2.1-2,3.4-2.9,1.3-.8,2.8-1.5,4.4-2.1,1.6-.5,3.4-.8,5.3-.8,4.8,0,8.6,1.3,11.3,3.9s4,6.8,4,12.7v24.5c0,2.4-1.2,3.6-3.6,3.6h-3.7c-2.4,0-3.6-1.2-3.6-3.6v-22.3c0-2.7-.5-4.8-1.4-6.5s-2.8-2.5-5.5-2.5-3.6.4-5.2,1.1c-1.5.8-2.9,1.7-4,3s-1.9,2.8-2.5,4.6c-.6,1.7-.9,3.7-.9,5.7v16.7c0,2.4-1.2,3.6-3.6,3.6h-3.7c-2.4,0-3.6-1.2-3.6-3.6v-53.7c0-2.4,1.2-3.6,3.6-3.6h3.7-.1ZM274.5,53.3c2.3,0,3.5,1.2,3.5,3.6v36.5c0,2.4-1.2,3.6-3.5,3.6h-3.8c-2.3,0-3.5-1.2-3.5-3.6v-36.5c0-2.4,1.2-3.6,3.5-3.6h3.8ZM201.6,53.3c2.2,0,3.5,1,3.9,3.2l7,25.5c.1.6.2,1.2.3,1.7,0,.5.2,1,.3,1.5.1.5.2,1,.3,1.5h.2c0-.5.1-1,.3-1.5.1-.5.2-1,.3-1.5,0-.5.2-1.1.4-1.7l7.4-25.5c.4-2.1,1.7-3.1,3.9-3.1h3.3c2.1,0,3.4,1,3.9,3.1l7.3,25.5c.2.6.3,1.2.4,1.7s.2,1,.3,1.5c.1.5.2,1,.3,1.5h.2c0-.5.1-1,.3-1.5.1-.5.2-1,.3-1.5,0-.5.2-1.1.4-1.7l7-25.5c.5-2.1,1.8-3.2,3.9-3.2h3.9c1.3,0,2.3.4,2.8,1.1.5.8.6,1.7.3,2.9l-11.2,36.7c-.6,2-1.9,3-4.1,3h-5.7c-2.2,0-3.5-1-4.1-3.1l-6.6-21.9c-.2-.6-.3-1.2-.5-1.7s-.3-1.1-.3-1.5c-.1-.5-.2-1-.3-1.5h-.2c-.1.5-.3,1-.3,1.5-.1.5-.3,1-.3,1.5-.1.6-.3,1.2-.5,1.7l-6.6,21.9c-.5,2.1-1.8,3.1-3.9,3.1h-5.9c-2.1,0-3.4-1-3.9-3l-11.4-36.7c-.3-1.2-.3-2.2.3-2.9.5-.8,1.4-1.1,2.7-1.1h4.1-.1Z" fill="#171920"/>
  </g>
</svg>